<?xml version="1.0" standalone="no"?>
<!DOCTYPE svg PUBLIC "-//W3C//DTD SVG 1.1//EN" "http://www.w3.org/Graphics/SVG/1.1/DTD/svg11.dtd" >
<svg xmlns="http://www.w3.org/2000/svg">
<metadata></metadata>
<defs>
<font id="interstatelightregular" horiz-adv-x="1388" >
<font-face units-per-em="2048" ascent="1638" descent="-410" />
<missing-glyph horiz-adv-x="532" />
<glyph horiz-adv-x="2048" />
<glyph horiz-adv-x="2048" />
<glyph unicode="&#xd;" horiz-adv-x="532" />
<glyph unicode=" "  horiz-adv-x="532" />
<glyph unicode="&#x09;" horiz-adv-x="532" />
<glyph unicode="&#xa0;" horiz-adv-x="532" />
<glyph unicode="!" horiz-adv-x="538" d="M143 102q0 51 37 90t88 39q49 0 87 -39t38 -90t-38 -88t-87 -37q-51 0 -88 37t-37 88zM190 760v674h158v-674l-37 -375h-86z" />
<glyph unicode="&#x22;" horiz-adv-x="942" d="M172 1434h190l-34 -670h-121zM580 1434h190l-35 -670h-121z" />
<glyph unicode="#" horiz-adv-x="1376" d="M106 360v144h246v426h-246v143h246v361h154v-361h364v361h154v-361h246v-143h-246v-426h246v-144h-246v-360h-154v360h-364v-360h-154v360h-246zM506 504h364v426h-364v-426z" />
<glyph unicode="$" horiz-adv-x="1191" d="M102 197l107 118q178 -172 381 -172q145 0 227 61.5t82 174.5q0 98 -71.5 159.5t-270.5 133.5q-236 84 -325 170t-89 237q0 152 101 244q94 90 264 109v206h154v-204q195 -16 366 -152l-102 -125q-162 133 -344 133q-279 0 -279 -200q0 -92 65.5 -147.5t274.5 -131.5 q240 -86 328 -175t88 -249q0 -156 -105.5 -260t-291.5 -125v-207h-154v207q-242 27 -406 195z" />
<glyph unicode="%" horiz-adv-x="1972" d="M123 1008q0 201 91 324.5t243 123.5q154 0 242.5 -121.5t88.5 -322.5q0 -197 -93 -322t-242 -125q-150 0 -240 122t-90 321zM264 1012q0 -143 52.5 -233.5t140.5 -90.5q86 0 139 96q51 91 51 224q0 143 -52 234t-140 91t-139.5 -89t-51.5 -232zM465 0l891 1434h149 l-891 -1434h-149zM1184 420q0 201 91 324.5t243 123.5q154 0 242.5 -121.5t88.5 -322.5q0 -197 -93 -322t-243 -125t-239.5 122t-89.5 321zM1325 424q0 -143 52.5 -233.5t140.5 -90.5q86 0 139 97q51 90 51 223q0 143 -52 234t-140 91t-139.5 -89t-51.5 -232z" />
<glyph unicode="&#x26;" horiz-adv-x="1318" d="M125 362q0 152 84 259q76 92 237 174l-49 65q-127 170 -127 287q0 137 99.5 223t265.5 86q219 0 381 -129l-82 -127q-147 117 -301 117q-94 0 -149.5 -44t-55.5 -118q0 -88 86 -201l436 -567q49 90 99 252l135 -41q-49 -182 -144 -328l207 -270h-188l-115 150 q-168 -172 -387 -173q-223 0 -334 115q-98 100 -98 270zM279 367q0 -109 71 -177q78 -74 211 -73q176 0 299 139l-332 434q-250 -115 -249 -323z" />
<glyph unicode="'" horiz-adv-x="526" d="M166 1434h194l-34 -670h-125z" />
<glyph unicode="(" horiz-adv-x="712" d="M129 614q0 473 416 852l67 -63q-326 -336 -325 -778q-1 -451 325 -787l-67 -63q-416 379 -416 839z" />
<glyph unicode=")" horiz-adv-x="712" d="M100 -162q326 336 326 778q0 451 -326 787l68 63q416 -378 416 -839q0 -473 -416 -852z" />
<glyph unicode="*" horiz-adv-x="1024" d="M147 911l304 138l-304 137l64 110l272 -202l-34 340h126l-34 -340l272 202l64 -110l-304 -137l304 -138l-64 -110l-272 203l34 -340h-126l34 340l-272 -203z" />
<glyph unicode="+" horiz-adv-x="1181" d="M113 635v139h403v416h150v-416h403v-139h-403v-416h-150v416h-403z" />
<glyph unicode="," horiz-adv-x="491" d="M123 -242l31 478h208l-133 -478h-106z" />
<glyph unicode="-" horiz-adv-x="659" d="M104 674v149h451v-149h-451z" />
<glyph unicode="." horiz-adv-x="491" d="M115 109q0 53 39 94t92 41q51 0 91 -41t40 -94t-39 -92.5t-92 -39.5t-92 39t-39 93z" />
<glyph unicode="/" horiz-adv-x="870" d="M53 -184l613 1802h151l-612 -1802h-152z" />
<glyph unicode="0" horiz-adv-x="1314" d="M121 717q0 350 149 549q143 190 387 190t390 -190q147 -199 147 -549t-146.5 -545t-390.5 -195t-387 193q-150 197 -149 547zM279 717q0 -281 97 -438.5t281 -157.5t281.5 157.5t97.5 438.5t-97 438.5t-282 157.5q-184 0 -281 -158t-97 -438z" />
<glyph unicode="1" horiz-adv-x="638" d="M31 1147v100q266 16 297 187h121v-1434h-158v1147h-260z" />
<glyph unicode="2" horiz-adv-x="1165" d="M80 0q12 252 135 416q92 125 326 284q188 129 248.5 202t60.5 171q0 113 -77 176.5t-216 63.5q-195 0 -348 -133l-92 116q199 160 446 160q201 0 318 -92q127 -98 127 -283q0 -152 -82 -252q-66 -82 -277 -225t-293 -244q-74 -88 -94 -208h760v-152h-942z" />
<glyph unicode="3" horiz-adv-x="1153" d="M66 176l106 107q152 -162 346 -162q344 0 344 287q0 131 -92 200.5t-248 69.5h-94v137h98q135 0 209 70q68 68 68 184q0 244 -295 244q-164 0 -289 -131l-100 102q164 172 393 172q199 0 319 -90q129 -98 130 -276q0 -231 -203 -336q262 -57 262 -342q0 -203 -136 -319 t-374 -116q-129 0 -256 60q-115 55 -188 139z" />
<glyph unicode="4" horiz-adv-x="1280" d="M80 340v133l741 961h172v-957h197v-137h-197v-340h-147v340h-766zM254 477h592v766q-68 -96 -203 -270l-194 -252q-133 -174 -195 -244z" />
<glyph unicode="5" horiz-adv-x="1239" d="M119 109l78 127q180 -115 387 -115q180 0 274 94t94 252q0 141 -88 221t-254 80t-299 -92l-157 61l49 697h821v-152h-684l-35 -461q131 90 316 90q240 0 368 -120q121 -115 121 -314q0 -250 -152 -379q-139 -121 -387 -121q-252 0 -452 132z" />
<glyph unicode="6" horiz-adv-x="1257" d="M125 543q0 336 178 583q223 305 651 330v-141q-563 -49 -675 -602q158 168 413 168q209 0 336 -109q139 -117 139 -330q0 -223 -151 -348q-143 -117 -377 -117q-231 0 -365 129q-150 145 -149 437zM283 434q0 -135 100 -224t262 -89q174 0 273 88q92 84 92 225 q0 143 -94.5 223t-264.5 80t-269 -83t-99 -220z" />
<glyph unicode="7" horiz-adv-x="1138" d="M33 1282v152h942v-150q-465 -573 -477 -1284h-162q18 694 465 1282h-768z" />
<glyph unicode="8" horiz-adv-x="1302" d="M119 397q0 276 284 371q-223 88 -223 303q0 172 125 278.5t348 106.5t346 -104.5t123 -276.5q0 -209 -223 -303q285 -95 285 -371q0 -205 -142.5 -314.5t-392.5 -109.5t-387 107q-143 109 -143 313zM276 401q0 -129 96.5 -204.5t280.5 -75.5t278.5 73.5t94.5 202.5 t-100.5 210t-276.5 81t-274.5 -79t-98.5 -208zM338 1075q0 -106 85 -175t230 -69q139 0 225.5 69t86.5 171t-72 166q-84 76 -244 76t-241 -74q-70 -63 -70 -164z" />
<glyph unicode="9" horiz-adv-x="1257" d="M90 991q0 223 152 348q143 117 376 117q231 0 365 -129q150 -145 150 -436q0 -336 -179 -582q-223 -307 -651 -332v142q563 49 676 602q-158 -168 -414 -168q-209 0 -336 109q-139 117 -139 329zM248 999q0 -143 94 -223t264 -80t269.5 83t99.5 220q0 135 -100.5 224.5 t-262.5 89.5q-174 0 -269 -86t-95 -228z" />
<glyph unicode=":" horiz-adv-x="491" d="M115 109q0 53 39 94t92 41q51 0 91 -41t40 -94t-39 -92.5t-92 -39.5t-92 39t-39 93zM115 963q0 53 39 94t92 41q51 0 91 -41t40 -94t-39 -92.5t-92 -39.5t-92 39t-39 93z" />
<glyph unicode=";" horiz-adv-x="491" d="M109 -242l30 478h209l-133 -478h-106zM115 963q0 53 39 94t92 41q51 0 91 -41t40 -94t-39 -92.5t-92 -39.5t-92 39t-39 93z" />
<glyph unicode="&#x3c;" horiz-adv-x="788" d="M117 635v139l530 508v-190l-409 -385l409 -385v-195z" />
<glyph unicode="=" horiz-adv-x="1181" d="M164 410v143h854v-143h-854zM164 856v143h854v-143h-854z" />
<glyph unicode="&#x3e;" horiz-adv-x="788" d="M141 127v190l410 385l-410 385v195l531 -508v-139z" />
<glyph unicode="?" horiz-adv-x="1148" d="M90 1266q195 190 479 190q201 0 320 -88q123 -94 123 -264q0 -137 -68 -223q-49 -63 -186 -148q-111 -68 -137 -149q-18 -49 -19 -199h-158q0 209 41 290t201 179q88 55 123 100q43 55 43 138q0 98 -80 158.5t-209 60.5q-201 0 -370 -158zM395 102q0 51 37 90t88 39 q49 0 87 -39t38 -90t-38 -88t-87 -37q-51 0 -88 37t-37 88z" />
<glyph unicode="@" horiz-adv-x="1712" d="M117 717q0 322 209 530.5t530 208.5q322 0 530.5 -210t208.5 -509q0 -426 -303 -426q-154 0 -219 129q-102 -129 -266 -129q-139 0 -223 70q-90 74 -90 211q0 127 96 199q90 70 235 69q135 0 228 -55v121q0 131 -211 131q-106 0 -209 -49l-45 88q127 63 268 63 q303 0 303 -227v-395q0 -133 146 -134q188 0 188 332q0 276 -180 450.5t-457 174.5q-279 0 -458 -176t-179 -463q0 -289 179.5 -468t457.5 -179q152 0 279 63l36 -90q-154 -70 -315 -70q-322 0 -530.5 209t-208.5 531zM608 598q0 -184 209 -184q156 0 236 123v165 q-98 59 -238 60q-92 0 -149.5 -46t-57.5 -118z" />
<glyph unicode="A" d="M109 0l497 1434h176l498 -1434h-168l-123 365h-592l-125 -365h-163zM446 510h494l-158 471q-72 213 -88 283q-18 -76 -90 -287z" />
<glyph unicode="B" horiz-adv-x="1282" d="M188 0v1434h525q178 0 280 -86q109 -94 109 -273q0 -219 -207 -293q274 -73 274 -358q0 -424 -467 -424h-514zM348 145h365q297 1 297 271q0 133 -82 207.5t-223 74.5h-357v-553zM348 842h346q248 0 248 227q0 219 -235 219h-359v-446z" />
<glyph unicode="C" horiz-adv-x="1286" d="M127 715q0 322 164 531.5t422 209.5q291 0 456 -229l-127 -97q-72 96 -143 138q-78 43 -190 43q-184 0 -303 -166t-119 -426t120.5 -428t303.5 -168q209 0 354 188l111 -96q-176 -238 -469 -238q-260 0 -420 209t-160 529z" />
<glyph unicode="D" horiz-adv-x="1347" d="M188 0v1434h379q297 0 469 -168q185 -185 185 -539q0 -371 -197 -559q-178 -168 -485 -168h-351zM348 145h211q502 1 502 576q0 276 -130 421.5t-376 145.5h-207v-1143z" />
<glyph unicode="E" horiz-adv-x="1202" d="M188 0v1434h867v-146h-707v-450h410v-146h-410v-547h737v-145h-897z" />
<glyph unicode="F" horiz-adv-x="1122" d="M188 0v1434h842v-146h-682v-475h393v-145h-393v-668h-160z" />
<glyph unicode="G" horiz-adv-x="1349" d="M127 715q0 322 164 531.5t422 209.5q291 0 456 -229l-127 -97q-72 96 -143 138q-78 43 -190 43q-184 0 -303 -166t-119 -426t120.5 -428t303.5 -168q371 0 370 428v12h-258v148h414v-140q0 -287 -152 -444q-141 -150 -378 -150q-260 0 -420 209t-160 529z" />
<glyph unicode="H" horiz-adv-x="1409" d="M188 0v1434h160v-613h713v613h160v-1434h-160v676h-713v-676h-160z" />
<glyph unicode="I" horiz-adv-x="557" d="M199 0v1434h159v-1434h-159z" />
<glyph unicode="J" horiz-adv-x="1183" d="M61 324l152 51q92 -252 309 -252q172 0 248 102.5t76 329.5v879h160v-885q0 -571 -490 -572q-338 0 -455 347z" />
<glyph unicode="K" horiz-adv-x="1314" d="M188 0v1434h160v-818q72 102 209 281l416 537h174l-420 -539l500 -895h-183l-423 764l-273 -352v-412h-160z" />
<glyph unicode="L" horiz-adv-x="1177" d="M188 0v1434h160v-1289h709v-145h-869z" />
<glyph unicode="M" horiz-adv-x="1613" d="M188 0v1434h179l338 -859q86 -217 102 -278q27 88 102 278l342 859h174v-1434h-153v1124q-20 -80 -86 -237l-383 -924l-377 924q-61 150 -84 237v-1124h-154z" />
<glyph unicode="N" horiz-adv-x="1409" d="M188 0v1434h156l621 -1000q63 -102 102 -180v1180h154v-1434h-150l-627 981q-57 88 -102 180v-1161h-154z" />
<glyph unicode="O" horiz-adv-x="1443" d="M127 715q0 326 165 533.5t431 207.5t430 -205.5t164 -531.5t-166 -534t-432 -208t-429 206t-163 532zM287 719q0 -266 124 -431t314 -165q188 0 310 163t122 429t-127 434q-123 162 -313 162q-188 0 -307 -160q-123 -166 -123 -432z" />
<glyph unicode="P" horiz-adv-x="1265" d="M188 0v1434h537q205 0 326 -105q131 -114 131 -323t-133.5 -326t-352.5 -117h-348v-563h-160zM348 709h350h2q322 0 322 290q0 289 -303 289h-371v-579z" />
<glyph unicode="Q" horiz-adv-x="1443" d="M127 715q0 326 165 533.5t431 207.5t430 -205.5t164 -531.5q0 -408 -252 -617l92 -149l-131 -78l-90 148q-102 -45 -217 -46q-266 0 -429 206t-163 532zM287 719q0 -266 124 -431t314 -165q74 0 135 24l-117 191l131 78l115 -189q168 162 168 488q0 266 -127 434 q-123 162 -313 162q-188 0 -307 -160q-123 -166 -123 -432z" />
<glyph unicode="R" horiz-adv-x="1331" d="M188 0v1434h568q199 0 317 -99q129 -108 129 -307q0 -164 -90 -268.5t-248 -136.5l316 -623h-185l-307 610h-340v-610h-160zM348 754h381q313 0 313 268q0 266 -292 266h-402v-534z" />
<glyph unicode="S" horiz-adv-x="1212" d="M113 176l106 119q178 -172 381 -172q143 0 226 66.5t83 179.5q0 100 -73.5 166.5t-268.5 136.5q-233 84 -323 174t-90 244q0 170 122.5 268t325.5 98q244 0 436 -153l-102 -125q-162 133 -344 133q-139 0 -213 -64q-66 -55 -66 -147q0 -94 64 -150q70 -66 276 -139 q238 -86 327 -180t89 -254q0 -174 -125 -285q-131 -115 -350 -115q-287 0 -481 199z" />
<glyph unicode="T" horiz-adv-x="1204" d="M100 1288v146h1004v-146h-422v-1288h-160v1288h-422z" />
<glyph unicode="U" d="M178 582v852h160v-848q0 -463 367 -463q182 0 264 111.5t82 347.5v852h159v-848q0 -608 -514 -609q-518 0 -518 605z" />
<glyph unicode="V" horiz-adv-x="1368" d="M109 1434h167l320 -981q63 -195 88 -283q25 86 90 287l322 977h164l-488 -1434h-176z" />
<glyph unicode="W" horiz-adv-x="1753" d="M117 1434h159l168 -922q20 -125 54 -319q25 143 67 315l228 926h172l227 -926q43 -172 68 -315q18 113 53 319l168 922h155l-286 -1434h-181l-225 918q-39 158 -70 323q-31 -166 -69 -323l-225 -918h-177z" />
<glyph unicode="X" horiz-adv-x="1294" d="M117 0l446 745l-409 689h180l184 -314q55 -94 131 -237q41 84 131 237l185 314h176l-410 -684l447 -750h-181l-219 375q-92 158 -131 237q-39 -74 -131 -237l-223 -375h-176z" />
<glyph unicode="Y" horiz-adv-x="1335" d="M96 1434h183l229 -412q96 -172 162 -307q66 135 161 307l230 412h178l-491 -865v-569h-160v567z" />
<glyph unicode="Z" horiz-adv-x="1286" d="M125 0v139l678 924q70 94 174 231h-811v140h983v-140l-678 -923q-70 -94 -174 -232h852v-139h-1024z" />
<glyph unicode="[" horiz-adv-x="720" d="M195 -225v1659h397v-125h-248v-1409h248v-125h-397z" />
<glyph unicode="\" horiz-adv-x="870" d="M53 1618h152l612 -1802h-151z" />
<glyph unicode="]" horiz-adv-x="720" d="M129 -100h248v1409h-248v125h397v-1659h-397v125z" />
<glyph unicode="^" horiz-adv-x="1142" d="M96 782l418 652h115l418 -652h-177l-301 484l-301 -484h-172z" />
<glyph unicode="_" horiz-adv-x="1024" d="M0 -184h1024v-129h-1024v129z" />
<glyph unicode="`" horiz-adv-x="1024" d="M238 1546h219l211 -327h-121z" />
<glyph unicode="a" horiz-adv-x="1103" d="M106 322q0 170 127 262q111 82 285 82q156 0 268 -62v127q0 238 -233 238q-152 0 -293 -82l-57 125q158 86 360 86q377 0 377 -348v-750h-154v131q-141 -154 -335 -154q-145 0 -236 74q-109 90 -109 271zM258 332q0 -229 219 -230q192 0 309 162v217q-111 61 -276 62 q-252 0 -252 -211z" />
<glyph unicode="b" horiz-adv-x="1144" d="M170 0v1407l154 86v-549q141 154 323 154q172 0 273 -129q112 -144 112 -414q0 -274 -119 -432q-111 -145 -286 -146q-176 0 -303 144v-121h-154zM324 272q105 -161 288 -161h2q267 0 267 442q0 201 -72 306.5t-201 105.5q-160 0 -284 -156v-537z" />
<glyph unicode="c" horiz-adv-x="1013" d="M113 532q0 279 147 433q127 133 315 133q195 0 340 -127l-92 -115q-121 109 -258 109q-129 0 -211 -109q-86 -115 -86 -311q0 -201 81 -317.5t222 -116.5q129 0 248 114l92 -98q-145 -150 -346 -150q-190 0 -315 138q-137 152 -137 417z" />
<glyph unicode="d" horiz-adv-x="1144" d="M113 520q0 274 118 432q111 145 287 146q176 0 303 -144v453l154 86v-1493h-154v131q-141 -154 -323 -154q-172 0 -273 129q-113 143 -112 414zM264 522q0 -201 72 -306t201 -105h2q158 0 282 155v537q-106 162 -291 162q-266 0 -266 -443z" />
<glyph unicode="e" horiz-adv-x="1105" d="M113 543q0 252 124.5 403.5t319.5 151.5q205 0 322 -150q110 -141 110 -379q0 -47 -6 -84h-717q10 -174 89 -274t210 -100q143 0 297 102l72 -111q-106 -68 -180 -92q-90 -33 -205 -33q-174 0 -291 125q-145 152 -145 441zM266 610h580q-20 354 -291 355 q-262 0 -289 -355z" />
<glyph unicode="f" horiz-adv-x="729" d="M96 946v129h148v148q0 264 254 264q80 0 135 -19v-145q-51 25 -125 25q-111 0 -111 -113v-160h211v-129h-211v-946h-153v946h-148z" />
<glyph unicode="g" horiz-adv-x="1144" d="M113 520q0 274 118 432q111 145 287 146q176 0 303 -144v121h154v-979q0 -248 -123 -362q-127 -121 -422 -129l-49 116q262 8 354 89q86 74 86 266v55q-141 -154 -323 -154q-172 0 -273 129q-113 143 -112 414zM264 522q0 -201 72 -306t201 -105h2q158 0 282 155v537 q-106 162 -291 162q-266 0 -266 -443z" />
<glyph unicode="h" horiz-adv-x="1161" d="M170 0v1407l154 86v-549q104 154 297 154q377 0 376 -443v-655h-153v629q0 336 -254 336q-119 0 -189 -80q-78 -88 -77 -256v-629h-154z" />
<glyph unicode="i" horiz-adv-x="514" d="M147 1376q0 47 33 79t80 32q43 0 75 -33t32 -78t-32 -76.5t-75 -31.5q-47 0 -80 31.5t-33 76.5zM180 0v1075h154v-1075h-154z" />
<glyph unicode="j" horiz-adv-x="514" d="M-35 -281q141 43 180 103q35 53 35 205v1048h154v-1050q0 -195 -58 -277q-66 -94 -260 -143zM147 1376q0 47 33 79t80 32q43 0 75 -33t32 -78t-32 -76.5t-75 -31.5q-47 0 -80 31.5t-33 76.5z" />
<glyph unicode="k" horiz-adv-x="1034" d="M170 0v1407l154 86v-983l43 65l352 500h172l-283 -381l340 -694h-166l-272 565l-186 -256v-309h-154z" />
<glyph unicode="l" horiz-adv-x="514" d="M180 0v1407l154 86v-1493h-154z" />
<glyph unicode="m" horiz-adv-x="1736" d="M170 0v1075h154v-131q92 154 272 154q203 0 295 -185q115 184 326 185q356 0 356 -443v-655h-154v629q0 180 -56 258t-175 78q-240 0 -240 -336v-629h-153v629q0 336 -232 336q-240 0 -239 -336v-629h-154z" />
<glyph unicode="n" horiz-adv-x="1161" d="M170 0v1075h154v-131q104 154 297 154q377 0 376 -443v-655h-153v629q0 336 -254 336q-119 0 -189 -80q-78 -88 -77 -256v-629h-154z" />
<glyph unicode="o" horiz-adv-x="1159" d="M113 537q0 264 137 417q129 143 334 144q205 0 329 -140q134 -149 134 -413t-138 -420q-129 -147 -334 -148q-205 0 -329 144q-133 152 -133 416zM268 541q0 -207 84 -318.5t228 -111.5q143 0 228 111.5t85 318.5t-85 315.5t-228 108.5t-227.5 -108.5t-84.5 -315.5z" />
<glyph unicode="p" horiz-adv-x="1144" d="M170 -395v1470h154v-131q141 154 323 154q172 0 273 -129q112 -144 112 -414q0 -274 -119 -432q-111 -145 -286 -146q-176 0 -303 144v-430zM324 272q105 -161 288 -161h2q267 0 267 442q0 201 -72 306.5t-201 105.5q-160 0 -284 -156v-537z" />
<glyph unicode="q" horiz-adv-x="1144" d="M113 520q0 274 118 432q111 145 287 146q176 0 303 -144v121h154v-1384l-154 -86v526q-141 -154 -323 -154q-172 0 -273 129q-113 143 -112 414zM264 522q0 -201 72 -306t201 -105h2q158 0 282 155v537q-106 162 -291 162q-266 0 -266 -443z" />
<glyph unicode="r" horiz-adv-x="833" d="M170 0v1075h154v-133q39 68 110.5 112t155.5 44q109 0 168 -27l-39 -156q-72 41 -162 41q-113 0 -173 -86t-60 -239v-631h-154z" />
<glyph unicode="s" horiz-adv-x="956" d="M88 115l90 112q134 -118 290 -118h3q217 0 217 165q0 66 -54 111t-200 109q-172 74 -233 135q-72 72 -72 194q0 123 94 199t242 76q205 0 344 -115l-86 -113q-123 96 -268 97q-84 0 -131.5 -37t-47.5 -96q0 -66 52 -107q43 -37 186 -102q178 -80 238 -136q84 -75 84 -208 q0 -150 -115 -232q-100 -72 -254 -72q-207 0 -379 138z" />
<glyph unicode="t" horiz-adv-x="761" d="M80 946v129h133v332l154 86v-418h266v-129h-266v-700q0 -72 23.5 -100.5t84.5 -28.5q78 0 152 30l-11 -133q-88 -37 -198 -37q-205 0 -205 244v725h-133z" />
<glyph unicode="u" horiz-adv-x="1161" d="M164 420v655h153v-629q0 -335 252 -335h2q119 0 189 79q78 88 78 256v629h153v-1075h-153v131q-104 -154 -297 -154q-377 0 -377 443z" />
<glyph unicode="v" horiz-adv-x="1069" d="M82 1075h164l291 -897l16 51l274 846h160l-385 -1075h-135z" />
<glyph unicode="w" horiz-adv-x="1495" d="M96 1075h158l168 -710q12 -55 31 -152q23 102 34 152l193 710h139l193 -710q12 -49 35 -152q10 57 30 152l168 710h154l-285 -1075h-141l-195 721q-20 80 -33 151q-12 -72 -32 -151l-195 -721h-137z" />
<glyph unicode="x" horiz-adv-x="1032" d="M104 0l332 555l-309 520h170l223 -393l33 59l192 334h160l-309 -516l332 -559h-170l-246 432l-33 -59l-215 -373h-160z" />
<glyph unicode="y" horiz-adv-x="1087" d="M82 1075h162l299 -891l37 109l264 782h162l-535 -1454h-154l148 391z" />
<glyph unicode="z" horiz-adv-x="1007" d="M111 0v113l587 833h-540v129h714v-112l-587 -834h587v-129h-761z" />
<glyph unicode="{" horiz-adv-x="813" d="M117 535v143h49q70 0 95.5 29.5t25.5 117.5v183q0 217 101 323.5t317 112.5v-129q-143 -16 -205 -82t-62 -207v-143q0 -127 -25.5 -186.5t-95.5 -92.5q70 -33 95.5 -92t25.5 -186v-133q0 -141 61.5 -207t205.5 -82v-129q-215 6 -316.5 112.5t-101.5 323.5v176 q0 88 -25.5 118t-95.5 30h-49z" />
<glyph unicode="|" horiz-adv-x="622" d="M238 -379v2017h147v-2017h-147z" />
<glyph unicode="}" horiz-adv-x="813" d="M109 -96q143 16 204.5 81.5t61.5 207.5v143q0 127 25.5 186.5t95.5 91.5q-70 33 -95.5 92.5t-25.5 186.5v133q0 141 -61.5 206.5t-204.5 82.5v129q215 -6 316 -112.5t101 -323.5v-177q0 -88 26 -117.5t95 -29.5h49v-143h-49q-70 0 -95.5 -30t-25.5 -118v-182 q0 -217 -101 -323.5t-316 -112.5v129z" />
<glyph unicode="~" horiz-adv-x="1130" d="M88 655q55 135 121.5 196.5t171.5 61.5q86 0 192 -69q123 -80 177 -80q53 0 83.5 32.5t73.5 129.5l135 -62q-55 -135 -118 -192q-70 -66 -174 -66q-88 0 -193 70q-121 80 -176 80q-53 0 -85 -35t-73 -127z" />
<glyph unicode="&#xa0;" horiz-adv-x="1202" d="M188 0v1434h867v-146h-707v-450h410v-146h-410v-547h737v-145h-897zM312 1655q0 47 33.5 80.5t80.5 33.5q45 0 78 -33.5t33 -80.5q0 -45 -33 -79t-78 -34q-47 0 -80.5 32.5t-33.5 80.5zM709 1655q0 47 34 80.5t79 33.5t78.5 -33.5t33.5 -80.5q0 -45 -32.5 -79t-79.5 -34 q-45 0 -79 34t-34 79z" />
<glyph unicode="&#xa1;" horiz-adv-x="538" d="M145 1331q0 51 38 88t87 37q51 0 88 -37t37 -88t-36.5 -90t-88.5 -39q-49 0 -87 39t-38 90zM190 0v674l37 375h86l35 -375v-674h-158z" />
<glyph unicode="&#xa2;" horiz-adv-x="1013" d="M113 725q0 242 112 393q100 131 260 164v193h158v-189q155 -21 272 -123l-88 -110q-125 104 -262 104q-129 0 -211 -108q-86 -115 -86 -312q0 -201 81 -317.5t222 -116.5q133 0 250 113l90 -97q-119 -121 -268 -143v-199h-158v199q-162 29 -262 164q-111 147 -110 385z " />
<glyph unicode="&#xa3;" horiz-adv-x="1251" d="M172 0v143q102 119 145 207q53 111 56 250h-201v139h178q-18 49 -67 129q-70 115 -70 230q0 168 133 266q125 92 326 92q246 0 442 -178l-96 -117q-158 152 -350 152q-143 0 -220 -60.5t-77 -152.5q0 -82 65 -193q49 -84 74 -168h311v-139h-297q-8 -248 -172 -455h778 v-145h-958z" />
<glyph unicode="&#xa4;" horiz-adv-x="1490" d="M41 707l340 -248q12 -8 18 -6q10 4 4 20l-61 164h338v-367l-164 62q-16 6 -20 -4q-2 -6 6 -19l248 -340l247 340q8 12 7 19q-4 10 -21 4l-164 -62v367h330l-62 -164q-6 -16 5 -20q6 -2 18 6l340 248l-340 247q-12 8 -18 7q-10 -4 -5 -21l62 -164h-330v387l164 -61 q16 -6 21 4q2 6 -7 18l-247 340l-248 -340q-8 -12 -6 -18q4 -10 20 -4l164 61v-387h-338l61 164q6 16 -4 21q-6 2 -18 -7z" />
<glyph unicode="&#xa5;" horiz-adv-x="1253" d="M76 1434h182l213 -412q102 -197 158 -317q55 121 157 317l213 412h179l-471 -865v-159h317v-142h-317v-268h-160v268h-336v142h336v157z" />
<glyph unicode="&#xa6;" horiz-adv-x="557" d="M199 0v1434h159v-1434h-159zM199 1853h219l211 -327h-121z" />
<glyph unicode="&#xa7;" horiz-adv-x="1286" d="M113 571q0 215 254 357q-111 84 -111 217q0 141 110.5 226t286.5 85q213 0 396 -147l-95 -115q-82 68 -152.5 93.5t-172.5 25.5q-94 0 -154.5 -43t-60.5 -113q0 -72 61 -119q66 -53 232 -94q266 -68 366.5 -153.5t100.5 -241.5q0 -215 -254 -356q111 -84 110 -218 q0 -141 -110.5 -226t-286.5 -85q-213 0 -395 148l94 114q82 -68 152.5 -93.5t172.5 -25.5q94 0 154.5 43.5t60.5 112.5q0 72 -63.5 122t-228.5 91q-266 68 -366.5 154t-100.5 241zM270 584q0 -94 60 -148q72 -61 264 -110q121 -31 197 -62q225 105 225 273q0 94 -60 147 q-72 61 -264 111q-121 31 -196 61q-225 -104 -226 -272z" />
<glyph unicode="&#xa8;" horiz-adv-x="1024" d="M201 1348q0 47 33.5 80.5t80.5 33.5q45 0 78 -33.5t33 -80.5q0 -45 -33 -79t-78 -34q-47 0 -80.5 32.5t-33.5 80.5zM598 1348q0 47 34 80.5t79 33.5t78.5 -33.5t33.5 -80.5q0 -45 -32.5 -79t-79.5 -34q-45 0 -79 34t-34 79z" />
<glyph unicode="&#xa9;" horiz-adv-x="557" d="M199 0v1434h159v-1434h-159zM206 1526l211 327h219l-309 -327h-121z" />
<glyph unicode="&#xaa;" horiz-adv-x="931" d="M96 838q0 139 103 213q90 66 233 65q117 0 207 -43v88q0 178 -178 178q-127 0 -236 -65l-55 110q137 72 299 72q309 0 309 -280v-598h-139v90q-109 -109 -260 -109q-119 0 -193 62q-90 72 -90 217zM233 846q0 -172 166 -172q148 0 240 121v163q-90 45 -213 46 q-193 0 -193 -158z" />
<glyph unicode="&#xab;" horiz-adv-x="1179" d="M61 537l416 538h174l-415 -536l415 -539h-174zM498 537l415 538h174l-415 -536l415 -539h-174z" />
<glyph unicode="&#xac;" horiz-adv-x="557" d="M199 0v1434h159v-1434h-159zM199 1516l252 327h172l252 -327h-133l-207 211l-207 -211h-129z" />
<glyph unicode="&#xad;" horiz-adv-x="659" d="M104 674v149h451v-149h-451z" />
<glyph unicode="&#xae;" horiz-adv-x="557" d="M199 0v1434h159v-1434h-159zM199 1663q0 47 33.5 80.5t80.5 33.5q45 0 78 -33.5t33 -80.5q0 -45 -33 -79t-78 -34q-47 0 -80.5 32.5t-33.5 80.5zM596 1663q0 47 34 80.5t79 33.5t78.5 -33.5t33.5 -80.5q0 -45 -32.5 -79t-79.5 -34q-45 0 -79 34t-34 79z" />
<glyph unicode="&#xaf;" horiz-adv-x="1024" d="M233 1266v143h558v-143h-558z" />
<glyph unicode="&#xb0;" horiz-adv-x="1396" d="M82 678v143h127v613h379q297 0 469 -168q184 -185 184 -539q0 -371 -197 -559q-178 -168 -485 -168h-350v678h-127zM365 145h215q501 1 501 576q0 276 -130 421.5t-376 145.5h-210v-467h290v-143h-290v-533z" />
<glyph unicode="&#xb1;" horiz-adv-x="1409" d="M188 0v1434h156l621 -1000q63 -102 102 -180v1180h154v-1434h-150l-627 981q-57 88 -102 180v-1161h-154zM350 1546q0 129 64 201q55 66 145 65q82 0 152 -53q117 -90 162 -90q61 0 80 137h127q0 -129 -64 -201q-55 -66 -145 -65q-82 0 -152 53q-37 29 -76 57 q-49 33 -86 33q-63 0 -80 -137h-127z" />
<glyph unicode="&#xb2;" horiz-adv-x="1202" d="M188 0v1434h867v-146h-707v-450h410v-146h-410v-547h737v-145h-897zM301 1853h219l211 -327h-121z" />
<glyph unicode="&#xb3;" horiz-adv-x="1202" d="M188 0v1434h867v-146h-707v-450h410v-146h-410v-547h737v-145h-897zM522 1526l211 327h219l-309 -327h-121z" />
<glyph unicode="&#xb4;" horiz-adv-x="1024" d="M356 1219l211 327h219l-309 -327h-121z" />
<glyph unicode="&#xb6;" horiz-adv-x="1409" d="M96 985q0 207 140 332q129 117 325 117h658v-1813h-158v1673h-187v-1673h-157v914h-156q-197 0 -328 116q-137 125 -137 334z" />
<glyph unicode="&#xb7;" horiz-adv-x="491" d="M115 752q0 53 39 94t92 41q51 0 91 -41t40 -94t-39 -92t-92 -39t-92 38.5t-39 92.5z" />
<glyph unicode="&#xb8;" horiz-adv-x="1024" d="M279 -322l38 66q86 -55 189 -55q137 0 137 88q0 68 -65 67q-57 0 -99 -37l-73 29l51 164h92l-35 -104q45 29 113 28q51 0 90 -30q47 -39 47 -111q0 -178 -244 -178q-129 0 -241 73z" />
<glyph unicode="&#xb9;" horiz-adv-x="1286" d="M127 715q0 322 164 531.5t422 209.5q291 0 456 -229l-127 -97q-72 96 -143 138q-78 43 -190 43q-184 0 -303 -166t-119 -426t120.5 -428t303.5 -168q209 0 354 188l111 -96q-168 -229 -451 -238l-27 -81q45 29 113 28q51 0 90 -30q47 -39 47 -111q0 -178 -243 -178 q-129 0 -242 73l39 66q86 -55 188 -55q137 0 137 88q0 68 -65 67q-57 0 -98 -37l-74 29l45 146q-229 31 -368.5 233.5t-139.5 499.5z" />
<glyph unicode="&#xba;" horiz-adv-x="983" d="M111 1008q0 213 110 333q104 115 275 115q168 0 268 -110q108 -119 108 -332q0 -211 -110 -336q-106 -117 -275 -117q-168 0 -268 115q-109 121 -108 332zM250 1012q0 -160 64.5 -244t177.5 -84t177 84t64 244q0 322 -241 321q-242 0 -242 -321z" />
<glyph unicode="&#xbb;" horiz-adv-x="1179" d="M92 0l416 537l-416 538h174l416 -536l-416 -539h-174zM528 0l416 537l-416 538h174l416 -536l-416 -539h-174z" />
<glyph unicode="&#xbc;" d="M109 0l497 1434h176l498 -1434h-168l-123 365h-592l-125 -365h-163zM329 1538q0 129 64 201q55 66 145 65q82 0 152 -53q117 -90 162 -90q61 0 80 137h127q0 -129 -64 -201q-55 -66 -145 -65q-82 0 -152 53q-37 29 -76 57q-49 33 -86 33q-63 0 -80 -137h-127zM446 510 h494l-158 471q-72 213 -88 283q-18 -76 -90 -287z" />
<glyph unicode="&#xbd;" d="M109 0l497 1434h176l498 -1434h-168l-123 365h-592l-125 -365h-163zM385 1655q0 47 33.5 80.5t80.5 33.5q45 0 78 -33.5t33 -80.5q0 -45 -33 -79t-78 -34q-47 0 -80.5 32.5t-33.5 80.5zM446 510h494l-158 471q-72 213 -88 283q-18 -76 -90 -287zM782 1655q0 47 34 80.5 t79 33.5t78.5 -33.5t33.5 -80.5q0 -45 -32.5 -79t-79.5 -34q-45 0 -79 34t-34 79z" />
<glyph unicode="&#xbe;" d="M109 0l471 1348q-127 68 -127 215q0 100 67.5 168.5t171.5 68.5t172 -68.5t68 -168.5q0 -145 -125 -213l473 -1350h-168l-123 365h-592l-125 -365h-163zM446 510h494l-158 471q-72 213 -88 283q-18 -76 -90 -287zM549 1563q0 -66 39 -107t104 -41q66 0 105 41t39 107 q0 63 -39 104t-105 41t-104.5 -41t-38.5 -104z" />
<glyph unicode="&#xbf;" horiz-adv-x="1148" d="M137 330q0 137 68 223q49 63 186 147q111 68 137 150q18 49 19 199h158q0 -209 -41 -287q-41 -84 -201 -182q-88 -55 -123 -101q-43 -55 -43 -137q0 -98 80 -158.5t209 -60.5q201 0 370 158l103 -113q-195 -190 -479 -191q-201 0 -322 91.5t-121 261.5zM504 1331 q0 51 38 88t87 37q51 0 88 -37t37 -88t-37 -90t-88 -39q-49 0 -87 39t-38 90z" />
<glyph unicode="&#xc0;" horiz-adv-x="1443" d="M127 715q0 326 165 533.5t431 207.5t430 -205.5t164 -531.5t-166 -534t-432 -208t-429 206t-163 532zM287 719q0 -266 124 -431t314 -165q188 0 310 163t122 429t-127 434q-123 162 -313 162q-188 0 -307 -160q-123 -166 -123 -432zM635 1526l211 327h219l-309 -327h-121 z" />
<glyph unicode="&#xc1;" horiz-adv-x="1443" d="M127 715q0 326 165 533.5t431 207.5t430 -205.5t164 -531.5t-166 -534t-432 -208t-429 206t-163 532zM287 719q0 -266 124 -431t314 -165q188 0 310 163t122 429t-127 434q-123 162 -313 162q-188 0 -307 -160q-123 -166 -123 -432zM381 1516l252 327h172l252 -327h-133 l-207 211l-207 -211h-129z" />
<glyph unicode="&#xc2;" horiz-adv-x="1443" d="M127 715q0 326 165 533.5t431 207.5t430 -205.5t164 -531.5t-166 -534t-432 -208t-429 206t-163 532zM287 719q0 -266 124 -431t314 -165q188 0 310 163t122 429t-127 434q-123 162 -313 162q-188 0 -307 -160q-123 -166 -123 -432zM354 1538q0 129 64 201q55 66 145 65 q82 0 152 -53q117 -90 162 -90q61 0 80 137h127q0 -129 -64 -201q-55 -66 -145 -65q-82 0 -152 53q-37 29 -76 57q-49 33 -86 33q-63 0 -80 -137h-127z" />
<glyph unicode="&#xc3;" horiz-adv-x="1443" d="M127 715q0 326 165 533.5t431 207.5t430 -205.5t164 -531.5t-166 -534t-432 -208t-429 206t-163 532zM287 719q0 -266 124 -431t314 -165q188 0 310 163t122 429t-127 434q-123 162 -313 162q-188 0 -307 -160q-123 -166 -123 -432zM410 1655q0 47 33.5 80.5t80.5 33.5 q45 0 78 -33.5t33 -80.5q0 -45 -33 -79t-78 -34q-47 0 -80.5 32.5t-33.5 80.5zM807 1655q0 47 34 80.5t79 33.5t78.5 -33.5t33.5 -80.5q0 -45 -32.5 -79t-79.5 -34q-45 0 -79 34t-34 79z" />
<glyph unicode="&#xc4;" horiz-adv-x="1490" d="M41 707l340 -248q12 -8 18 -6q10 4 4 20l-61 164h338v-367l-164 62q-16 6 -20 -4q-2 -6 6 -19l248 -340l247 340q8 12 7 19q-4 10 -21 4l-164 -62v367h330l-62 -164q-6 -16 5 -20q6 -2 18 6l340 248l-340 247q-12 8 -18 7q-10 -4 -5 -21l62 -164h-330v387l164 -61 q16 -6 21 4q2 6 -7 18l-247 340l-248 -340q-8 -12 -6 -18q4 -10 20 -4l164 61v-387h-338l61 164q6 16 -4 21q-6 2 -18 -7z" />
<glyph unicode="&#xc5;" d="M178 582v852h160v-848q0 -463 367 -463q182 0 264 111.5t82 347.5v852h159v-848q0 -608 -514 -609q-518 0 -518 605zM347 1822h219l211 -327h-121z" />
<glyph unicode="&#xc6;" horiz-adv-x="2043" d="M49 0l963 1434h884v-146h-714v-450h417v-146h-417v-547h745v-145h-897v365h-559l-240 -365h-182zM565 510h465v455q0 47 2 143t2 121q-23 -39 -133 -207z" />
<glyph unicode="&#xc7;" d="M178 582v852h160v-848q0 -463 367 -463q182 0 264 111.5t82 347.5v852h159v-848q0 -608 -514 -609q-518 0 -518 605zM608 1495l211 327h219l-309 -327h-121z" />
<glyph unicode="&#xc8;" d="M178 582v852h160v-848q0 -463 367 -463q182 0 264 111.5t82 347.5v852h159v-848q0 -608 -514 -609q-518 0 -518 605zM356 1526l252 327h172l252 -327h-133l-207 211l-207 -211h-129z" />
<glyph unicode="&#xc9;" d="M178 582v852h160v-848q0 -463 367 -463q182 0 264 111.5t82 347.5v852h159v-848q0 -608 -514 -609q-518 0 -518 605zM383 1655q0 47 33.5 80.5t80.5 33.5q45 0 78 -33.5t33 -80.5q0 -45 -33 -79t-78 -34q-47 0 -80.5 32.5t-33.5 80.5zM780 1655q0 47 34 80.5t79 33.5 t78.5 -33.5t33.5 -80.5q0 -45 -32.5 -79t-79.5 -34q-45 0 -79 34t-34 79z" />
<glyph unicode="&#xca;" horiz-adv-x="1335" d="M96 1434h183l229 -412q96 -172 162 -307q66 135 161 307l230 412h178l-491 -865v-569h-160v567zM592 1487l211 327h219l-309 -327h-121z" />
<glyph unicode="&#xcb;" horiz-adv-x="1265" d="M188 0v1434h160v-258h377q205 0 326 -105q131 -114 131 -323t-133.5 -326t-352.5 -117h-348v-305h-160zM348 451h350q324 -1 324 290q0 289 -303 289h-371v-579z" />
<glyph unicode="&#xcc;" horiz-adv-x="1103" d="M106 322q0 170 127 262q111 82 285 82q156 0 268 -62v127q0 238 -233 238q-152 0 -293 -82l-57 125q158 86 360 86q377 0 377 -348v-750h-154v131q-141 -154 -335 -154q-145 0 -236 74q-109 90 -109 271zM224 1546h219l211 -327h-121zM258 332q0 -229 219 -230 q192 0 309 162v217q-111 61 -276 62q-252 0 -252 -211z" />
<glyph unicode="&#xcd;" horiz-adv-x="1103" d="M106 322q0 170 127 262q111 82 285 82q156 0 268 -62v127q0 238 -233 238q-152 0 -293 -82l-57 125q158 86 360 86q377 0 377 -348v-750h-154v131q-141 -154 -335 -154q-145 0 -236 74q-109 90 -109 271zM258 332q0 -229 219 -230q192 0 309 162v217q-111 61 -276 62 q-252 0 -252 -211zM465 1219l211 327h219l-309 -327h-121z" />
<glyph unicode="&#xce;" horiz-adv-x="1103" d="M106 322q0 170 127 262q111 82 285 82q156 0 268 -62v127q0 238 -233 238q-152 0 -293 -82l-57 125q158 86 360 86q377 0 377 -348v-750h-154v131q-141 -154 -335 -154q-145 0 -236 74q-109 90 -109 271zM217 1209l252 327h172l252 -327h-133l-207 211l-207 -211h-129z M258 332q0 -229 219 -230q192 0 309 162v217q-111 61 -276 62q-252 0 -252 -211z" />
<glyph unicode="&#xcf;" horiz-adv-x="1103" d="M106 322q0 170 127 262q111 82 285 82q156 0 268 -62v127q0 238 -233 238q-152 0 -293 -82l-57 125q158 86 360 86q377 0 377 -348v-750h-154v131q-141 -154 -335 -154q-145 0 -236 74q-109 90 -109 271zM188 1231q0 129 64 201q55 66 145 65q82 0 152 -53 q117 -90 162 -90q61 0 80 137h127q0 -129 -64 -201q-55 -66 -145 -65q-82 0 -152 53q-37 29 -76 57q-49 33 -86 33q-63 0 -80 -137h-127zM258 332q0 -229 219 -230q192 0 309 162v217q-111 61 -276 62q-252 0 -252 -211z" />
<glyph unicode="&#xd0;" horiz-adv-x="1103" d="M106 322q0 170 127 262q111 82 285 82q156 0 268 -62v127q0 238 -233 238q-152 0 -293 -82l-57 125q158 86 360 86q377 0 377 -348v-750h-154v131q-141 -154 -335 -154q-145 0 -236 74q-109 90 -109 271zM242 1338q0 47 33.5 80.5t80.5 33.5q45 0 78 -33.5t33 -80.5 q0 -45 -33 -79t-78 -34q-47 0 -80.5 32.5t-33.5 80.5zM258 332q0 -229 219 -230q192 0 309 162v217q-111 61 -276 62q-252 0 -252 -211zM639 1338q0 47 34 80.5t79 33.5t78.5 -33.5t33.5 -80.5q0 -45 -32.5 -79t-79.5 -34q-45 0 -79 34t-34 79z" />
<glyph unicode="&#xd1;" horiz-adv-x="1103" d="M106 322q0 170 127 262q111 82 285 82q156 0 268 -62v127q0 238 -233 238q-152 0 -293 -82l-57 125q158 86 360 86q377 0 377 -348v-750h-154v131q-141 -154 -335 -154q-145 0 -236 74q-109 90 -109 271zM258 332q0 -229 219 -230q192 0 309 162v217q-111 61 -276 62 q-252 0 -252 -211zM315 1466q0 100 68 169t172 69t172 -69t68 -169t-69 -169.5t-171 -69.5t-171 69.5t-69 169.5zM412 1466q0 -66 38.5 -106.5t104.5 -40.5t104.5 40.5t38.5 106.5q0 63 -38.5 104.5t-104.5 41.5t-104.5 -41t-38.5 -105z" />
<glyph unicode="&#xd2;" horiz-adv-x="1013" d="M113 532q0 279 147 433q127 133 315 133q195 0 340 -127l-92 -115q-121 109 -258 109q-129 0 -211 -109q-86 -115 -86 -311q0 -201 81 -317.5t222 -116.5q129 0 248 114l92 -98q-145 -150 -344 -150l-26 -81q45 29 112 28q51 0 90 -30q47 -39 48 -111q0 -178 -244 -178 q-129 0 -242 73l39 66q86 -55 188 -55q137 0 138 88q0 68 -66 67q-57 0 -98 -37l-74 29l47 150q-160 31 -258 166q-109 147 -108 380z" />
<glyph unicode="&#xd3;" horiz-adv-x="1105" d="M113 543q0 252 124.5 403.5t319.5 151.5q205 0 322 -150q110 -141 110 -379q0 -47 -6 -84h-717q10 -174 89 -274t210 -100q143 0 297 102l72 -111q-106 -68 -180 -92q-90 -33 -205 -33q-174 0 -291 125q-145 152 -145 441zM224 1546h219l211 -327h-121zM266 610h580 q-20 354 -291 355q-262 0 -289 -355z" />
<glyph unicode="&#xd4;" horiz-adv-x="1105" d="M113 543q0 252 124.5 403.5t319.5 151.5q205 0 322 -150q110 -141 110 -379q0 -47 -6 -84h-717q10 -174 89 -274t210 -100q143 0 297 102l72 -111q-106 -68 -180 -92q-90 -33 -205 -33q-174 0 -291 125q-145 152 -145 441zM266 610h580q-20 354 -291 355 q-262 0 -289 -355zM465 1219l211 327h219l-309 -327h-121z" />
<glyph unicode="&#xd5;" horiz-adv-x="1105" d="M113 543q0 252 124.5 403.5t319.5 151.5q205 0 322 -150q110 -141 110 -379q0 -47 -6 -84h-717q10 -174 89 -274t210 -100q143 0 297 102l72 -111q-106 -68 -180 -92q-90 -33 -205 -33q-174 0 -291 125q-145 152 -145 441zM217 1199l252 327h172l252 -327h-133l-207 211 l-207 -211h-129zM266 610h580q-20 354 -291 355q-262 0 -289 -355z" />
<glyph unicode="&#xd6;" horiz-adv-x="1105" d="M113 543q0 252 124.5 403.5t319.5 151.5q205 0 322 -150q110 -141 110 -379q0 -47 -6 -84h-717q10 -174 89 -274t210 -100q143 0 297 102l72 -111q-106 -68 -180 -92q-90 -33 -205 -33q-174 0 -291 125q-145 152 -145 441zM244 1338q0 47 33.5 80.5t80.5 33.5 q45 0 78 -33.5t33 -80.5q0 -45 -33 -79t-78 -34q-47 0 -80.5 32.5t-33.5 80.5zM266 610h580q-20 354 -291 355q-262 0 -289 -355zM641 1338q0 47 34 80.5t79 33.5t78.5 -33.5t33.5 -80.5q0 -45 -32.5 -79t-79.5 -34q-45 0 -79 34t-34 79z" />
<glyph unicode="&#xd7;" horiz-adv-x="514" d="M180 0v1075h154v-1075h-154zM181 1546h219l211 -327h-121z" />
<glyph unicode="&#xd8;" horiz-adv-x="1443" d="M127 715q0 326 165 533.5t431 207.5q121 0 227 -47l58 127h141l-88 -195q256 -200 256 -622q0 -326 -166 -534t-432 -208q-141 0 -254 60l-64 -139h-141l98 213q-231 205 -231 604zM281 719q0 -291 145 -459l463 1016q-82 41 -172 41q-190 0 -313 -164t-123 -434z M526 172q90 -55 199 -55q190 0 314 165t124 433q0 311 -168 483z" />
<glyph unicode="&#xd9;" horiz-adv-x="514" d="M180 0v1075h154v-1075h-154zM190 1219l211 327h219l-309 -327h-121z" />
<glyph unicode="&#xda;" horiz-adv-x="514" d="M180 0v1075h154v-1075h-154zM180 1188l252 327h172l252 -327h-133l-207 211l-207 -211h-129z" />
<glyph unicode="&#xdb;" horiz-adv-x="514" d="M180 0v1075h154v-1075h-154zM181 1328q0 47 33.5 80.5t80.5 33.5q45 0 78 -33.5t33 -80.5q0 -45 -33 -79t-78 -34q-47 0 -80.5 32.5t-33.5 80.5zM578 1328q0 47 34 80.5t79 33.5t78.5 -33.5t33.5 -80.5q0 -45 -32.5 -79t-79.5 -34q-45 0 -79 34t-34 79z" />
<glyph unicode="&#xdc;" horiz-adv-x="1159" d="M113 481q0 236 133 377q121 129 297 129q244 0 364 -182q-61 272 -227 401l-115 -129l-104 88l98 111q-90 37 -184 45v135q150 -10 276 -76l70 76l104 -88l-59 -65q281 -230 281 -693q0 -633 -472 -633q-197 0 -323 129q-139 139 -139 375zM268 485q0 -182 90 -282 q82 -92 222 -92q139 0 223 92q90 100 90 282q0 186 -92 281q-86 88 -236 88q-139 0 -218 -96t-79 -273z" />
<glyph unicode="&#xdd;" horiz-adv-x="1161" d="M170 0v1075h154v-131q104 154 297 154q377 0 376 -443v-655h-153v629q0 336 -254 336q-119 0 -189 -80q-78 -88 -77 -256v-629h-154zM208 1231q0 129 64 201q55 66 145 65q82 0 152 -53q117 -90 162 -90q61 0 80 137h127q0 -129 -64 -201q-55 -66 -145 -65q-82 0 -152 53 q-37 29 -76 57q-49 33 -86 33q-63 0 -80 -137h-127z" />
<glyph unicode="&#xde;" horiz-adv-x="1159" d="M113 537q0 264 137 417q129 143 334 144q205 0 329 -140q134 -149 134 -413t-138 -420q-129 -147 -334 -148q-205 0 -329 144q-133 152 -133 416zM240 1546h219l211 -327h-121zM268 541q0 -207 84 -318.5t228 -111.5q143 0 228 111.5t85 318.5t-85 315.5t-228 108.5 t-227.5 -108.5t-84.5 -315.5z" />
<glyph unicode="&#xdf;" horiz-adv-x="1171" d="M170 -395v1452q0 205 105.5 317.5t285.5 112.5q174 0 280.5 -103.5t106.5 -259.5q0 -213 -186 -297q297 -71 297 -364q0 -240 -156 -359q-137 -104 -375 -104h-30v135h37q371 0 370 314q0 150 -110 229q-98 70 -256 70h-41v133h47q250 0 250 241q0 106 -64.5 169 t-173.5 63q-104 0 -168.5 -71t-64.5 -200v-1392z" />
<glyph unicode="&#xe0;" horiz-adv-x="1159" d="M113 537q0 264 137 417q129 143 334 144q205 0 329 -140q134 -149 134 -413t-138 -420q-129 -147 -334 -148q-205 0 -329 144q-133 152 -133 416zM268 541q0 -207 84 -318.5t228 -111.5q143 0 228 111.5t85 318.5t-85 315.5t-228 108.5t-227.5 -108.5t-84.5 -315.5z M481 1219l211 327h219l-309 -327h-121z" />
<glyph unicode="&#xe1;" horiz-adv-x="1159" d="M113 537q0 264 137 417q129 143 334 144q205 0 329 -140q134 -149 134 -413t-138 -420q-129 -147 -334 -148q-205 0 -329 144q-133 152 -133 416zM240 1199l252 327h172l252 -327h-133l-207 211l-207 -211h-129zM268 541q0 -207 84 -318.5t228 -111.5q143 0 228 111.5 t85 318.5t-85 315.5t-228 108.5t-227.5 -108.5t-84.5 -315.5z" />
<glyph unicode="&#xe2;" horiz-adv-x="1159" d="M113 537q0 264 137 417q129 143 334 144q205 0 329 -140q134 -149 134 -413t-138 -420q-129 -147 -334 -148q-205 0 -329 144q-133 152 -133 416zM213 1231q0 129 64 201q55 66 145 65q82 0 152 -53q117 -90 162 -90q61 0 80 137h127q0 -129 -64 -201q-55 -66 -145 -65 q-82 0 -152 53q-37 29 -76 57q-49 33 -86 33q-63 0 -80 -137h-127zM268 541q0 -207 84 -318.5t228 -111.5q143 0 228 111.5t85 318.5t-85 315.5t-228 108.5t-227.5 -108.5t-84.5 -315.5z" />
<glyph unicode="&#xe3;" horiz-adv-x="1159" d="M113 537q0 264 137 417q129 143 334 144q205 0 329 -140q134 -149 134 -413t-138 -420q-129 -147 -334 -148q-205 0 -329 144q-133 152 -133 416zM267 1328q0 47 33.5 80.5t80.5 33.5q45 0 78 -33.5t33 -80.5q0 -45 -33 -79t-78 -34q-47 0 -80.5 32.5t-33.5 80.5z M268 541q0 -207 84 -318.5t228 -111.5q143 0 228 111.5t85 318.5t-85 315.5t-228 108.5t-227.5 -108.5t-84.5 -315.5zM664 1328q0 47 34 80.5t79 33.5t78.5 -33.5t33.5 -80.5q0 -45 -32.5 -79t-79.5 -34q-45 0 -79 34t-34 79z" />
<glyph unicode="&#xe4;" horiz-adv-x="1490" d="M41 707l340 -248q12 -8 18 -6q10 4 4 20l-61 164h338v-367l-164 62q-16 6 -20 -4q-2 -6 6 -19l248 -340l247 340q8 12 7 19q-4 10 -21 4l-164 -62v367h330l-62 -164q-6 -16 5 -20q6 -2 18 6l340 248l-340 247q-12 8 -18 7q-10 -4 -5 -21l62 -164h-330v387l164 -61 q16 -6 21 4q2 6 -7 18l-247 340l-248 -340q-8 -12 -6 -18q4 -10 20 -4l164 61v-387h-338l61 164q6 16 -4 21q-6 2 -18 -7z" />
<glyph unicode="&#xe5;" horiz-adv-x="1161" d="M164 420v655h153v-629q0 -336 254 -335q119 0 189 79q78 88 78 256v629h153v-1075h-153v131q-104 -154 -297 -154q-377 0 -377 443zM222 1546h219l211 -327h-121z" />
<glyph unicode="&#xe6;" horiz-adv-x="1716" d="M106 322q0 172 119 262q106 82 279 82q141 0 254 -62v127q0 238 -219 238q-137 0 -279 -82l-57 125q158 86 346 86q274 0 313 -195q100 195 320 195q205 0 313 -150q104 -139 104 -379q0 -47 -6 -84h-688q23 -375 285 -374q86 0 151 26q45 18 132 76l71 -111 q-109 -70 -172 -92q-86 -33 -198 -33q-215 0 -332 187q-88 -100 -179.5 -143.5t-226.5 -43.5q-141 0 -227 74q-102 90 -103 271zM258 332q0 -229 205 -230q184 1 323 183q-27 82 -32 198q-109 59 -258 60q-238 0 -238 -211zM905 610h551q-20 354 -276 355q-248 0 -275 -355z " />
<glyph unicode="&#xe7;" horiz-adv-x="1161" d="M164 420v655h153v-629q0 -336 254 -335q119 0 189 79q78 88 78 256v629h153v-1075h-153v131q-104 -154 -297 -154q-377 0 -377 443zM493 1219l211 327h219l-309 -327h-121z" />
<glyph unicode="&#xe8;" horiz-adv-x="1161" d="M164 420v655h153v-629q0 -336 254 -335q119 0 189 79q78 88 78 256v629h153v-1075h-153v131q-104 -154 -297 -154q-377 0 -377 443zM242 1219l252 327h172l252 -327h-133l-207 211l-207 -211h-129z" />
<glyph unicode="&#xe9;" horiz-adv-x="1161" d="M164 420v655h153v-629q0 -336 254 -335q119 0 189 79q78 88 78 256v629h153v-1075h-153v131q-104 -154 -297 -154q-377 0 -377 443zM269 1348q0 47 33.5 80.5t80.5 33.5q45 0 78 -33.5t33 -80.5q0 -45 -33 -79t-78 -34q-47 0 -80.5 32.5t-33.5 80.5zM666 1348 q0 47 34 80.5t79 33.5t78.5 -33.5t33.5 -80.5q0 -45 -32.5 -79t-79.5 -34q-45 0 -79 34t-34 79z" />
<glyph unicode="&#xea;" horiz-adv-x="1087" d="M82 1075h162l299 -891l37 109l264 782h162l-535 -1454h-154l148 391zM460 1199l211 327h219l-309 -327h-121z" />
<glyph unicode="&#xeb;" horiz-adv-x="1144" d="M170 -395v1802l154 86v-549q141 154 323 154q172 0 273 -129q112 -144 112 -414q0 -274 -119 -432q-111 -145 -286 -146q-176 0 -303 144v-430zM324 272q106 -162 290 -161q267 0 267 442q0 201 -72 306.5t-201 105.5q-160 0 -284 -156v-537z" />
<glyph unicode="&#xec;" horiz-adv-x="1087" d="M82 1075h162l299 -891l37 109l264 782h162l-535 -1454h-154l148 391zM234 1328q0 47 33.5 80.5t80.5 33.5q45 0 78 -33.5t33 -80.5q0 -45 -33 -79t-78 -34q-47 0 -80.5 32.5t-33.5 80.5zM631 1328q0 47 34 80.5t79 33.5t78.5 -33.5t33.5 -80.5q0 -45 -32.5 -79t-79.5 -34 q-45 0 -79 34t-34 79z" />
<glyph unicode="&#xed;" horiz-adv-x="1212" d="M113 176l106 119q178 -172 381 -172q143 0 226 66.5t83 179.5q0 100 -73.5 166.5t-268.5 136.5q-233 84 -323 174t-90 244q0 170 122.5 268t325.5 98q244 0 436 -153l-102 -125q-162 133 -344 133q-139 0 -213 -64q-66 -55 -66 -147q0 -94 64 -150q70 -66 276 -139 q238 -86 327 -180t89 -254q0 -174 -125 -285q-131 -115 -350 -115q-287 0 -481 199zM260 1872h133l207 -211l207 211h129l-252 -327h-172z" />
<glyph unicode="&#xee;" horiz-adv-x="956" d="M88 115l90 112q135 -119 293 -118q217 0 217 165q0 66 -54 111t-200 109q-172 74 -233 135q-72 72 -72 194q0 123 94 199t242 76q205 0 344 -115l-86 -113q-123 96 -268 97q-84 0 -131.5 -37t-47.5 -96q0 -66 52 -107q43 -37 186 -102q178 -80 238 -136q84 -75 84 -208 q0 -150 -115 -232q-100 -72 -254 -72q-207 0 -379 138zM129 1546h133l207 -211l207 211h129l-252 -327h-172z" />
<glyph unicode="&#xef;" horiz-adv-x="1286" d="M125 0v139l678 924q70 94 174 231h-811v140h983v-140l-678 -923q-70 -94 -174 -232h852v-139h-1024zM309 1853h133l207 -211l207 211h129l-252 -327h-172z" />
<glyph unicode="&#xf0;" horiz-adv-x="1007" d="M111 0v113l587 833h-540v129h714v-112l-587 -834h587v-129h-761zM174 1546h133l207 -211l207 211h129l-252 -327h-172z" />
<glyph unicode="&#xf1;" horiz-adv-x="1560" d="M45 1348v86h573v-86h-237v-732h-98v732h-238zM762 616v818h106l193 -490q45 -115 55 -149q18 59 53 149l195 490h104v-818h-92v631q-12 -47 -49 -137l-215 -516l-209 516q-39 96 -49 137v-631h-92z" />
<glyph unicode="&#xf2;" horiz-adv-x="1335" d="M96 1434h183l229 -412q96 -172 162 -307q66 135 161 307l230 412h178l-491 -865v-569h-160v567zM355 1635q0 47 33.5 80.5t80.5 33.5q45 0 78 -33.5t33 -80.5q0 -45 -33 -79t-78 -34q-47 0 -80.5 32.5t-33.5 80.5zM752 1635q0 47 34 80.5t79 33.5t78.5 -33.5t33.5 -80.5 q0 -45 -32.5 -79t-79.5 -34q-45 0 -79 34t-34 79z" />
<glyph unicode="&#xf3;" horiz-adv-x="1490" d="M41 707l340 247q12 8 18 7q10 -4 4 -21l-61 -164h338v387l-164 -61q-16 -6 -20 4q-2 6 6 18l248 340l247 -340q8 -12 7 -18q-4 -10 -21 -4l-164 61v-387h330l-62 164q-6 16 5 21q6 2 18 -7l340 -247l-340 -248q-12 -8 -18 -6q-10 4 -5 20l62 164h-330v-367l164 62 q16 6 21 -4q2 -6 -7 -19l-247 -340l-248 340q-8 12 -6 19q4 10 20 4l164 -62v367h-338l61 -164q6 -16 -4 -20q-6 -2 -18 6z" />
<glyph unicode="&#xf4;" horiz-adv-x="1490" d="M41 707l340 -248q12 -8 18 -6q10 4 4 20l-61 164h338v-367l-164 62q-16 6 -20 -4q-2 -6 6 -19l248 -340l247 340q8 12 7 19q-4 10 -21 4l-164 -62v367h330l-62 -164q-6 -16 5 -20q6 -2 18 6l340 248l-340 247q-12 8 -18 7q-10 -4 -5 -21l62 -164h-330v387l164 -61 q16 -6 21 4q2 6 -7 18l-247 340l-248 -340q-8 -12 -6 -18q4 -10 20 -4l164 61v-387h-338l61 164q6 16 -4 21q-6 2 -18 -7z" />
<glyph unicode="&#xf5;" horiz-adv-x="1290" d="M41 707l360 239q14 10 23 4q10 -6 6 -18l-61 -154h809v-143h-809l61 -154q4 -12 -6 -18q-8 -6 -23 4z" />
<glyph unicode="&#xf6;" horiz-adv-x="749" d="M131 352q6 10 19 6l153 -61v1137h143v-1137l154 61q12 4 18 -6q6 -8 -4 -22l-239 -361l-240 361q-10 14 -4 22z" />
<glyph unicode="&#xf7;" horiz-adv-x="1187" d="M94 696h164l100 -229q78 -178 123 -309q39 123 111 319l350 957h154l-541 -1434h-143z" />
<glyph unicode="&#xf8;" horiz-adv-x="1159" d="M113 537q0 264 137 417q129 143 334 144q96 0 182 -35l55 115h135l-86 -179q177 -145 177 -454q0 -264 -138 -420q-129 -147 -334 -148q-98 0 -176 33l-53 -112h-135l84 176q-182 145 -182 463zM264 541q0 -217 94 -334l351 735q-55 27 -129 27q-145 0 -228 -107 q-88 -113 -88 -321zM457 131q55 -25 123 -25q145 0 231 113t86 322q0 211 -90 323z" />
<glyph unicode="&#xf9;" horiz-adv-x="749" d="M131 1081q-6 8 4 23l240 360l239 -360q10 -15 4 -23q-6 -10 -18 -6l-154 62v-1137h-143v1137l-153 -62q-12 -4 -19 6z" />
<glyph unicode="&#xfa;" horiz-adv-x="1144" d="M113 520q0 274 118 432q111 145 287 146q176 0 303 -144v121h154v-1075h-154v131q-141 -154 -323 -154q-172 0 -273 129q-113 143 -112 414zM264 522q0 -201 72 -306t201 -105q159 -1 284 155v537q-106 162 -291 162q-266 0 -266 -443z" />
<glyph unicode="&#xfb;" horiz-adv-x="1712" d="M117 717q0 328 213 534q207 205 526 205t529 -205.5t210 -533.5t-209.5 -534t-529.5 -206q-319 0 -526 205q-213 207 -213 535zM217 717q0 -283 182.5 -464t456.5 -181t456.5 181t182.5 464t-182.5 464t-456.5 181t-456.5 -181.5t-182.5 -463.5zM618 305v817h314 q119 0 193.5 -63.5t74.5 -186.5q0 -119 -78 -185t-207 -66h-188v-316h-109zM727 721h184q183 -1 183 153q0 152 -170 152h-197v-305z" />
<glyph unicode="&#xfc;" horiz-adv-x="1490" d="M41 707l340 -248q12 -8 18 -6q10 4 4 20l-61 164h338v-367l-164 62q-16 6 -20 -4q-2 -6 6 -19l248 -340l247 340q8 12 7 19q-4 10 -21 4l-164 -62v367h330l-62 -164q-6 -16 5 -20q6 -2 18 6l340 248l-340 247q-12 8 -18 7q-10 -4 -5 -21l62 -164h-330v387l164 -61 q16 -6 21 4q2 6 -7 18l-247 340l-248 -340q-8 -12 -6 -18q4 -10 20 -4l164 61v-387h-338l61 164q6 16 -4 21q-6 2 -18 -7z" />
<glyph unicode="&#xfd;" horiz-adv-x="1490" d="M41 707l340 -248q12 -8 18 -6q10 4 4 20l-61 164h338v-367l-164 62q-16 6 -20 -4q-2 -6 6 -19l248 -340l247 340q8 12 7 19q-4 10 -21 4l-164 -62v367h330l-62 -164q-6 -16 5 -20q6 -2 18 6l340 248l-340 247q-12 8 -18 7q-10 -4 -5 -21l62 -164h-330v387l164 -61 q16 -6 21 4q2 6 -7 18l-247 340l-248 -340q-8 -12 -6 -18q4 -10 20 -4l164 61v-387h-338l61 164q6 16 -4 21q-6 2 -18 -7z" />
<glyph unicode="&#xfe;" horiz-adv-x="749" d="M131 352q6 10 19 6l153 -61v840l-153 -62q-12 -4 -19 6q-6 8 4 23l240 360l239 -360q10 -14 4 -23q-6 -10 -18 -6l-154 62v-840l154 61q12 4 18 -6q6 -8 -4 -22l-239 -361l-240 361q-10 14 -4 22z" />
<glyph unicode="&#xff;" horiz-adv-x="1490" d="M41 707l340 -248q12 -8 18 -6q10 4 4 20l-61 164h338v-367l-164 62q-16 6 -20 -4q-2 -6 6 -19l248 -340l247 340q8 12 7 19q-4 10 -21 4l-164 -62v367h330l-62 -164q-6 -16 5 -20q6 -2 18 6l340 248l-340 247q-12 8 -18 7q-10 -4 -5 -21l62 -164h-330v387l164 -61 q16 -6 21 4q2 6 -7 18l-247 340l-248 -340q-8 -12 -6 -18q4 -10 20 -4l164 61v-387h-338l61 164q6 16 -4 21q-6 2 -18 -7z" />
<glyph unicode="&#x152;" horiz-adv-x="2136" d="M127 717q0 326 162 532.5t426 206.5q285 0 430 -254v232h844v-146h-701v-450h404v-146h-404v-547h731v-145h-874v238q-74 -127 -162 -187q-106 -74 -268 -74q-264 0 -426 207t-162 533zM287 719q0 -268 120.5 -432t311.5 -164q188 0 307 162t119 430t-122 432t-312 164 q-188 0 -306 -162t-118 -430z" />
<glyph unicode="&#x153;" horiz-adv-x="1835" d="M113 537q0 262 137 417q127 143 323 144q133 0 234 -76q92 -68 135 -178q45 113 133 180q96 74 221 74q197 0 309.5 -146.5t112.5 -382.5q0 -47 -6 -84h-696q10 -174 87 -274t202 -100q133 0 286 102l72 -111q-197 -125 -375 -125q-117 0 -213 74t-137 182 q-104 -256 -373 -256q-195 0 -319 144q-133 152 -133 416zM268 541q0 -207 83 -318.5t218 -111.5q137 0 220 111.5t83 318.5q0 205 -86 317q-80 106 -217 107q-137 0 -219 -108.5t-82 -315.5zM1016 610h559q-10 164 -78 256q-74 98 -203 99q-252 0 -278 -355z" />
<glyph unicode="&#x2c6;" horiz-adv-x="1024" d="M174 1219l252 327h172l252 -327h-133l-207 211l-207 -211h-129z" />
<glyph unicode="&#x2dc;" horiz-adv-x="1024" d="M147 1231q0 129 64 201q55 66 145 65q82 0 152 -53q117 -90 162 -90q61 0 80 137h127q0 -129 -64 -201q-55 -66 -145 -65q-82 0 -152 53q-37 29 -76 57q-49 33 -86 33q-63 0 -80 -137h-127z" />
<glyph unicode="&#x2000;" horiz-adv-x="936" />
<glyph unicode="&#x2001;" horiz-adv-x="1872" />
<glyph unicode="&#x2002;" horiz-adv-x="936" />
<glyph unicode="&#x2003;" horiz-adv-x="1872" />
<glyph unicode="&#x2004;" horiz-adv-x="624" />
<glyph unicode="&#x2005;" horiz-adv-x="468" />
<glyph unicode="&#x2006;" horiz-adv-x="312" />
<glyph unicode="&#x2007;" horiz-adv-x="312" />
<glyph unicode="&#x2008;" horiz-adv-x="234" />
<glyph unicode="&#x2009;" horiz-adv-x="374" />
<glyph unicode="&#x200a;" horiz-adv-x="104" />
<glyph unicode="&#x2010;" horiz-adv-x="659" d="M104 674v149h451v-149h-451z" />
<glyph unicode="&#x2011;" horiz-adv-x="659" d="M104 674v149h451v-149h-451z" />
<glyph unicode="&#x2012;" horiz-adv-x="659" d="M104 674v149h451v-149h-451z" />
<glyph unicode="&#x2013;" horiz-adv-x="864" d="M104 676v145h656v-145h-656z" />
<glyph unicode="&#x2014;" horiz-adv-x="1187" d="M104 676v145h979v-145h-979z" />
<glyph unicode="&#x2018;" horiz-adv-x="516" d="M123 977l133 457h106l-30 -457h-209z" />
<glyph unicode="&#x2019;" horiz-adv-x="516" d="M154 977l30 457h209l-133 -457h-106z" />
<glyph unicode="&#x201a;" horiz-adv-x="516" d="M154 -221l30 457h209l-133 -457h-106z" />
<glyph unicode="&#x201c;" horiz-adv-x="960" d="M123 977l133 457h106l-30 -457h-209zM567 977l133 457h107l-31 -457h-209z" />
<glyph unicode="&#x201d;" horiz-adv-x="960" d="M154 977l30 457h209l-133 -457h-106zM598 977l31 457h209l-133 -457h-107z" />
<glyph unicode="&#x201e;" horiz-adv-x="960" d="M154 -221l30 457h209l-133 -457h-106zM598 -221l31 457h209l-133 -457h-107z" />
<glyph unicode="&#x2022;" horiz-adv-x="765" d="M164 750q0 90 64.5 156.5t154.5 66.5t154.5 -66.5t64.5 -156.5t-64.5 -155t-154.5 -65t-154.5 64.5t-64.5 155.5z" />
<glyph unicode="&#x2026;" horiz-adv-x="1474" d="M115 109q0 53 39 94t92 41q51 0 91 -41t40 -94t-39 -92.5t-92 -39.5t-92 39t-39 93zM606 109q0 53 39 94t92 41q51 0 91 -41t40 -94t-38.5 -92.5t-92.5 -39.5q-53 0 -92 39t-39 93zM1098 109q0 53 39 94t92 41q51 0 91 -41t40 -94t-39 -92.5t-92 -39.5t-92 39t-39 93z " />
<glyph unicode="&#x202f;" horiz-adv-x="374" />
<glyph unicode="&#x2039;" horiz-adv-x="743" d="M61 537l416 538h174l-415 -536l415 -539h-174z" />
<glyph unicode="&#x203a;" horiz-adv-x="743" d="M92 0l416 537l-416 538h174l416 -536l-416 -539h-174z" />
<glyph unicode="&#x205f;" horiz-adv-x="468" />
<glyph unicode="&#xe000;" horiz-adv-x="1075" d="M0 0v1075h1075v-1075h-1075z" />
</font>
</defs>
</svg>
