<?xml version="1.0" standalone="no"?>
<!DOCTYPE svg PUBLIC "-//W3C//DTD SVG 1.1//EN" "http://www.w3.org/Graphics/SVG/1.1/DTD/svg11.dtd" >
<svg xmlns="http://www.w3.org/2000/svg">
<metadata></metadata>
<defs>
<font id="solexregular_italic" horiz-adv-x="860" >
<font-face units-per-em="2048" ascent="1638" descent="-410" />
<missing-glyph horiz-adv-x="368" />
<glyph horiz-adv-x="2048" />
<glyph horiz-adv-x="2048" />
<glyph unicode="&#xd;" horiz-adv-x="2048" />
<glyph unicode=" "  horiz-adv-x="368" />
<glyph unicode="&#x09;" horiz-adv-x="368" />
<glyph unicode="&#xa0;" horiz-adv-x="368" />
<glyph unicode="!" horiz-adv-x="634" d="M125 86q7 43 45.5 75t81.5 32t68.5 -32t17.5 -75q-7 -43 -44.5 -74.5t-80.5 -31.5t-69 31.5t-19 74.5zM231 426l175 987h122l-174 -987h-123z" />
<glyph unicode="&#x22;" horiz-adv-x="864" d="M264 909l60 504h157l-121 -504h-96zM645 909l60 504h157l-121 -504h-96z" />
<glyph unicode="#" horiz-adv-x="870" d="M100 625l19 104h160l55 322h-160l19 104h159l49 268h105l-49 -268h182l49 268h105l-50 -268h160l-18 -104h-160l-55 -322h159l-18 -104h-160l-47 -269h-104l47 269h-182l-48 -269h-104l47 269h-160zM383 729h182l56 322h-183z" />
<glyph unicode="$" d="M88 238l27 135q121 -78 262 -78q208 0 241 188q4 40 5 69.5t-10.5 50t-25.5 34t-38 21t-48.5 10t-58.5 2.5q-65 0 -114 15t-87.5 51t-49 95t1.5 146q22 124 96.5 185t197.5 75l45 258h123l-45 -260q90 -10 195 -53l-25 -133q-115 75 -248 75q-41 0 -72.5 -6t-63.5 -22 t-53 -49t-30 -82q-5 -38 -5.5 -66t10.5 -47.5t23.5 -32t34 -19.5t43 -9.5t50.5 -2.5q63 0 115.5 -16.5t95.5 -51.5t60.5 -99t2.5 -150q-45 -257 -319 -291l-47 -262h-123l45 262q-95 8 -211 58z" />
<glyph unicode="%" horiz-adv-x="1294" d="M211 1133q29 157 95.5 229t174.5 72q111 0 161.5 -73.5t23.5 -227.5q-53 -302 -273 -302q-111 0 -160.5 74t-21.5 228zM213 0l825 1413h111l-825 -1413h-111zM313 1133q-19 -115 2.5 -157t85.5 -42t102.5 42.5t59.5 156.5t-2 156t-88 42t-103 -42t-57 -156zM696 281 q52 301 273 301q111 0 160 -73.5t22 -227.5q-53 -301 -272 -301q-111 0 -160.5 73.5t-22.5 227.5zM799 281q-21 -114 2.5 -156.5t87.5 -42.5t101.5 42.5t58.5 156.5t-2.5 156t-88.5 42q-64 0 -101 -42t-58 -156z" />
<glyph unicode="&#x26;" horiz-adv-x="952" d="M99 226q-5 70 14 165q25 137 80 231.5t131 129.5q-115 64 -72 309q19 111 51.5 185t79 114.5t100.5 57t127 16.5q69 0 159 -21t140 -43l-26 -141q-137 84 -287 84q-42 0 -73.5 -10t-61.5 -36.5t-52 -77.5t-36 -128q-14 -63 -11 -108t13.5 -74t36.5 -46t58.5 -23.5 t78.5 -6.5h391l-20 -117h-113l-70 -399q-33 -187 -30 -287h-127q0 4 3 44.5t7 70.5l-62 -52q-97 -83 -192 -83q-50 0 -89.5 12t-73.5 40.5t-51.5 76t-22.5 117.5zM222.5 247q-0.5 -57 17 -90.5t42.5 -47t62 -13.5q86 0 180 80l82 70l78 440h-156q-119 0 -191 -65.5 t-101 -229.5q-13 -87 -13.5 -144z" />
<glyph unicode="'" horiz-adv-x="483" d="M262 909l60 504h161l-121 -504h-100z" />
<glyph unicode="(" horiz-adv-x="737" d="M209 655q43 246 189 502.5t331 429.5h148q-49 -45 -101.5 -102t-123 -151t-129 -193t-109.5 -228.5t-74 -257.5q-17 -93 -19 -187t8 -173t29 -156t41.5 -137.5t49.5 -116.5t49.5 -93t44.5 -68h-140q-124 173 -180.5 428t-13.5 503z" />
<glyph unicode=")" horiz-adv-x="737" d="M-90 -276q49 45 101.5 102t123 150.5t128.5 192.5t109 228.5t74 257.5q19 108 19.5 216t-16 199t-40 171.5t-55 148.5t-58 114.5t-52.5 82.5h139q124 -173 181 -429t14 -503q-43 -246 -189.5 -502t-331.5 -429h-147z" />
<glyph unicode="*" horiz-adv-x="946" d="M195 1112l51 102l280 -98l56 318h106l-55 -318l317 98l15 -102l-318 -94l141 -256l-98 -62l-139 254l-229 -254l-74 62l229 256z" />
<glyph unicode="+" d="M123 510l18 108h254l56 314h108l-55 -314h252l-19 -108h-252l-55 -315h-108l55 315h-254z" />
<glyph unicode="," horiz-adv-x="552" d="M-41 -328l154 504h159l-213 -504h-100z" />
<glyph unicode="-" d="M162 504l22 119h533l-23 -119h-532z" />
<glyph unicode="." horiz-adv-x="552" d="M63 86q7 43 45.5 75t81.5 32t68.5 -32t17.5 -75t-44.5 -74.5t-79.5 -31.5t-69.5 31.5t-19.5 74.5z" />
<glyph unicode="/" horiz-adv-x="808" d="M-31 -10l830 1433h110l-829 -1433h-111z" />
<glyph unicode="0" horiz-adv-x="897" d="M106 313.5q1 120.5 33 296.5q63 351 160.5 491t280.5 140q93 0 152 -33t90 -107.5t30 -195t-33 -295.5q-43 -238 -99 -373.5t-137.5 -196t-205.5 -60.5q-94 0 -152.5 32.5t-89 106.5t-29.5 194.5zM226.5 263.5q2.5 -62.5 21.5 -98t52.5 -52.5t86.5 -17q128 0 191.5 109.5 t117.5 404.5q27 149 34.5 243.5t-6.5 157t-51.5 88t-103.5 25.5q-128 0 -191.5 -109.5t-115.5 -404.5q-21 -120 -29.5 -202t-6 -144.5z" />
<glyph unicode="1" horiz-adv-x="737" d="M53 0l19 109h159l168 952l-172 -76l21 119l201 117h102l-197 -1112h160l-18 -109h-443z" />
<glyph unicode="2" d="M49 0l21 119q20 106 87 196.5t210 212.5q174 148 241 229.5t82 172.5q15 92 -23 140t-118 48q-145 0 -318 -94l25 154q176 63 299 63q143 0 215 -79.5t45 -231.5q-8 -48 -22.5 -88t-40.5 -80.5t-49.5 -71t-70.5 -75.5t-81 -75t-102 -89q-34 -29 -52 -45 q-104 -90 -147.5 -150.5t-56.5 -136.5h497l-20 -119h-621z" />
<glyph unicode="3" d="M-4 -141l27 147q135 -96 280 -96q105 0 166 67t88 222q29 164 -21 229.5t-169 65.5h-113l22 116h113q58 0 98.5 11t75 39t56.5 79t36 129q13 63 10 107.5t-11.5 72.5t-30 44t-45.5 22t-58 6q-144 0 -317 -94l24 154q63 23 149 42t150 19q48 0 86 -6.5t72.5 -23t55.5 -44 t35.5 -69t13 -98.5t-12.5 -132q-46 -264 -180 -325q132 -74 84 -344q-20 -119 -53.5 -199t-83 -127t-111 -66.5t-145.5 -19.5q-69 0 -157.5 24t-133.5 48z" />
<glyph unicode="4" d="M-10 209l14 86l668 946h110l-161 -917h114l-20 -115h-115l-72 -402h-118l71 402h-491zM152 324h350l92 524q6 34 22.5 91t29.5 97l13 41q-80 -147 -127 -213z" />
<glyph unicode="5" d="M41 -137l27 147q42 -32 67.5 -49t75 -35t100.5 -18q105 0 161.5 65.5t86.5 231.5q23 110 14 174t-41.5 89.5t-97.5 25.5h-270l129 727h538l-20 -123h-420l-86 -486h131q72 0 124 -19.5t89.5 -66.5t44 -125.5t-11.5 -195.5q-42 -230 -133.5 -324t-251.5 -94 q-71 0 -146.5 26t-109.5 50z" />
<glyph unicode="6" horiz-adv-x="915" d="M133.5 279.5q-0.5 151.5 40.5 382.5q18 100 32.5 172.5t34 151.5t40 133.5t47 109t58 89.5t71 63t87.5 40.5t105 12.5q59 0 129 -21t119 -49l-27 -137q-48 39 -110 62.5t-121 23.5q-120 0 -194.5 -118.5t-120.5 -377.5l24 23q44 40 98.5 67t106.5 27q162 0 218.5 -113 t12.5 -364q-46 -265 -137.5 -371t-259.5 -106q-132 0 -192.5 74t-61 225.5zM248.5 290.5q-0.5 -50.5 9.5 -81.5t26 -60.5t45 -43t68 -13.5q112 0 170.5 79t94.5 286q37 191 10.5 273.5t-135.5 82.5q-92 0 -187 -88l-49 -45q-13 -64 -20 -100.5t-17.5 -99t-12.5 -101 t-2.5 -89z" />
<glyph unicode="7" horiz-adv-x="778" d="M115 -193l22 127q18 103 44.5 191.5t52 148t63 120.5t62.5 94.5t67 84.5q97 119 149 221.5t78 254.5l9 49h-506l20 123h631l-31 -172q-23 -131 -65 -232.5t-75.5 -150.5t-112.5 -148q-11 -15 -17 -22q-109 -136 -159 -242.5t-87 -319.5l-22 -127h-123z" />
<glyph unicode="8" horiz-adv-x="921" d="M104 391q51 282 207 367q-100 80 -59 301q34 198 116.5 286.5t243.5 88.5q164 0 224 -90.5t26 -284.5q-21 -112 -64 -196t-102 -122q128 -86 80 -350q-39 -220 -129.5 -315.5t-269.5 -95.5q-182 0 -246.5 97t-26.5 314zM227 391q-29 -160 3.5 -228.5t156.5 -68.5 t180.5 68.5t85.5 228.5q29 158 -4 227.5t-157 69.5q-123 0 -179.5 -68.5t-85.5 -228.5zM373 1059q-25 -136 4 -198t135 -62q105 0 154.5 61.5t74.5 198.5q25 136 -3 198t-134 62t-156 -62t-75 -198z" />
<glyph unicode="9" horiz-adv-x="915" d="M53 -143l27 137q48 -39 110 -62.5t121 -23.5q120 0 195 118t121 377l-25 -22q-44 -40 -98.5 -67t-106.5 -27q-162 0 -218.5 113t-12.5 364q46 265 137.5 371t259.5 106q132 0 192.5 -74t61 -225.5t-40.5 -382.5q-18 -100 -32.5 -172.5t-34 -151.5t-40 -133.5t-47 -109 t-58 -89.5t-71 -63t-87.5 -40.5t-105 -12.5q-59 0 -129 21t-119 49zM278.5 491q26.5 -83 135.5 -83q91 0 186 88l49 45q13 64 20 100.5t17.5 99t12.5 100.5t2.5 89t-9.5 81.5t-26 60t-45 43t-68 13.5q-112 0 -170 -78.5t-94 -285.5q-37 -190 -10.5 -273z" />
<glyph unicode=":" horiz-adv-x="552" d="M63 86q7 43 45.5 75t81.5 32t68.5 -32t17.5 -75t-44.5 -74.5t-79.5 -31.5t-69.5 31.5t-19.5 74.5zM199 844q7 43 44.5 74.5t80.5 31.5t69 -31.5t19 -74.5t-45.5 -75t-81.5 -32t-68.5 32t-17.5 75z" />
<glyph unicode=";" horiz-adv-x="552" d="M-41 -328l154 504h159l-213 -504h-100zM199 844q7 43 44.5 74.5t80.5 31.5t69 -31.5t19 -74.5t-45.5 -75t-81.5 -32t-68.5 32t-17.5 75z" />
<glyph unicode="&#x3c;" horiz-adv-x="819" d="M127 539l10 49l654 450l-25 -145l-490 -338l369 -338l-20 -129z" />
<glyph unicode="=" d="M135 346l19 109h532l-18 -109h-533zM193 674l18 108h532l-18 -108h-532z" />
<glyph unicode="&#x3e;" horiz-adv-x="819" d="M47 88l25 145l489 338l-368 338l20 129l498 -450l-11 -49z" />
<glyph unicode="?" d="M213 86q7 43 45.5 75t81.5 32t68.5 -32t17.5 -75q-7 -43 -44.5 -74.5t-80.5 -31.5t-69 31.5t-19 74.5zM264 1221l27 153q60 22 146.5 41t150.5 19q48 0 86 -6.5t72 -23t55 -44t35.5 -69t13 -98.5t-11.5 -132q-15 -89 -43.5 -156t-61.5 -106.5t-77 -64.5t-83.5 -34 t-87.5 -12l-57 -323h-119l78 442h64q59 0 99 10t74.5 37.5t56.5 78t36 128.5q11 79 9.5 128.5t-23.5 77t-49.5 37t-69.5 9.5q-147 0 -320 -92z" />
<glyph unicode="@" horiz-adv-x="1251" d="M96 236.5q1 119.5 29 281.5q36 204 86 339.5t127 221t177.5 122t242.5 36.5q114 0 194.5 -23.5t136 -75t81 -135.5t24.5 -203.5t-29 -281.5q-35 -198 -112.5 -312t-188.5 -114q-50 0 -78.5 31.5t-31.5 81.5l-37 -35q-44 -40 -92.5 -67t-85.5 -27q-79 0 -121 38t-55.5 135 t18.5 263q29 168 69 263.5t93.5 134t134.5 38.5q40 0 86 -26t74 -68l14 -20q6 32 25 98h112q-32 -80 -59 -240l-64 -360q-12 -85 -4 -111t37 -26q45 0 91.5 78.5t76.5 244.5q26 144 31.5 243t-9 175t-56 118.5t-109 63.5t-170.5 21q-86 0 -151 -13.5t-118.5 -45t-92 -78 t-70.5 -118.5t-55 -159t-44 -207q-26 -144 -31.5 -243t8.5 -174.5t55.5 -118t109 -63.5t170.5 -21q117 0 201 23.5t161 74.5l-23 -123q-151 -74 -342 -74q-114 0 -194.5 23.5t-136 75t-81 135.5t-24.5 203.5zM470.5 367q-3.5 -61 1 -95t18 -54t28 -26t35.5 -6q50 0 147 88 l56 52l67 383l-37 51q-60 80 -116 80q-26 0 -47.5 -11t-46 -43t-47 -101t-40.5 -173q-15 -84 -18.5 -145z" />
<glyph unicode="A" horiz-adv-x="942" d="M-33 0l584 1413h160l84 -1413h-125l-13 389h-409l-156 -389h-125zM295 506h360l-22 518l-8 340q-78 -215 -127 -340z" />
<glyph unicode="B" horiz-adv-x="935" d="M86 0l250 1413h256q106 0 172 -50t87 -131q11 -44 12 -93q0 -43 -9 -90q-15 -87 -55 -163t-99 -124q81 -49 111 -144q17 -55 17 -119q0 -47 -9 -98q-15 -85 -45.5 -155.5t-77.5 -126.5t-116 -87.5t-154 -31.5h-340zM229 119h201q213 0 266 282q10 55 10 100 q0 183 -176 183h-200zM350 803h150q107 0 159 65.5t72 180.5q8 53 8 98q0 13 -1 25q-3 54 -41 88t-111 34h-150z" />
<glyph unicode="C" horiz-adv-x="851" d="M125 395q7 129 39 312q33 186 71 316t77 208t91 121t102.5 57t121.5 14q147 0 286 -77l-28 -156q-109 106 -269 106q-61 0 -102 -21.5t-81 -84.5t-72.5 -179.5t-65.5 -303.5q-25 -137 -35 -233q-9 -81 -9 -144v-23q2 -71 20.5 -111.5t51.5 -59.5t85 -19q83 0 156 27 t153 87l-29 -168q-135 -73 -291 -73q-76 0 -125 15t-88 59q-40 46 -53 124q-8 51 -8 123q0 39 2 84z" />
<glyph unicode="D" horiz-adv-x="1042" d="M86 0l250 1413h268q88 0 155 -24t110 -70t69 -107.5t33 -142.5q4 -45 4 -93q-1 -36 -3 -76q-6 -88 -24 -193q-23 -130 -51.5 -229.5t-73.5 -192.5t-103.5 -153t-143 -96t-189.5 -36h-301zM229 119h162q81 0 145.5 30.5t109.5 81t80 128.5t57 160t40 188q15 88 22 158 q7 65 7 130v9q0 70 -16 120t-44.5 90t-77.5 60t-116 20h-162z" />
<glyph unicode="E" horiz-adv-x="839" d="M86 0l250 1413h522l-22 -119h-400l-86 -491h379l-20 -119h-379l-101 -565h420l-20 -119h-543z" />
<glyph unicode="F" horiz-adv-x="782" d="M86 0l250 1413h512l-23 -119h-389l-86 -491h369l-21 -119h-368l-121 -684h-123z" />
<glyph unicode="G" horiz-adv-x="972" d="M123 354q4 142 41 353q32 181 68.5 309t77 209.5t94 127.5t109 63.5t130.5 17.5q153 0 307 -84l-28 -152q-147 111 -289 111q-48 0 -84 -12t-74 -49t-68 -102.5t-60.5 -175t-57.5 -263.5q-41 -237 -41 -374q0 -58 8 -98q24 -135 139 -135q52 0 106.5 26.5t96.5 68.5 l76 73l65 361h-204l20 119h328l-82 -461q-31 -176 -31 -271v-16h-127l4 46q4 45 8 79l-41 -39q-115 -106 -245 -106q-85 0 -138 34t-83 116q-25 71 -25 190v34z" />
<glyph unicode="H" horiz-adv-x="1046" d="M86 0l250 1413h123l-109 -610h449l108 610h123l-250 -1413h-123l121 684h-448l-121 -684h-123z" />
<glyph unicode="I" horiz-adv-x="507" d="M102 0l250 1413h123l-250 -1413h-123z" />
<glyph unicode="J" horiz-adv-x="528" d="M-113 -4l21 117q24 -9 141 -9q66 0 88.5 26.5t42.5 133.5l203 1149h123l-203 -1149q-31 -173 -76.5 -226.5t-169.5 -53.5q-27 0 -90 3.5t-80 8.5z" />
<glyph unicode="K" horiz-adv-x="925" d="M86 0l250 1413h123l-94 -532q-11 -63 -26 -131.5t-25 -105.5l-9 -38q100 172 166 258l420 549h137l-469 -604l205 -703h98l-18 -106h-178l-199 696l-174 -223l-84 -473h-123z" />
<glyph unicode="L" horiz-adv-x="749" d="M86 0l250 1413h123l-230 -1294h410l-21 -119h-532z" />
<glyph unicode="M" horiz-adv-x="1339" d="M86 0l250 1413h137l117 -979q5 -49 8.5 -117t4.5 -111l1 -44q56 161 109 272l465 979h145l-250 -1413h-115l168 952q8 45 29 134t38 155l17 66q-106 -260 -141 -334l-453 -973h-73l-109 973l-26 334q-21 -253 -39 -355l-168 -952h-115z" />
<glyph unicode="N" horiz-adv-x="1040" d="M86 0l250 1413h106l217 -952q9 -39 23.5 -119.5t24.5 -141.5l10 -61q6 249 24 353l164 921h115l-250 -1413h-106l-218 952q-6 25 -20.5 105.5t-25.5 148.5l-11 68q-12 -282 -24 -352l-164 -922h-115z" />
<glyph unicode="O" horiz-adv-x="1003" d="M125 364q3 138 39 343q48 275 112 432t154 226t225 69q102 0 165.5 -37t96.5 -123q31 -79 31 -204v-20q-2 -138 -39 -343q-48 -275 -112.5 -432t-154.5 -226t-226 -69q-102 0 -166 37t-96 123q-30 78 -29 200v24zM246 350v-13q0 -62 9 -103q10 -45 32.5 -76t57.5 -44.5 t85 -13.5q61 0 106.5 20.5t81.5 62.5t65 116.5t52.5 170.5t48.5 237q21 117 31.5 202t12.5 155v18q0 58 -9 98q-10 46 -32.5 76.5t-57.5 43.5t-86 13q-146 0 -219.5 -130t-134.5 -476q-21 -117 -31.5 -202t-11.5 -155z" />
<glyph unicode="P" horiz-adv-x="907" d="M86 0l250 1413h262q181 0 261 -121q55 -83 55 -206q0 -55 -11 -119q-37 -208 -145 -325.5t-285 -117.5h-172l-92 -524h-123zM324 645h155q128 0 199 82t100 240q12 64 12 116q0 77 -26 127q-43 84 -172 84h-156z" />
<glyph unicode="Q" horiz-adv-x="1003" d="M126 302q-1 25 -1 52q0 144 39 353q48 275 112 432t154 226t225 69q102 0 165.5 -37t96.5 -123q31 -79 31 -204v-20q-3 -138 -39 -343q-66 -374 -163 -537.5t-265 -185.5l-8 -47q-9 -50 -9 -87q0 -48 16 -74q27 -46 112 -46q46 0 104 10l-22 -121q-55 -10 -105 -10 q-136 0 -193 77q-37 50 -37 140q0 50 11 111l8 47q-112 14 -167.5 88t-64.5 230zM246 350v-13q0 -62 9 -103q10 -45 32.5 -76t57.5 -44.5t85 -13.5q61 0 106.5 20.5t81.5 62.5t65 116.5t52.5 170.5t48.5 237q21 117 31.5 202t12.5 155v18q0 58 -9 98q-10 45 -32.5 76 t-57.5 44t-86 13q-146 0 -219.5 -130t-134.5 -476q-21 -117 -31.5 -202t-11.5 -155z" />
<glyph unicode="R" horiz-adv-x="987" d="M86 0l250 1413h301q108 0 178.5 -54.5t94.5 -144.5q13 -49 12 -104q0 -47 -9 -98q-12 -69 -35 -129.5t-58.5 -114t-86 -91.5t-112.5 -54l153 -517h96l-18 -106h-176l-176 610h-183l-108 -610h-123zM338 729h194q111 0 174 77.5t85 205.5q9 54 9 97q0 185 -169 185h-195z " />
<glyph unicode="S" horiz-adv-x="849" d="M43 49l25 139q127 -88 274 -88q51 0 92 13.5t79 45t65.5 90t42.5 142.5q11 61 13 105v14q0 36 -7 62q-8 31 -22.5 51t-40.5 30.5t-55 14.5t-71 4q-46 0 -82.5 7t-70.5 24t-55 46t-36 73q-13 38 -13 90v14q2 60 14 141q35 200 131 283.5t254 83.5q61 0 144 -21t120 -41 l-25 -139q-104 80 -254 80q-50 0 -86.5 -10t-70 -36.5t-57 -77.5t-36.5 -128q-12 -65 -11 -112q0 -49 10 -81q10 -30 32.5 -46.5t50.5 -22.5t70 -6q286 0 286 -281q0 -58 -12 -127q-71 -405 -415 -405q-89 0 -167 22.5t-116 46.5z" />
<glyph unicode="T" horiz-adv-x="733" d="M154 1294l22 119h701l-23 -119h-289l-227 -1294h-123l227 1294h-288z" />
<glyph unicode="U" horiz-adv-x="983" d="M129 303l197 1110h123l-197 -1110q-5 -29 -5 -53q1 -62 31 -98q42 -52 142 -52q202 0 237 203l197 1110h123l-197 -1110q-26 -150 -124 -236.5t-246 -86.5q-151 0 -229 88q-59 66 -59 165q0 33 7 70z" />
<glyph unicode="V" horiz-adv-x="888" d="M217 1413h123l29 -985l-4 -344q79 242 118 344l377 985h131l-559 -1413h-156z" />
<glyph unicode="W" horiz-adv-x="1402" d="M221 1413h115l10 -987v-26q0 -48 -2 -116q-4 -86 -8 -146l-4 -58q69 221 114 346l361 987h104l13 -987v-34q0 -46 -2 -108q-2 -86 -4 -146l-3 -58q64 221 109 346l358 987h119l-518 -1413h-158l-8 893q0 41 3.5 128.5t7.5 154.5l3 67q-75 -258 -108 -350l-326 -893h-157z " />
<glyph unicode="X" horiz-adv-x="878" d="M-33 0l441 721l-146 586h-100l18 106h182l101 -420q7 -31 13.5 -77.5t9.5 -77.5l3 -31q48 108 93 184l254 422h137l-428 -702l149 -605h101l-19 -106h-182l-105 438q-5 24 -12 70.5t-11 81.5l-5 35q-57 -130 -92 -185l-265 -440h-137z" />
<glyph unicode="Y" horiz-adv-x="856" d="M205 1413h127l98 -561l25 -170q49 109 82 170l299 561h135l-479 -885l-93 -528h-123l93 528z" />
<glyph unicode="Z" horiz-adv-x="798" d="M0 0l16 94l662 1200h-442l22 119h586l-17 -94l-663 -1200h485l-20 -119h-629z" />
<glyph unicode="[" horiz-adv-x="839" d="M135 -205l303 1721h420l-18 -113h-297l-264 -1495h296l-20 -113h-420z" />
<glyph unicode="\" horiz-adv-x="808" d="M221 1423h105l327 -1433h-104z" />
<glyph unicode="]" horiz-adv-x="839" d="M31 -205l20 113h297l264 1495h-297l19 113h420l-303 -1721h-420z" />
<glyph unicode="^" d="M176 930l395 495h50l219 -495h-123l-144 338l-262 -338h-135z" />
<glyph unicode="_" d="M-111 -109l19 109h864l-18 -109h-865z" />
<glyph unicode="`" d="M379 1473h129l188 -306h-114z" />
<glyph unicode="a" horiz-adv-x="913" d="M92 254q2 104 29 258q37 206 84 322.5t107.5 163t150.5 46.5q54 0 112 -32.5t91 -79.5l34 -49q4 22 35 141h127q-39 -104 -71 -287l-78 -450q-17 -90 -17 -148q0 -18 2 -33h95l-19 -106h-209q1 8 1.5 56.5t2.5 82.5l-51 -47q-124 -112 -223 -112q-68 0 -111 26 q-44 24 -68 84q-23 56 -24 153v11zM217 238q3 -44 10.5 -73t23 -43t31 -19t37.5 -5q78 0 199 115l70 66l84 475l-47 65q-76 107 -158 107q-27 0 -47 -6.5t-45.5 -31.5t-46 -68t-43 -121t-41.5 -187q-16 -90 -23 -160q-5 -49 -5 -86q0 -15 1 -28z" />
<glyph unicode="b" horiz-adv-x="903" d="M41 0q38 92 72 287l198 1126h123l-92 -524l43 43q49 49 109.5 80.5t113.5 31.5q68 0 112 -26q44 -24 68 -84q23 -56 23 -153q-1 -5 -1 -11q-2 -104 -28 -258q-37 -206 -84 -322.5t-107.5 -163t-150.5 -46.5q-54 0 -111 33t-91 79l-35 47q-15 -78 -35 -139h-127zM233 270 l46 -65q74 -107 157 -107q27 0 47 6.5t45.5 31.5t46 68t43 121t41.5 187q16 90 23 160q5 49 5 86q0 16 -1 28q-3 44 -10.5 73t-23 43t-31 19t-37.5 5q-81 0 -199 -115l-68 -66z" />
<glyph unicode="c" horiz-adv-x="737" d="M94 281q3 95 27 231t53.5 230.5t60.5 151.5t74 88.5t85.5 41.5t103.5 10q57 0 122 -20.5t109 -44.5l-27 -142q-102 88 -215 88q-63 0 -103 -29t-75.5 -118.5t-64.5 -255.5q-27 -139 -27 -225v-19q4 -89 33.5 -123t95.5 -34q129 0 246 96l-25 -156q-113 -61 -233 -61 q-64 0 -105 10t-76 41t-49 88q-11 47 -11 119q0 16 1 33z" />
<glyph unicode="d" horiz-adv-x="913" d="M92 254q2 104 29 258q37 205 84 321.5t107.5 163.5t150.5 47q54 0 112 -33t91 -79l30 -43l92 524h123l-198 -1126q-17 -90 -17 -148q0 -18 2 -33h95l-19 -106h-209q1 8 1.5 56.5t2.5 82.5l-51 -47q-124 -112 -223 -112q-68 0 -111 26q-44 24 -68 84q-23 56 -24 153v11z M217 238q3 -44 10.5 -73t23 -43t31 -19t37.5 -5q78 0 199 115l70 66l84 475l-47 65q-76 107 -158 107q-27 0 -47 -6.5t-45.5 -31.5t-46 -68t-43 -121t-41.5 -187q-16 -90 -23 -160q-5 -49 -5 -86q0 -15 1 -28z" />
<glyph unicode="e" horiz-adv-x="878" d="M98 286.5q0 95.5 23 225.5q53 298 142.5 415t266.5 117q146 0 208 -78q41 -52 40 -144q0 -47 -10 -105l-37 -205h-487q-22 -126 -25 -208v-22q-1 -64 15 -102q18 -42 48 -58t80 -16q143 0 291 93l-26 -150q-4 -2 -34 -13t-41 -15t-40 -12.5t-48.5 -12t-48.5 -7t-57 -3.5 q-61 0 -105 11.5t-81.5 45.5t-55.5 91t-18 152.5zM266 625h365l16 92q9 53 9 92q0 47 -14 73q-26 48 -116 48q-108 0 -165.5 -68t-94.5 -237z" />
<glyph unicode="f" horiz-adv-x="602" d="M-143 -387l20 117q24 -9 86 -9q46 0 67.5 10t36 43t27.5 107l180 1026h-131l21 117h131l20 119q15 90 31 140.5t44.5 84t68 44.5t104.5 11q42 0 84 -3t63 -6l21 -3l-20 -117q-81 9 -142 9q-46 0 -67.5 -10t-36 -43t-27.5 -107l-20 -119h246l-21 -117h-246l-180 -1026 q-31 -173 -76.5 -226.5t-169.5 -53.5q-73 0 -114 12z" />
<glyph unicode="g" horiz-adv-x="903" d="M37 -346l26 141q107 -84 269 -84q83 0 127.5 47.5t64.5 159.5l39 217l-45 -43q-117 -112 -223 -112q-68 0 -111.5 25.5t-67.5 84.5q-24 57 -24 153v11q2 105 29 258q37 206 84 322.5t107.5 163t150.5 46.5q54 0 112 -33t91 -79l34 -47q9 38 35 139h127q-38 -101 -71 -287 l-144 -819q-31 -178 -111.5 -253t-216.5 -75q-131 0 -282 64zM217 238q3 -45 10.5 -73.5t23 -42.5t31 -19t37.5 -5q78 0 199 115l70 66l84 475l-47 65q-76 107 -158 107q-27 0 -47 -6.5t-45.5 -31.5t-46 -68t-43 -121t-41.5 -187q-16 -91 -23 -160q-5 -49 -5 -86 q0 -15 1 -28z" />
<glyph unicode="h" horiz-adv-x="901" d="M61 0l250 1413h123l-102 -579l104 98q119 112 219 112q79 0 117 -40q37 -39 37 -107.5t-16 -163.5l-111 -627h102l-18 -106h-225l139 784q5 28 5 51q0 89 -73 89q-29 0 -67 -25.5t-109 -91.5l-131 -123l-121 -684h-123z" />
<glyph unicode="i" horiz-adv-x="487" d="M92 0l162 918h-102l18 106h225l-162 -918h103l-19 -106h-225zM297 1303q6 35 36.5 60.5t65.5 25.5q35 1 55 -25q16 -20 17 -46q0 -7 -2 -15q-6 -35 -35.5 -60.5t-64.5 -25.5q-35 -1 -57 25q-17 20 -16 46q0 7 1 15z" />
<glyph unicode="j" horiz-adv-x="466" d="M-176 -387l20 117q24 -9 86 -9q46 0 67.5 10t36 43t27.5 107l201 1143h123l-201 -1143q-31 -174 -76 -227t-169 -53q-75 0 -115 12zM287 1303q6 35 36.5 60.5t65.5 25.5t55 -25q16 -20 16 -46q0 -7 -1 -15q-6 -35 -36 -60.5t-65 -25.5t-56 25q-16 20 -16 46q0 7 1 15z " />
<glyph unicode="k" horiz-adv-x="831" d="M61 0l250 1413h123l-131 -741l-39 -195q86 126 176 230l273 317h147l-385 -440l166 -467h100l-20 -117h-170l-166 483l-145 -168l-56 -315h-123z" />
<glyph unicode="l" horiz-adv-x="477" d="M82 0l231 1307h-102l18 106h226l-232 -1307h103l-19 -106h-225z" />
<glyph unicode="m" horiz-adv-x="1323" d="M61 0l129 737q32 179 32 265q0 12 -1 22h127q-8 -100 -16 -170l74 70q127 120 223 120q87 0 121 -48q28 -39 28 -110q0 -16 -2 -34l78 72q127 120 223 120q77 0 113 -40q36 -39 36 -106t-16 -165l-110 -627h102l-18 -106h-226l136 764q7 42 7 72q1 36 -9 54 q-18 34 -64 34q-31 0 -69.5 -27t-104.5 -90l-94 -90l-127 -717h-123l135 764q8 43 8 73q0 35 -10 53q-18 34 -63 34q-31 0 -69.5 -27t-104.5 -90l-95 -90l-127 -717h-123z" />
<glyph unicode="n" horiz-adv-x="915" d="M61 0l129 737q32 179 32 265q0 12 -1 22h127q-7 -94 -20 -205l118 113q119 112 220 112q78 0 116 -40q37 -39 37 -106t-16 -165l-111 -627h103l-19 -106h-225l139 784q5 28 5 51q0 89 -72 89q-29 0 -68 -25.5t-109 -91.5l-143 -135l-119 -672h-123z" />
<glyph unicode="o" horiz-adv-x="884" d="M97 261.5q0 101.5 24 250.5q52 298 140.5 415t260.5 117q88 0 144.5 -27.5t89 -90t32.5 -164t-24 -250.5q-52 -297 -141 -414.5t-261 -117.5q-88 0 -144 27.5t-88.5 90t-32.5 164zM216 266q2 -92 37.5 -132t115.5 -40q117 0 173.5 89.5t98.5 328.5q28 146 28 237 q-1 5 -1 9q-2 92 -37 132t-115 40q-117 0 -173.5 -89.5t-98.5 -328.5q-28 -146 -28 -237v-9z" />
<glyph unicode="p" horiz-adv-x="903" d="M-8 -389l198 1126q32 179 32 265q0 12 -1 22h127q0 -50 -14 -139l51 47q125 112 223 112q68 0 111.5 -25.5t68.5 -84.5q23 -57 23 -153q0 -5 -1 -11q-1 -105 -28 -258q-37 -206 -84 -322.5t-107.5 -163t-150.5 -46.5q-55 0 -112 32t-90 80l-29 43l-94 -524h-123zM233 270 l46 -65q74 -107 157 -107q27 0 47 6.5t45.5 31.5t46 68t43 121t41.5 187q16 91 23 160q5 49 5 86q0 15 -1 28q-3 45 -10.5 73.5t-23 42.5t-31 19t-37.5 5q-81 0 -199 -115l-68 -66z" />
<glyph unicode="q" horiz-adv-x="903" d="M92 254q2 105 29 258q37 206 84 322.5t107.5 163t150.5 46.5q54 0 112 -33t91 -79l34 -47q9 38 35 139h127q-38 -101 -71 -287l-199 -1126h-123l94 524l-45 -43q-117 -112 -223 -112q-68 0 -111.5 25.5t-67.5 84.5q-24 57 -24 153v11zM217 238q3 -45 10.5 -73.5t23 -42.5 t31 -19t37.5 -5q78 0 199 115l70 66l84 475l-47 65q-76 107 -158 107q-27 0 -47 -6.5t-45.5 -31.5t-46 -68t-43 -121t-41.5 -187q-16 -91 -23 -160q-5 -49 -5 -86q0 -15 1 -28z" />
<glyph unicode="r" horiz-adv-x="577" d="M61 0l129 737q32 179 32 265q0 12 -1 22h127q-6 -85 -20 -201l133 131q90 90 186 90l-29 -159q-10 1 -20 1q-75 0 -139 -61l-156 -151l-119 -674h-123z" />
<glyph unicode="s" horiz-adv-x="737" d="M16 31l27 137q112 -70 238 -70q82 0 137 41t74 148q5 40 6.5 69.5t-7 50t-19 33.5t-31.5 20.5t-42.5 10t-52.5 2.5q-39 0 -70.5 5t-62 18t-49.5 34q-20 22 -34 56q-14 32 -14 76q0 46 9 112q26 152 108.5 211t225.5 59q50 0 120 -17t107 -34l-24 -135q-106 70 -226 70 q-37 0 -64.5 -6t-54 -22.5t-44.5 -49t-27 -82.5q-5 -38 -6.5 -66t6.5 -47.5t17.5 -31.5t28 -19t37 -9.5t44.5 -2.5q38 0 70.5 -5.5t66 -19t55.5 -36t39.5 -57t19.5 -82.5q0 -7 -1 -14q0 -43 -7 -97q-29 -165 -120 -233t-236 -68q-134 0 -244 51z" />
<glyph unicode="t" horiz-adv-x="573" d="M127 907l20 117h132l40 233h123l-41 -233h191l-21 -117h-190l-113 -637q-10 -56 -12 -86.5t8 -47.5t27.5 -21t52.5 -4q50 0 90 16l-20 -117q-58 -20 -121 -20q-86 0 -122 22t-43 84q-2 14 -2 31q0 57 19 143l113 637h-131z" />
<glyph unicode="u" horiz-adv-x="894" d="M102 291l129 733h123l-137 -784q-5 -28 -5 -51q0 -89 73 -89q29 0 65.5 25t108.5 92l121 113l120 694h123l-129 -737q-16 -87 -16 -145q0 -19 2 -36h94l-18 -106h-209q0 96 10 184l-98 -92q-119 -112 -219 -112q-78 0 -116 40q-37 39 -37.5 107.5t15.5 163.5z" />
<glyph unicode="v" horiz-adv-x="778" d="M150 1024h120l33 -653q3 -56 4.5 -129.5t1.5 -119.5v-46q58 172 109 295l262 653h129l-424 -1024h-172z" />
<glyph unicode="w" horiz-adv-x="1267" d="M108 174q-2 20 -3 40q0 41 10 87l108 617h-102l18 106h226l-127 -723q-9 -48 -9 -84q0 -50 17 -77q29 -46 106 -46t122.5 46t66.5 161l127 723h123l-127 -723q-9 -48 -9 -84q0 -50 17 -77q29 -46 106 -46t122.5 46t66.5 161l127 723h123l-127 -723q-13 -73 -34.5 -127.5 t-57.5 -100.5t-92.5 -69.5t-133.5 -23.5q-74 0 -126 25.5t-71 68.5q-32 -42 -92.5 -68t-136.5 -26q-77 0 -130 24.5t-76.5 67.5t-31.5 102z" />
<glyph unicode="x" horiz-adv-x="798" d="M-29 0l361 530l-125 388h-96l18 106h170l117 -395l260 395h139l-344 -506l133 -412h96l-18 -106h-170l-125 420l-276 -420h-140z" />
<glyph unicode="y" horiz-adv-x="874" d="M8 -346l27 141q107 -84 268 -84q85 0 129 46t64 161l43 250l-80 -76q-119 -112 -219 -112q-79 0 -116 40q-38 39 -38 107.5t16 163.5l129 733h123l-137 -784q-6 -30 -6 -54q0 -86 74 -86q28 0 64.5 25.5t109.5 93.5l106 100l125 705h123l-195 -1106 q-31 -175 -111.5 -251.5t-215.5 -76.5q-143 0 -283 64z" />
<glyph unicode="z" horiz-adv-x="686" d="M-16 0l14 84l518 823h-346l20 117h496l-14 -84l-518 -823h389l-21 -117h-538z" />
<glyph unicode="{" horiz-adv-x="819" d="M139 627l11 57q39 13 62.5 21.5t53.5 23t49 30t40.5 39.5t36 54t27.5 71t23 93q49 268 185.5 410.5t335.5 142.5l-21 -119q-148 0 -243 -116t-130 -318q-51 -294 -241 -367q165 -70 112 -366q-35 -200 18.5 -317.5t200.5 -117.5l-18 -106q-199 0 -286 142.5t-40 410.5 q9 52 10.5 93t-2.5 71t-17.5 54t-26.5 39.5t-39 30t-46 23t-55 21.5z" />
<glyph unicode="|" horiz-adv-x="559" d="M94 -193l285 1606h119l-285 -1606h-119z" />
<glyph unicode="}" horiz-adv-x="819" d="M-92 -258l18 119q147 0 243.5 117.5t131.5 316.5q54 298 240 367q-162 72 -111 366q35 202 -19 318t-202 116l20 107q199 0 286 -142.5t38 -410.5q-9 -51 -10.5 -92.5t2 -71.5t17.5 -54t27.5 -39.5t40 -30t46.5 -23t55 -21.5l-10 -57q-46 -15 -72.5 -25t-61 -28 t-55.5 -40t-43.5 -55t-37 -78.5t-25.5 -105.5q-47 -268 -183 -410.5t-335 -142.5z" />
<glyph unicode="~" horiz-adv-x="870" d="M117 471q20 99 72.5 160t132.5 61q42 0 80.5 -20t62 -43.5t52 -43.5t52.5 -20q41 0 62.5 20t44.5 81h88q-21 -97 -72 -158.5t-133 -61.5q-45 0 -83.5 19.5t-60.5 43t-49.5 43t-52.5 19.5q-43 0 -65.5 -21t-42.5 -79h-88z" />
<glyph unicode="&#xa1;" horiz-adv-x="634" d="M106 -389l175 987h122l-174 -987h-123zM297 938q7 43 44.5 74.5t80.5 31.5t69 -31.5t19 -74.5q-8 -43 -45 -75t-80 -32t-69.5 32t-18.5 75z" />
<glyph unicode="&#xa2;" d="M164 504q3 87 24 203q27 151 61.5 252t81 158.5t99 81.5t123.5 28l47 268h123l-47 -274q81 -14 172 -58l-25 -141q-114 88 -237 88q-52 0 -89.5 -15.5t-73.5 -58t-63 -123.5t-49 -206q-30 -155 -21.5 -244.5t44.5 -123.5t108 -34q144 0 271 96l-27 -155 q-100 -51 -194 -60l-48 -268h-122q3 17 8 45t15 87t17 98t7 38q-53 6 -91 23.5t-66 54.5t-39.5 95t-8.5 145z" />
<glyph unicode="&#xa3;" d="M37 0l20 119h131l101 567h-131l20 117h131l53 297q31 176 107 251.5t201 75.5q119 0 258 -63l-27 -141q-93 84 -242 84q-74 0 -114 -46.5t-60 -160.5l-53 -297h324l-21 -117h-323l-101 -567h410l-21 -119h-663z" />
<glyph unicode="&#xa4;" d="M82 512l20 119h103q4 24 13 75.5t13 75.5h-102l23 119h106q31 136 67 233t72 155t81.5 90.5t88 43.5t99.5 11q68 0 141.5 -25t116.5 -53l-29 -152q-100 103 -242 103q-63 0 -105 -29.5t-83 -120t-78 -256.5h268l-22 -119h-273q-4 -24 -13 -75.5t-13 -75.5h272l-20 -119 h-269q-28 -229 -0.5 -317.5t125.5 -88.5q140 0 281 115l-29 -168q-126 -73 -264 -73q-50 0 -86.5 8t-70.5 28.5t-54.5 59t-33 96.5t-12 143t14.5 197h-106z" />
<glyph unicode="&#xa5;" d="M100 252l19 106h243l27 158h-244l21 107h209l-148 790h121l103 -561q4 -27 9 -75.5t8 -82.5l3 -35q55 132 90 193l299 561h133l-426 -790h213l-20 -107h-248l-27 -158h248l-18 -106h-248l-45 -252h-123l45 252h-244z" />
<glyph unicode="&#xa6;" horiz-adv-x="559" d="M94 -193l123 697h119l-123 -697h-119zM256 717l123 696h119l-123 -696h-119z" />
<glyph unicode="&#xa7;" d="M57 35l25 133q124 -70 266 -70q205 0 240 189q5 40 6 69.5t-11 50t-25.5 33.5t-38 20.5t-49 10t-58.5 2.5q-43 0 -78 5t-68.5 18t-55 34.5t-38 54.5t-17.5 78t7 105q20 116 88 184q-42 70 -19 213q26 151 115.5 210t247.5 59q54 0 132 -17.5t120 -34.5l-27 -135 q-114 70 -248 70q-32 0 -58 -3.5t-54 -13.5t-48 -27.5t-36 -46.5t-23 -69q-4 -38 -5 -66t10 -47.5t23.5 -31.5t34 -19t43 -9.5t50.5 -2.5q64 0 116 -14t95.5 -46.5t60 -95t0.5 -149.5q-24 -127 -84 -193q40 -74 17 -204q-29 -165 -127 -232t-258 -67q-83 0 -159 17.5 t-112 37.5zM277.5 702q-0.5 -28 10 -47.5t23 -31.5t34 -19t43 -9.5t50.5 -2.5q108 0 170 -29q35 41 47 113q5 40 6 69.5t-10.5 50t-25 33.5t-37.5 20.5t-48.5 10t-58.5 2.5q-85 0 -141 19q-43 -40 -57 -113q-5 -38 -5.5 -66z" />
<glyph unicode="&#xa8;" d="M330 1243q6 33 32 55.5t58 22.5t49.5 -23t11.5 -55t-31 -54t-57 -22t-50.5 22t-12.5 54zM647 1243q6 33 32 55.5t58 22.5t50 -23t12 -55t-31 -54t-57 -22t-51 22t-13 54z" />
<glyph unicode="&#xa9;" horiz-adv-x="1286" d="M128.5 425.5q1.5 119.5 29.5 281.5q47 270 126 426t200.5 224t310.5 68q114 0 194 -23.5t135 -74.5t80 -135.5t23.5 -203.5t-29.5 -281q-36 -203 -87 -339t-128 -221.5t-178.5 -122t-243.5 -36.5q-114 0 -194 23.5t-135 75t-80 135.5t-23.5 203.5zM225 340 q14 -138 93 -196t249 -58q86 0 151.5 13.5t119 45t92.5 78t70.5 118t55 159t44.5 207.5q45 229 30 366.5t-94.5 195.5t-249.5 58q-103 0 -177.5 -21t-131 -63.5t-97 -118t-69.5 -174.5t-55 -243q-45 -229 -31 -367zM420.5 509.5q3.5 81.5 23.5 197.5q21 118 45.5 200.5 t49.5 131.5t58.5 76t65 35.5t76.5 8.5q94 0 189 -51l-25 -141q-89 86 -174 86q-45 0 -72.5 -26t-51.5 -100t-50 -220q-12 -69 -18.5 -116t-9.5 -88.5t0.5 -66t13 -42.5t25.5 -25t40 -7q50 0 96.5 19t110.5 70l-27 -146q-100 -49 -190 -49q-47 0 -78.5 9t-57 36.5t-34.5 77 t-5.5 131z" />
<glyph unicode="&#xaa;" horiz-adv-x="655" d="M152 881q19 114 99.5 179.5t182.5 65.5h111l14 78q12 68 -7.5 96.5t-74.5 28.5q-106 0 -225 -76l22 133q127 48 215 48q107 0 152 -56.5t23 -183.5l-54 -301q-22 -138 -20 -211h-113q2 15 4 40.5t4 39.5l-24 -21q-83 -69 -164 -69t-121.5 56t-23.5 153zM256 879 q-9 -51 9.5 -78t51.5 -27q60 0 127 55l56 48l28 153h-92q-71 0 -120 -43t-60 -108z" />
<glyph unicode="&#xab;" horiz-adv-x="1044" d="M127 539l10 49l514 354l-24 -143l-351 -242l267 -242l-25 -131zM494 539l10 49l514 354l-25 -143l-350 -242l266 -242l-24 -131z" />
<glyph unicode="&#xac;" horiz-adv-x="909" d="M164 514l20 109h572l-54 -299h-108l33 190h-463z" />
<glyph unicode="&#xad;" d="M162 504l22 119h533l-23 -119h-532z" />
<glyph unicode="&#xae;" horiz-adv-x="1081" d="M149 564q-3 112 23 276q38 220 103 347t164.5 182.5t254.5 55.5q93 0 158.5 -19t111 -60.5t65.5 -110t19 -166t-24 -229.5q-39 -221 -103 -348t-163.5 -182.5t-253.5 -55.5q-116 0 -190.5 30t-118 99t-46.5 181zM244.5 552.5q10.5 -108.5 72.5 -154.5t195 -46 q194 0 280 105t134 383q34 179 24 287t-71.5 154t-194.5 46q-100 0 -166.5 -24t-114.5 -84.5t-77.5 -148.5t-55.5 -230q-36 -179 -25.5 -287.5zM389 526l113 635h155q76 0 113 -54t23 -136q-22 -124 -115 -170l80 -275h-99l-73 256h-58l-45 -256h-94zM545 874h69q37 0 58 27 t28 70q15 98 -51 98h-69z" />
<glyph unicode="&#xaf;" d="M315 1167l19 113h477l-18 -113h-478z" />
<glyph unicode="&#xb0;" d="M276 1147q20 110 108 188t196 78q110 0 179 -79t50 -187q-19 -110 -107 -188t-196 -78q-110 0 -180 79t-50 187zM383 1147q-11 -66 27 -113t104 -47t121 47t67 113t-27.5 113t-105.5 47t-121 -47t-65 -113z" />
<glyph unicode="&#xb1;" d="M33 0l18 109h615l-19 -109h-614zM123 510l18 108h254l56 314h108l-55 -314h252l-19 -108h-252l-55 -315h-108l55 315h-254z" />
<glyph unicode="&#xb2;" horiz-adv-x="552" d="M145 688l17 88q12 61 46.5 113t108.5 125q86 85 115 122.5t39 90.5q17 90 -59 90q-32 0 -65.5 -14t-100.5 -50l22 125q105 43 162 43q81 0 123.5 -48.5t26.5 -145.5q-4 -22 -11 -43.5t-12.5 -36.5t-22 -37t-23 -32t-32 -36.5t-33.5 -34.5t-43 -41.5t-45 -43.5 q-43 -42 -63 -69.5t-29 -61.5h244l-18 -103h-347z" />
<glyph unicode="&#xb3;" horiz-adv-x="552" d="M135 721l21 119q73 -56 155 -56q77 0 97 115q11 63 -12.5 91t-67.5 28h-80l16 102h80q93 0 111 101q18 98 -47 98q-87 0 -177 -51l21 116q106 39 162 39q182 0 145 -202q-14 -87 -88 -152q55 -77 39 -170q-21 -121 -73 -170t-140 -49q-33 0 -82.5 13t-79.5 28z" />
<glyph unicode="&#xb4;" d="M358 1167l295 306h142l-310 -306h-127z" />
<glyph unicode="&#xb5;" horiz-adv-x="894" d="M-18 -389l249 1413h123l-137 -784q-26 -140 68 -140q29 0 65.5 25t108.5 92l121 113l120 694h123l-129 -737q-21 -116 -14 -181h94l-18 -106h-209q0 96 10 184l-98 -92q-119 -112 -219 -112q-35 0 -68 10l-68 -379h-122z" />
<glyph unicode="&#xb6;" horiz-adv-x="1007" d="M190 1139q22 118 109 196t203 78h569l-22 -119h-138l-299 -1704h-108l299 1704h-195l-299 -1704h-108l221 1256q-116 0 -185 88.5t-47 204.5z" />
<glyph unicode="&#xb7;" horiz-adv-x="552" d="M147 563q6 42 45 74.5t82 32.5t68.5 -32t17.5 -75t-44.5 -74.5t-79.5 -31.5t-69 31.5t-20 74.5z" />
<glyph unicode="&#xb8;" horiz-adv-x="856" d="M131 -350l14 88q27 -20 76 -37.5t76 -17.5q87 0 100 71q6 36 -17.5 57t-74.5 21h-33l88 207l97 2l-64 -131q59 -17 85.5 -59.5t15.5 -98.5q-13 -69 -67 -112t-140 -43q-69 0 -156 53z" />
<glyph unicode="&#xb9;" horiz-adv-x="552" d="M158 692l16 103h76l86 485l-82 -37l18 107l115 63h78l-111 -618h76l-16 -103h-256z" />
<glyph unicode="&#xba;" horiz-adv-x="700" d="M199 1051q36 211 107.5 297t199.5 86q129 0 175 -87t9 -296q-38 -211 -109 -297t-198 -86q-129 0 -174.5 87t-9.5 296zM295 831q19 -63 100 -63q80 0 120.5 62t68.5 221q29 157 10.5 219.5t-98.5 62.5q-81 0 -122 -61.5t-69 -220.5q-29 -157 -10 -220z" />
<glyph unicode="&#xbb;" horiz-adv-x="1044" d="M45 184l25 144l348 241l-264 242l24 131l391 -354l-10 -49zM412 184l24 144l348 241l-264 242l25 131l391 -354l-10 -49z" />
<glyph unicode="&#xbc;" horiz-adv-x="1228" d="M158 692l16 103h76l86 485l-82 -37l18 107l115 63h78l-111 -618h76l-16 -103h-256zM186 0l826 1413h110l-825 -1413h-111zM625 193l12 69l350 471h90l-78 -444h54l-17 -96h-53l-35 -193h-94l35 193h-264zM754 289h151l41 225q2 13 7 32.5t9 32.5l5 13q-23 -45 -43 -72z " />
<glyph unicode="&#xbd;" horiz-adv-x="1269" d="M158 692l16 103h76l86 485l-82 -37l18 107l115 63h78l-111 -618h76l-16 -103h-256zM186 0l826 1413h110l-825 -1413h-111zM715 0l16 88q12 61 46.5 113t109.5 125q85 84 114 122t39 91q17 90 -59 90q-32 0 -65.5 -14t-100.5 -50l23 125q105 43 161 43q81 0 123.5 -48.5 t26.5 -145.5q-3 -18 -8 -35t-9.5 -30.5t-15 -30.5t-16 -27t-21 -28.5t-22.5 -26.5t-28 -29.5t-29 -29.5t-35 -33.5t-37 -35.5q-43 -42 -63 -69.5t-29 -61.5h243l-18 -102h-346z" />
<glyph unicode="&#xbe;" horiz-adv-x="1228" d="M156 721l20 119q73 -56 156 -56q76 0 96 115q11 63 -12.5 91t-67.5 28h-80l17 102h80q92 0 110 101q18 98 -47 98q-86 0 -176 -51l20 116q106 39 162 39q183 0 146 -202q-14 -87 -88 -152q54 -76 38 -170q-21 -121 -73 -170t-140 -49q-33 0 -82 13t-79 28zM207 0 l825 1413h111l-826 -1413h-110zM645 193l12 69l351 471h90l-78 -444h53l-16 -96h-53l-35 -193h-95l35 193h-264zM774 289h152l41 225q2 13 7 32.5t9 32.5l4 13q-23 -45 -43 -72z" />
<glyph unicode="&#xbf;" d="M-5.5 -169q1.5 57 11.5 132q15 89 43.5 156t61 106.5t76.5 64.5t83.5 34t87.5 12l58 323h119l-78 -442h-64q-59 0 -99 -10t-74.5 -37.5t-56.5 -78t-36 -128.5q-11 -79 -9.5 -128.5t23.5 -77t49.5 -37t69.5 -9.5q151 0 320 90l-27 -147q-64 -24 -149 -44t-148 -20 q-48 0 -86 6.5t-72 23t-55 44t-35.5 69t-13 98.5zM418 938q7 43 44.5 74.5t80.5 31.5t69 -31.5t19 -74.5t-45.5 -75t-81.5 -32t-68.5 32t-17.5 75z" />
<glyph unicode="&#xc0;" horiz-adv-x="942" d="M-33 0l584 1413h160l84 -1413h-125l-13 389h-409l-156 -389h-125zM295 506h360l-22 518l-8 340q-78 -215 -127 -340zM451 1882h129l188 -305h-115z" />
<glyph unicode="&#xc1;" horiz-adv-x="942" d="M-33 0l584 1413h160l84 -1413h-125l-13 389h-409l-156 -389h-125zM295 506h360l-22 518l-8 340q-78 -215 -127 -340zM543 1577l295 305h141l-309 -305h-127z" />
<glyph unicode="&#xc2;" horiz-adv-x="942" d="M-33 0l584 1413h160l84 -1413h-125l-13 389h-409l-156 -389h-125zM295 506h360l-22 518l-8 340q-78 -215 -127 -340zM373 1577l295 305h90l188 -305h-117l-131 197l-196 -197h-129z" />
<glyph unicode="&#xc3;" horiz-adv-x="942" d="M-33 0l584 1413h160l84 -1413h-125l-13 389h-409l-156 -389h-125zM295 506h360l-22 518l-8 340q-78 -215 -127 -340zM381 1610q20 91 68.5 146.5t121.5 55.5q39 0 74.5 -18t57.5 -40t48 -40t48 -18q38 0 57 17.5t41 74.5h82q-19 -88 -67 -144.5t-124 -56.5q-41 0 -76 18 t-55 39.5t-45.5 39.5t-48.5 18q-39 0 -59.5 -18.5t-40.5 -73.5h-82z" />
<glyph unicode="&#xc4;" horiz-adv-x="942" d="M-33 0l584 1413h160l84 -1413h-125l-13 389h-409l-156 -389h-125zM295 506h360l-22 518l-8 340q-78 -215 -127 -340zM436 1653q6 33 32 55.5t58 22.5t50 -23t12 -55t-31 -54t-57 -22t-51 22t-13 54zM754 1653q6 33 32 55.5t58 22.5t49.5 -23t11.5 -55t-31 -54t-57 -22 t-50.5 22t-12.5 54z" />
<glyph unicode="&#xc5;" horiz-adv-x="942" d="M-33 0l584 1413h160l84 -1413h-125l-13 389h-409l-156 -389h-125zM295 506h360l-22 518l-8 340q-78 -215 -127 -340zM481 1800q15 89 89.5 152t164.5 63q89 0 142 -63t38 -152t-90.5 -152t-165.5 -63q-89 0 -141 63t-37 152zM573 1800q-9 -53 21 -89t82 -36 q53 0 95.5 36.5t51.5 88.5t-21 88.5t-83 36.5q-52 0 -94.5 -36t-51.5 -89z" />
<glyph unicode="&#xc6;" horiz-adv-x="1271" d="M-33 0l584 1413h725l-23 -119h-536l28 -491h402l-21 -119h-372l32 -565h281l-20 -119h-377l-13 389h-409l-156 -389h-125zM295 506h360l-22 518l-8 340q-78 -215 -127 -340z" />
<glyph unicode="&#xc7;" horiz-adv-x="851" d="M123.5 269q-4.5 78 5.5 186.5t35 251.5q33 186 71 316t77 208t91 121t102.5 57t121.5 14q147 0 286 -77l-28 -156q-109 106 -269 106q-61 0 -102 -21.5t-81 -84.5t-72.5 -179.5t-65.5 -303.5q-25 -137 -35.5 -233t-8.5 -167t20.5 -111.5t51.5 -59.5t85 -19q83 0 156 27 t153 87l-29 -168q-112 -61 -246 -71l-39 -82q59 -17 85.5 -59.5t15.5 -98.5q-13 -69 -67 -112t-140 -43q-69 0 -156 53l15 88q27 -20 75.5 -37.5t75.5 -17.5q88 0 101 71q6 36 -18 57t-75 21h-32l67 160q-53 4 -91 18t-68.5 45.5t-46.5 83.5t-20.5 130z" />
<glyph unicode="&#xc8;" horiz-adv-x="839" d="M86 0l250 1413h522l-22 -119h-400l-86 -491h379l-20 -119h-379l-101 -565h420l-20 -119h-543zM459 1882h129l188 -305h-114z" />
<glyph unicode="&#xc9;" horiz-adv-x="839" d="M86 0l250 1413h522l-22 -119h-400l-86 -491h379l-20 -119h-379l-101 -565h420l-20 -119h-543zM496 1577l295 305h141l-309 -305h-127z" />
<glyph unicode="&#xca;" horiz-adv-x="839" d="M86 0l250 1413h522l-22 -119h-400l-86 -491h379l-20 -119h-379l-101 -565h420l-20 -119h-543zM342 1577l295 305h90l188 -305h-116l-131 197l-197 -197h-129z" />
<glyph unicode="&#xcb;" horiz-adv-x="839" d="M86 0l250 1413h522l-22 -119h-400l-86 -491h379l-20 -119h-379l-101 -565h420l-20 -119h-543zM408 1653q6 33 32 55.5t58 22.5t49.5 -23t11.5 -55t-31 -54t-57 -22t-50.5 22t-12.5 54zM725 1653q6 33 32 55.5t58 22.5t50 -23t12 -55t-31.5 -54t-57.5 -22t-50.5 22 t-12.5 54z" />
<glyph unicode="&#xcc;" horiz-adv-x="507" d="M102 0l250 1413h123l-250 -1413h-123zM213 1882h129l188 -305h-114z" />
<glyph unicode="&#xcd;" horiz-adv-x="507" d="M102 0l250 1413h123l-250 -1413h-123zM350 1577l295 305h141l-309 -305h-127z" />
<glyph unicode="&#xce;" horiz-adv-x="507" d="M102 0l250 1413h123l-250 -1413h-123zM160 1577l295 305h90l188 -305h-117l-131 197l-196 -197h-129z" />
<glyph unicode="&#xcf;" horiz-adv-x="507" d="M102 0l250 1413h123l-250 -1413h-123zM221 1653q6 33 32 55.5t58 22.5t50 -23t12 -55t-31 -54t-57 -22t-51 22t-13 54zM539 1653q6 33 32 55.5t58 22.5t49.5 -23t11.5 -55t-31 -54t-57 -22t-50.5 22t-12.5 54z" />
<glyph unicode="&#xd0;" horiz-adv-x="1042" d="M27 659l20 117h176l113 637h268q88 0 155 -24t110 -70t69 -107.5t33 -142.5t1.5 -169.5t-24.5 -192.5q-23 -130 -51.5 -229.5t-73.5 -192.5t-103.5 -153t-143 -96t-189.5 -36h-301l117 659h-176zM229 119h162q81 0 145.5 30.5t109.5 81t80 128.5t57 160t40 188 q15 88 22 158t6.5 139.5t-16 119.5t-44 90t-77.5 60t-116 20h-162l-90 -518h234l-21 -117h-233z" />
<glyph unicode="&#xd1;" horiz-adv-x="1040" d="M86 0l250 1413h106l217 -952q9 -39 23.5 -119.5t24.5 -141.5l10 -61q6 249 24 353l164 921h115l-250 -1413h-106l-218 952q-6 25 -20.5 105.5t-25.5 148.5l-11 68q-12 -282 -24 -352l-164 -922h-115zM428 1610q20 91 68.5 146.5t121.5 55.5q39 0 74.5 -18t57.5 -40 t48 -40t48 -18q38 0 57 17.5t41 74.5h82q-19 -88 -66.5 -144.5t-123.5 -56.5q-41 0 -76 18t-55.5 39.5t-46 39.5t-48.5 18q-39 0 -59.5 -18.5t-40.5 -73.5h-82z" />
<glyph unicode="&#xd2;" horiz-adv-x="1003" d="M125 363.5q3 138.5 39 343.5q48 275 112 432t154 226t225 69q102 0 165.5 -37t96.5 -122.5t30.5 -224t-38.5 -343.5q-48 -275 -112.5 -432t-154.5 -226t-226 -69q-102 0 -165.5 37t-96 122.5t-29.5 224zM246 349.5q-1 -70.5 9 -115.5t32.5 -76t57.5 -44.5t85 -13.5 q61 0 106.5 20.5t81.5 62.5t65 116.5t52.5 170.5t48.5 237q21 117 31.5 202t12 155t-8.5 115.5t-32.5 76.5t-57.5 44t-86 13q-146 0 -219.5 -130t-134.5 -476q-21 -117 -31.5 -202t-11.5 -155.5zM487 1882h129l189 -305h-115z" />
<glyph unicode="&#xd3;" horiz-adv-x="1003" d="M125 363.5q3 138.5 39 343.5q48 275 112 432t154 226t225 69q102 0 165.5 -37t96.5 -122.5t30.5 -224t-38.5 -343.5q-48 -275 -112.5 -432t-154.5 -226t-226 -69q-102 0 -165.5 37t-96 122.5t-29.5 224zM246 349.5q-1 -70.5 9 -115.5t32.5 -76t57.5 -44.5t85 -13.5 q61 0 106.5 20.5t81.5 62.5t65 116.5t52.5 170.5t48.5 237q21 117 31.5 202t12 155t-8.5 115.5t-32.5 76.5t-57.5 44t-86 13q-146 0 -219.5 -130t-134.5 -476q-21 -117 -31.5 -202t-11.5 -155.5zM557 1577l295 305h141l-309 -305h-127z" />
<glyph unicode="&#xd4;" horiz-adv-x="1003" d="M125 363.5q3 138.5 39 343.5q48 275 112 432t154 226t225 69q102 0 165.5 -37t96.5 -122.5t30.5 -224t-38.5 -343.5q-48 -275 -112.5 -432t-154.5 -226t-226 -69q-102 0 -165.5 37t-96 122.5t-29.5 224zM246 349.5q-1 -70.5 9 -115.5t32.5 -76t57.5 -44.5t85 -13.5 q61 0 106.5 20.5t81.5 62.5t65 116.5t52.5 170.5t48.5 237q21 117 31.5 202t12 155t-8.5 115.5t-32.5 76.5t-57.5 44t-86 13q-146 0 -219.5 -130t-134.5 -476q-21 -117 -31.5 -202t-11.5 -155.5zM406 1577l294 305h91l188 -305h-117l-131 197l-196 -197h-129z" />
<glyph unicode="&#xd5;" horiz-adv-x="1003" d="M125 363.5q3 138.5 39 343.5q48 275 112 432t154 226t225 69q102 0 165.5 -37t96.5 -122.5t30.5 -224t-38.5 -343.5q-48 -275 -112.5 -432t-154.5 -226t-226 -69q-102 0 -165.5 37t-96 122.5t-29.5 224zM246 349.5q-1 -70.5 9 -115.5t32.5 -76t57.5 -44.5t85 -13.5 q61 0 106.5 20.5t81.5 62.5t65 116.5t52.5 170.5t48.5 237q21 117 31.5 202t12 155t-8.5 115.5t-32.5 76.5t-57.5 44t-86 13q-146 0 -219.5 -130t-134.5 -476q-21 -117 -31.5 -202t-11.5 -155.5zM414 1610q20 91 68.5 146.5t121.5 55.5q39 0 74.5 -18t57 -40t47.5 -40 t48 -18q39 0 58 18t41 74h82q-19 -88 -67 -144.5t-124 -56.5q-41 0 -76 18t-55 39.5t-45.5 39.5t-48.5 18q-39 0 -59.5 -18.5t-40.5 -73.5h-82z" />
<glyph unicode="&#xd6;" horiz-adv-x="1003" d="M125 363.5q3 138.5 39 343.5q48 275 112 432t154 226t225 69q102 0 165.5 -37t96.5 -122.5t30.5 -224t-38.5 -343.5q-48 -275 -112.5 -432t-154.5 -226t-226 -69q-102 0 -165.5 37t-96 122.5t-29.5 224zM246 349.5q-1 -70.5 9 -115.5t32.5 -76t57.5 -44.5t85 -13.5 q61 0 106.5 20.5t81.5 62.5t65 116.5t52.5 170.5t48.5 237q21 117 31.5 202t12 155t-8.5 115.5t-32.5 76.5t-57.5 44t-86 13q-146 0 -219.5 -130t-134.5 -476q-21 -117 -31.5 -202t-11.5 -155.5zM469 1653q6 33 32 55.5t58 22.5t50 -23t12 -55t-31.5 -54t-57.5 -22t-50.5 22 t-12.5 54zM786 1653q6 32 32.5 55t58.5 23t49.5 -23t11.5 -55t-31 -54t-57 -22t-51 22t-13 54z" />
<glyph unicode="&#xd7;" d="M102 342l260 221l-182 219l92 78l181 -221l258 219l63 -78l-258 -217l182 -219l-92 -78l-180 219l-258 -221z" />
<glyph unicode="&#xd8;" horiz-adv-x="1003" d="M35 -102l125 227q-70 168 4 582q48 275 112 432t154 226t225 69q129 0 195 -58l76 140h110l-125 -226q72 -167 -2 -583q-48 -275 -112.5 -432t-154.5 -226t-226 -69q-127 0 -195 57q1 0 -18 -34.5t-39 -69.5l-19 -35h-110zM246 281l538 976q-45 56 -141 56 q-147 0 -222 -130.5t-136 -475.5q-51 -288 -39 -426zM289 156q42 -56 141 -56q148 0 222.5 130.5t135.5 476.5q51 285 39 430z" />
<glyph unicode="&#xd9;" horiz-adv-x="983" d="M129 303l197 1110h123l-197 -1110q-17 -100 25.5 -151.5t142.5 -51.5q202 0 237 203l197 1110h123l-197 -1110q-26 -150 -124 -236.5t-246 -86.5q-151 0 -229 87.5t-52 235.5zM438 1882h129l189 -305h-115z" />
<glyph unicode="&#xda;" horiz-adv-x="983" d="M129 303l197 1110h123l-197 -1110q-17 -100 25.5 -151.5t142.5 -51.5q202 0 237 203l197 1110h123l-197 -1110q-26 -150 -124 -236.5t-246 -86.5q-151 0 -229 87.5t-52 235.5zM563 1577l295 305h141l-309 -305h-127z" />
<glyph unicode="&#xdb;" horiz-adv-x="983" d="M129 303l197 1110h123l-197 -1110q-17 -100 25.5 -151.5t142.5 -51.5q202 0 237 203l197 1110h123l-197 -1110q-26 -150 -124 -236.5t-246 -86.5q-151 0 -229 87.5t-52 235.5zM395 1577l295 305h90l189 -305h-117l-131 197l-197 -197h-129z" />
<glyph unicode="&#xdc;" horiz-adv-x="983" d="M129 303l197 1110h123l-197 -1110q-17 -100 25.5 -151.5t142.5 -51.5q202 0 237 203l197 1110h123l-197 -1110q-26 -150 -124 -236.5t-246 -86.5q-151 0 -229 87.5t-52 235.5zM459 1653q6 33 32 55.5t58 22.5t49.5 -23t11.5 -55t-31 -54t-57 -22t-50.5 22t-12.5 54z M776 1653q6 33 32 55.5t58 22.5t50 -23t12 -55t-31 -54t-57 -22t-51 22t-13 54z" />
<glyph unicode="&#xdd;" horiz-adv-x="856" d="M205 1413h127l98 -561l25 -170q49 109 82 170l299 561h135l-479 -885l-93 -528h-123l93 528zM487 1577l295 305h142l-310 -305h-127z" />
<glyph unicode="&#xde;" horiz-adv-x="907" d="M86 0l250 1413h123l-47 -262h139q181 0 262 -121t45 -325q-37 -209 -144 -326t-284 -117h-174l-47 -262h-123zM276 383h156q129 0 200.5 81.5t100.5 240.5q60 327 -186 327h-156z" />
<glyph unicode="&#xdf;" horiz-adv-x="921" d="M61 0l191 1085q32 178 121 258t243 80q160 0 224 -85.5t30 -284.5q-38 -225 -151 -295q36 -13 60.5 -36t43 -66.5t18.5 -107t-14 -157.5q-39 -223 -120.5 -312t-210.5 -89q-123 0 -199 45l27 151q81 -75 188 -75q31 0 56 11.5t50.5 41t46.5 88t37 145.5q13 71 13.5 122.5 t-8.5 83.5t-29 51t-45.5 25.5t-61.5 6.5h-159l20 117h105q89 0 138 52.5t75 197.5q24 134 -11.5 192t-134.5 58q-102 0 -154.5 -49.5t-72.5 -163.5l-193 -1090h-123z" />
<glyph unicode="&#xe0;" horiz-adv-x="913" d="M92.5 254.5q1.5 104.5 28.5 257.5q37 206 84 322.5t107.5 163t150.5 46.5q54 0 112 -32.5t91 -79.5l34 -49q4 22 35 141h127q-39 -104 -71 -287l-78 -450q-22 -119 -15 -181h95l-19 -106h-209q1 8 1.5 56.5t2.5 82.5l-51 -47q-124 -112 -223 -112q-68 0 -111.5 25.5 t-68 85t-23 164zM217 237.5q3 -44.5 10.5 -73t23 -42.5t31 -19t37.5 -5q78 0 199 115l70 66l84 475l-47 65q-76 107 -158 107q-27 0 -47 -6.5t-45.5 -31.5t-46 -68t-43 -121t-41.5 -187q-16 -91 -23 -160.5t-4 -114zM354 1473h129l189 -306h-115z" />
<glyph unicode="&#xe1;" horiz-adv-x="913" d="M92.5 254.5q1.5 104.5 28.5 257.5q37 206 84 322.5t107.5 163t150.5 46.5q54 0 112 -32.5t91 -79.5l34 -49q4 22 35 141h127q-39 -104 -71 -287l-78 -450q-22 -119 -15 -181h95l-19 -106h-209q1 8 1.5 56.5t2.5 82.5l-51 -47q-124 -112 -223 -112q-68 0 -111.5 25.5 t-68 85t-23 164zM217 237.5q3 -44.5 10.5 -73t23 -42.5t31 -19t37.5 -5q78 0 199 115l70 66l84 475l-47 65q-76 107 -158 107q-27 0 -47 -6.5t-45.5 -31.5t-46 -68t-43 -121t-41.5 -187q-16 -91 -23 -160.5t-4 -114zM436 1167l295 306h141l-309 -306h-127z" />
<glyph unicode="&#xe2;" horiz-adv-x="913" d="M92.5 254.5q1.5 104.5 28.5 257.5q37 206 84 322.5t107.5 163t150.5 46.5q54 0 112 -32.5t91 -79.5l34 -49q4 22 35 141h127q-39 -104 -71 -287l-78 -450q-22 -119 -15 -181h95l-19 -106h-209q1 8 1.5 56.5t2.5 82.5l-51 -47q-124 -112 -223 -112q-68 0 -111.5 25.5 t-68 85t-23 164zM217 237.5q3 -44.5 10.5 -73t23 -42.5t31 -19t37.5 -5q78 0 199 115l70 66l84 475l-47 65q-76 107 -158 107q-27 0 -47 -6.5t-45.5 -31.5t-46 -68t-43 -121t-41.5 -187q-16 -91 -23 -160.5t-4 -114zM272 1167l295 306h90l189 -306h-117l-131 197l-197 -197 h-129z" />
<glyph unicode="&#xe3;" horiz-adv-x="913" d="M92.5 254.5q1.5 104.5 28.5 257.5q37 206 84 322.5t107.5 163t150.5 46.5q54 0 112 -32.5t91 -79.5l34 -49q4 22 35 141h127q-39 -104 -71 -287l-78 -450q-22 -119 -15 -181h95l-19 -106h-209q1 8 1.5 56.5t2.5 82.5l-51 -47q-124 -112 -223 -112q-68 0 -111.5 25.5 t-68 85t-23 164zM217 237.5q3 -44.5 10.5 -73t23 -42.5t31 -19t37.5 -5q78 0 199 115l70 66l84 475l-47 65q-76 107 -158 107q-27 0 -47 -6.5t-45.5 -31.5t-46 -68t-43 -121t-41.5 -187q-16 -91 -23 -160.5t-4 -114zM283 1200q20 91 68.5 147t121.5 56q39 0 74.5 -18.5 t57 -40t47.5 -40t48 -18.5q39 0 58 18t41 74h82q-19 -88 -66.5 -144t-124.5 -56q-41 0 -76 18t-55 39t-45.5 39t-48.5 18q-39 0 -59.5 -18.5t-40.5 -73.5h-82z" />
<glyph unicode="&#xe4;" horiz-adv-x="913" d="M92.5 254.5q1.5 104.5 28.5 257.5q37 206 84 322.5t107.5 163t150.5 46.5q54 0 112 -32.5t91 -79.5l34 -49q4 22 35 141h127q-39 -104 -71 -287l-78 -450q-22 -119 -15 -181h95l-19 -106h-209q1 8 1.5 56.5t2.5 82.5l-51 -47q-124 -112 -223 -112q-68 0 -111.5 25.5 t-68 85t-23 164zM217 237.5q3 -44.5 10.5 -73t23 -42.5t31 -19t37.5 -5q78 0 199 115l70 66l84 475l-47 65q-76 107 -158 107q-27 0 -47 -6.5t-45.5 -31.5t-46 -68t-43 -121t-41.5 -187q-16 -91 -23 -160.5t-4 -114zM360 1243q6 32 32.5 55t58.5 23t49.5 -23t11.5 -55 t-31 -54t-57 -22t-51 22t-13 54zM678 1243q6 33 32 55.5t58 22.5t49.5 -23t11.5 -55t-31 -54t-57 -22t-50.5 22t-12.5 54z" />
<glyph unicode="&#xe5;" horiz-adv-x="913" d="M92.5 254.5q1.5 104.5 28.5 257.5q37 206 84 322.5t107.5 163t150.5 46.5q54 0 112 -32.5t91 -79.5l34 -49q4 22 35 141h127q-39 -104 -71 -287l-78 -450q-22 -119 -15 -181h95l-19 -106h-209q1 8 1.5 56.5t2.5 82.5l-51 -47q-124 -112 -223 -112q-68 0 -111.5 25.5 t-68 85t-23 164zM217 237.5q3 -44.5 10.5 -73t23 -42.5t31 -19t37.5 -5q78 0 199 115l70 66l84 475l-47 65q-76 107 -158 107q-27 0 -47 -6.5t-45.5 -31.5t-46 -68t-43 -121t-41.5 -187q-16 -91 -23 -160.5t-4 -114zM383 1391q15 89 89.5 152t164.5 63q89 0 142 -63t38 -152 t-90.5 -152t-165.5 -63q-89 0 -141 63t-37 152zM475 1391q-9 -53 21 -89t82 -36q53 0 95.5 36.5t51.5 88.5t-21 88.5t-83 36.5q-52 0 -94.5 -36t-51.5 -89z" />
<glyph unicode="&#xe6;" horiz-adv-x="1308" d="M39 268q29 161 127 257t231 96h172l21 110q19 105 -11 149t-120 44q-131 0 -271 -88l25 143q6 2 34.5 13t41.5 15.5t40.5 13t47 12.5t46.5 7.5t52 3.5q90 0 144 -27t77 -87q52 61 114.5 87.5t150.5 26.5q146 0 207 -77.5t30 -249.5l-37 -205h-487q-22 -127 -25 -208.5 t16 -124t48.5 -58t79.5 -15.5q142 0 290 93l-26 -150q-4 -2 -34 -13t-41 -15t-40 -12.5t-48.5 -12t-48.5 -7t-57 -3.5q-50 0 -88.5 8t-74 27.5t-58.5 57.5t-32 93l-107 -90q-115 -98 -215 -98q-106 0 -152.5 76t-21.5 208zM158 266q-14 -84 10 -125t76 -41q37 0 77.5 22 t106.5 79l98 84q3 102 25 227h-145q-105 0 -167 -70t-81 -176zM694 621h365l18 96q22 116 -4 164.5t-117 48.5q-108 0 -165.5 -69.5t-96.5 -239.5z" />
<glyph unicode="&#xe7;" horiz-adv-x="737" d="M70 -350l14 88q27 -20 76 -37.5t76 -17.5q87 0 100 71q6 36 -17.5 57t-74.5 21h-33l68 160q-63 6 -101.5 29.5t-63 79.5t-22.5 157.5t29 253.5q24 136 53.5 230.5t60.5 151.5t74 88.5t85.5 41.5t103.5 10q57 0 122 -20.5t109 -44.5l-27 -142q-102 88 -215 88 q-63 0 -103 -29t-75.5 -118.5t-64.5 -255.5q-30 -155 -26.5 -244t33 -123t95.5 -34q129 0 246 96l-25 -156q-95 -52 -196 -59l-39 -82q59 -17 85 -59t15 -99q-13 -69 -67 -112t-140 -43q-68 0 -155 53z" />
<glyph unicode="&#xe8;" horiz-adv-x="878" d="M98 286.5q0 95.5 23 225.5q53 298 142.5 415t266.5 117q146 0 207.5 -77.5t30.5 -249.5l-37 -205h-487q-22 -127 -25 -208.5t15.5 -124t48 -58t79.5 -15.5q143 0 291 93l-26 -150q-4 -2 -34 -13t-41 -15t-40 -12.5t-48.5 -12t-48.5 -7t-57 -3.5q-61 0 -105 11.5 t-81.5 45.5t-55.5 91t-18 152.5zM266 625h365l16 92q21 118 -4.5 165.5t-116.5 47.5q-108 0 -165.5 -68t-94.5 -237zM389 1473h129l189 -306h-115z" />
<glyph unicode="&#xe9;" horiz-adv-x="878" d="M98 286.5q0 95.5 23 225.5q53 298 142.5 415t266.5 117q146 0 207.5 -77.5t30.5 -249.5l-37 -205h-487q-22 -127 -25 -208.5t15.5 -124t48 -58t79.5 -15.5q143 0 291 93l-26 -150q-4 -2 -34 -13t-41 -15t-40 -12.5t-48.5 -12t-48.5 -7t-57 -3.5q-61 0 -105 11.5 t-81.5 45.5t-55.5 91t-18 152.5zM266 625h365l16 92q21 118 -4.5 165.5t-116.5 47.5q-108 0 -165.5 -68t-94.5 -237zM436 1167l295 306h141l-309 -306h-127z" />
<glyph unicode="&#xea;" horiz-adv-x="878" d="M98 286.5q0 95.5 23 225.5q53 298 142.5 415t266.5 117q146 0 207.5 -77.5t30.5 -249.5l-37 -205h-487q-22 -127 -25 -208.5t15.5 -124t48 -58t79.5 -15.5q143 0 291 93l-26 -150q-4 -2 -34 -13t-41 -15t-40 -12.5t-48.5 -12t-48.5 -7t-57 -3.5q-61 0 -105 11.5 t-81.5 45.5t-55.5 91t-18 152.5zM266 625h365l16 92q21 118 -4.5 165.5t-116.5 47.5q-108 0 -165.5 -68t-94.5 -237zM285 1167l295 306h90l188 -306h-117l-131 197l-196 -197h-129z" />
<glyph unicode="&#xeb;" horiz-adv-x="878" d="M98 286.5q0 95.5 23 225.5q53 298 142.5 415t266.5 117q146 0 207.5 -77.5t30.5 -249.5l-37 -205h-487q-22 -127 -25 -208.5t15.5 -124t48 -58t79.5 -15.5q143 0 291 93l-26 -150q-4 -2 -34 -13t-41 -15t-40 -12.5t-48.5 -12t-48.5 -7t-57 -3.5q-61 0 -105 11.5 t-81.5 45.5t-55.5 91t-18 152.5zM266 625h365l16 92q21 118 -4.5 165.5t-116.5 47.5q-108 0 -165.5 -68t-94.5 -237zM350 1243q6 33 32 55.5t58 22.5t50 -23t12 -55t-31 -54t-57 -22t-51 22t-13 54zM668 1243q6 33 32 55.5t58 22.5t49.5 -23t11.5 -55t-31 -54t-57 -22 t-50.5 22t-12.5 54z" />
<glyph unicode="&#xec;" horiz-adv-x="487" d="M92 0l160 907h-102l20 117h225l-159 -907h102l-21 -117h-225zM104 1473h129l189 -306h-115z" />
<glyph unicode="&#xed;" horiz-adv-x="487" d="M92 0l160 907h-102l20 117h225l-159 -907h102l-21 -117h-225zM201 1167l295 306h141l-309 -306h-127z" />
<glyph unicode="&#xee;" horiz-adv-x="487" d="M76 1167l295 306h90l188 -306h-117l-131 197l-196 -197h-129zM92 0l160 907h-102l20 117h225l-159 -907h102l-21 -117h-225z" />
<glyph unicode="&#xef;" horiz-adv-x="487" d="M92 0l160 907h-102l20 117h225l-159 -907h102l-21 -117h-225zM137 1243q6 33 32 55.5t58 22.5t50 -23t12 -55t-31 -54t-57 -22t-51 22t-13 54zM455 1243q6 33 32 55.5t58 22.5t49.5 -23t11.5 -55t-31 -54t-57 -22t-50.5 22t-12.5 54z" />
<glyph unicode="&#xf0;" d="M92 457q44 253 129 365t232 112q52 0 101 -22t77 -58l26 -35q29 186 -28 328l-223 -117l22 127l156 82q-65 111 -172 184h153q29 -24 44 -36.5t39 -39t40 -53.5l211 109l-22 -127l-140 -74q73 -192 13 -540q-20 -111 -37 -192t-38.5 -156.5t-45.5 -126t-54 -92.5t-67 -66 t-83 -36.5t-103 -12.5q-165 0 -219.5 112t-10.5 365zM202.5 179q24.5 -87 131.5 -87q48 0 86 17.5t66 59.5t46.5 77t35.5 107t24 110t21 123q8 48 12 71q1 4 2 11.5t2 11.5l-43 55q-61 78 -131 78q-102 0 -153.5 -80t-86.5 -276q-37 -191 -12.5 -278z" />
<glyph unicode="&#xf1;" horiz-adv-x="915" d="M61 0l129 737q36 204 31 287h127q-7 -94 -20 -205l118 113q119 112 220 112q79 0 116.5 -40t36.5 -109.5t-16 -161.5l-111 -627h103l-19 -106h-225l139 784q23 140 -67 140q-29 0 -68 -25.5t-109 -91.5l-143 -135l-119 -672h-123zM291 1200q20 91 68.5 147t121.5 56 q39 0 74.5 -18.5t57.5 -40t48 -40t48 -18.5q38 0 57 17.5t41 74.5h82q-19 -88 -66.5 -144t-124.5 -56q-41 0 -76 18t-55 39t-45.5 39t-48.5 18q-39 0 -59.5 -18.5t-40.5 -73.5h-82z" />
<glyph unicode="&#xf2;" horiz-adv-x="884" d="M97 261.5q0 101.5 24 250.5q52 298 140.5 415t260.5 117q88 0 144.5 -27.5t89 -90t32.5 -164t-24 -250.5q-52 -297 -141 -414.5t-261 -117.5q-88 0 -144 27.5t-88.5 90t-32.5 164zM216.5 265.5q1.5 -92.5 37 -132t115.5 -39.5q117 0 173.5 89.5t98.5 328.5 q29 154 27.5 246.5t-37 132t-115.5 39.5q-117 0 -173.5 -89.5t-98.5 -328.5q-29 -154 -27.5 -246.5zM362 1473h130l188 -306h-115z" />
<glyph unicode="&#xf3;" horiz-adv-x="884" d="M97 261.5q0 101.5 24 250.5q52 298 140.5 415t260.5 117q88 0 144.5 -27.5t89 -90t32.5 -164t-24 -250.5q-52 -297 -141 -414.5t-261 -117.5q-88 0 -144 27.5t-88.5 90t-32.5 164zM216.5 265.5q1.5 -92.5 37 -132t115.5 -39.5q117 0 173.5 89.5t98.5 328.5 q29 154 27.5 246.5t-37 132t-115.5 39.5q-117 0 -173.5 -89.5t-98.5 -328.5q-29 -154 -27.5 -246.5zM430 1167l295 306h141l-309 -306h-127z" />
<glyph unicode="&#xf4;" horiz-adv-x="884" d="M97 261.5q0 101.5 24 250.5q52 298 140.5 415t260.5 117q88 0 144.5 -27.5t89 -90t32.5 -164t-24 -250.5q-52 -297 -141 -414.5t-261 -117.5q-88 0 -144 27.5t-88.5 90t-32.5 164zM216.5 265.5q1.5 -92.5 37 -132t115.5 -39.5q117 0 173.5 89.5t98.5 328.5 q29 154 27.5 246.5t-37 132t-115.5 39.5q-117 0 -173.5 -89.5t-98.5 -328.5q-29 -154 -27.5 -246.5zM274 1167l295 306h90l189 -306h-117l-131 197l-197 -197h-129z" />
<glyph unicode="&#xf5;" horiz-adv-x="884" d="M97 261.5q0 101.5 24 250.5q52 298 140.5 415t260.5 117q88 0 144.5 -27.5t89 -90t32.5 -164t-24 -250.5q-52 -297 -141 -414.5t-261 -117.5q-88 0 -144 27.5t-88.5 90t-32.5 164zM216.5 265.5q1.5 -92.5 37 -132t115.5 -39.5q117 0 173.5 89.5t98.5 328.5 q29 154 27.5 246.5t-37 132t-115.5 39.5q-117 0 -173.5 -89.5t-98.5 -328.5q-29 -154 -27.5 -246.5zM281 1200q20 91 68.5 147t121.5 56q39 0 74.5 -18.5t57 -40t47.5 -40t48 -18.5q39 0 58 18t41 74h82q-19 -88 -66.5 -144t-124.5 -56q-41 0 -76 18t-55 39t-45.5 39 t-48.5 18q-40 0 -60.5 -19t-40.5 -73h-81z" />
<glyph unicode="&#xf6;" horiz-adv-x="884" d="M97 261.5q0 101.5 24 250.5q52 298 140.5 415t260.5 117q88 0 144.5 -27.5t89 -90t32.5 -164t-24 -250.5q-52 -297 -141 -414.5t-261 -117.5q-88 0 -144 27.5t-88.5 90t-32.5 164zM216.5 265.5q1.5 -92.5 37 -132t115.5 -39.5q117 0 173.5 89.5t98.5 328.5 q29 154 27.5 246.5t-37 132t-115.5 39.5q-117 0 -173.5 -89.5t-98.5 -328.5q-29 -154 -27.5 -246.5zM336 1243q6 33 32 55.5t58 22.5t49.5 -23t11.5 -55t-31 -54t-57 -22t-50.5 22t-12.5 54zM653 1243q6 33 32 55.5t58 22.5t50 -23t12 -55t-31 -54t-57 -22t-51 22t-13 54z " />
<glyph unicode="&#xf7;" d="M123 510l18 108h615l-19 -108h-614zM293 258q6 38 38 65t70 27t60.5 -27t15.5 -65q-8 -38 -39 -65t-69 -27t-60 27t-16 65zM401 870q6 38 38.5 65.5t70.5 27.5t60 -27.5t16 -65.5t-38.5 -65t-70.5 -27t-60 27t-16 65z" />
<glyph unicode="&#xf8;" horiz-adv-x="884" d="M35 -102l104 178q-72 123 -18 436q52 298 140.5 415t260.5 117q105 0 166 -38l72 120h110l-116 -196q61 -126 10 -418q-52 -297 -141 -414.5t-261 -117.5q-90 0 -149 30l-68 -112h-110zM217 207l408 690q-36 33 -109 33q-118 0 -176 -90.5t-100 -327.5q-38 -206 -23 -305 zM274 115q34 -21 95 -21q118 0 176 90.5t100 327.5q31 181 25 274z" />
<glyph unicode="&#xf9;" horiz-adv-x="894" d="M86.5 129.5q0.5 69.5 15.5 161.5l129 733h123l-137 -784q-23 -140 68 -140q29 0 65.5 25t108.5 92l121 113l120 694h123l-129 -737q-21 -116 -14 -181h94l-18 -106h-209q0 96 10 184l-98 -92q-119 -112 -219 -112q-79 0 -116.5 40t-37 109.5zM362 1473h130l188 -306h-115 z" />
<glyph unicode="&#xfa;" horiz-adv-x="894" d="M86.5 129.5q0.5 69.5 15.5 161.5l129 733h123l-137 -784q-23 -140 68 -140q29 0 65.5 25t108.5 92l121 113l120 694h123l-129 -737q-21 -116 -14 -181h94l-18 -106h-209q0 96 10 184l-98 -92q-119 -112 -219 -112q-79 0 -116.5 40t-37 109.5zM416 1167l295 306h141 l-309 -306h-127z" />
<glyph unicode="&#xfb;" horiz-adv-x="894" d="M86.5 129.5q0.5 69.5 15.5 161.5l129 733h123l-137 -784q-23 -140 68 -140q29 0 65.5 25t108.5 92l121 113l120 694h123l-129 -737q-21 -116 -14 -181h94l-18 -106h-209q0 96 10 184l-98 -92q-119 -112 -219 -112q-79 0 -116.5 40t-37 109.5zM266 1167l295 306h90 l189 -306h-117l-131 197l-197 -197h-129z" />
<glyph unicode="&#xfc;" horiz-adv-x="894" d="M86.5 129.5q0.5 69.5 15.5 161.5l129 733h123l-137 -784q-23 -140 68 -140q29 0 65.5 25t108.5 92l121 113l120 694h123l-129 -737q-21 -116 -14 -181h94l-18 -106h-209q0 96 10 184l-98 -92q-119 -112 -219 -112q-79 0 -116.5 40t-37 109.5zM330 1243q6 33 32 55.5 t58 22.5t49.5 -23t11.5 -55t-31 -54t-57 -22t-50.5 22t-12.5 54zM647 1243q6 33 32 55.5t58 22.5t50 -23t12 -55t-31 -54t-57 -22t-51 22t-13 54z" />
<glyph unicode="&#xfd;" horiz-adv-x="874" d="M8 -346l27 141q107 -84 268 -84q85 0 129 46t64 161l43 250l-80 -76q-119 -112 -219 -112q-79 0 -116.5 40t-37 109.5t15.5 161.5l129 733h123l-137 -784q-26 -140 68 -140q28 0 64.5 25.5t109.5 93.5l106 100l125 705h123l-195 -1106q-31 -175 -111.5 -251.5 t-215.5 -76.5q-143 0 -283 64zM426 1167l295 306h141l-309 -306h-127z" />
<glyph unicode="&#xfe;" horiz-adv-x="903" d="M-8 -389l319 1802h123l-92 -522l43 41q121 112 223 112q68 0 111.5 -25.5t68 -85t23 -164t-28.5 -257.5q-37 -206 -84 -322.5t-107.5 -163t-150.5 -46.5q-55 0 -112 32t-90 80l-29 43l-94 -524h-123zM233 270l46 -65q74 -107 157 -107q27 0 47 6.5t45.5 31.5t46 68 t43 121t41.5 187q16 91 23 160.5t4 114t-10.5 73t-23 42.5t-31 19t-37.5 5q-81 0 -199 -115l-68 -66z" />
<glyph unicode="&#xff;" horiz-adv-x="874" d="M8 -346l27 141q107 -84 268 -84q85 0 129 46t64 161l43 250l-80 -76q-119 -112 -219 -112q-79 0 -116.5 40t-37 109.5t15.5 161.5l129 733h123l-137 -784q-26 -140 68 -140q28 0 64.5 25.5t109.5 93.5l106 100l125 705h123l-195 -1106q-31 -175 -111.5 -251.5 t-215.5 -76.5q-143 0 -283 64zM328 1243q6 33 32 55.5t58 22.5t49.5 -23t11.5 -55t-31 -54t-57 -22t-50.5 22t-12.5 54zM645 1243q6 33 32 55.5t58 22.5t50 -23t12 -55t-31 -54t-57 -22t-51 22t-13 54z" />
<glyph unicode="&#x152;" horiz-adv-x="1406" d="M136.5 478.5q4.5 102.5 27.5 228.5q23 129 52 229t75 192.5t105.5 153t144.5 96t190 35.5h694l-22 -119h-399l-86 -491h378l-20 -119h-379l-100 -565h420l-21 -119h-694q-105 0 -179.5 35.5t-116 97t-58 152.5t-12 193.5zM260.5 409.5q0.5 -69.5 15.5 -120t43 -90.5 t77 -60t116 -20h162l207 1175h-162q-81 0 -145.5 -30.5t-109 -81t-79 -128.5t-56.5 -159.5t-40 -187.5q-15 -88 -22 -158t-6.5 -139.5z" />
<glyph unicode="&#x153;" horiz-adv-x="1398" d="M100 197.5q-17 118.5 21 314.5q52 296 143 414t264 118q97 0 154.5 -34t81.5 -109q52 76 119.5 109.5t165.5 33.5q147 0 208.5 -77t30.5 -250l-37 -205h-487q-22 -127 -25 -208.5t16 -124t48.5 -58t79.5 -15.5q143 0 291 93l-27 -150q-8 -3 -34.5 -13t-39.5 -14.5 t-40 -13t-47 -12t-48.5 -7t-56.5 -3.5q-92 0 -153 29.5t-87 105.5q-96 -141 -285 -141q-117 0 -178 49.5t-78 168zM216.5 265.5q1.5 -92.5 37 -132t115.5 -39.5q117 0 173.5 89.5t98.5 328.5q29 154 27.5 246.5t-37 132t-115.5 39.5q-117 0 -173.5 -89.5t-98.5 -328.5 q-29 -154 -27.5 -246.5zM786 625h365l16 92q21 118 -4.5 165.5t-115.5 47.5q-108 0 -166 -68t-95 -237z" />
<glyph unicode="&#x178;" horiz-adv-x="856" d="M205 1413h127l98 -561l25 -170q49 109 82 170l299 561h135l-479 -885l-93 -528h-123l93 528zM393 1653q6 33 32 55.5t58 22.5t50 -23t12 -55t-31 -54t-57 -22t-51 22t-13 54zM711 1653q6 33 32 55.5t58 22.5t49.5 -23t11.5 -55t-31 -54t-57 -22t-50.5 22t-12.5 54z" />
<glyph unicode="&#x2c6;" d="M264 1167l295 306h90l189 -306h-117l-131 197l-197 -197h-129z" />
<glyph unicode="&#x2dc;" d="M268 1200q20 91 69 147t122 56q39 0 74.5 -18.5t57 -40t47.5 -40t48 -18.5q38 0 57 17.5t41 74.5h82q-19 -88 -66.5 -144t-123.5 -56q-41 0 -76 18t-55 39t-45.5 39t-48.5 18q-40 0 -60.5 -19t-40.5 -73h-82z" />
<glyph unicode="&#x2000;" horiz-adv-x="1007" />
<glyph unicode="&#x2001;" horiz-adv-x="2015" />
<glyph unicode="&#x2002;" horiz-adv-x="1007" />
<glyph unicode="&#x2003;" horiz-adv-x="2015" />
<glyph unicode="&#x2004;" horiz-adv-x="671" />
<glyph unicode="&#x2005;" horiz-adv-x="503" />
<glyph unicode="&#x2006;" horiz-adv-x="335" />
<glyph unicode="&#x2007;" horiz-adv-x="335" />
<glyph unicode="&#x2008;" horiz-adv-x="251" />
<glyph unicode="&#x2009;" horiz-adv-x="403" />
<glyph unicode="&#x200a;" horiz-adv-x="111" />
<glyph unicode="&#x2010;" d="M162 504l22 119h533l-23 -119h-532z" />
<glyph unicode="&#x2011;" d="M162 504l22 119h533l-23 -119h-532z" />
<glyph unicode="&#x2012;" d="M162 504l22 119h533l-23 -119h-532z" />
<glyph unicode="&#x2013;" horiz-adv-x="921" d="M92 510l19 108h739l-19 -108h-739z" />
<glyph unicode="&#x2014;" horiz-adv-x="987" d="M-2 510l18 108h992l-19 -108h-991z" />
<glyph unicode="&#x2018;" horiz-adv-x="401" d="M160 909l194 504h101l-136 -504h-159z" />
<glyph unicode="&#x2019;" horiz-adv-x="401" d="M176 909l135 504h160l-195 -504h-100z" />
<glyph unicode="&#x201a;" horiz-adv-x="401" d="M-41 -328l133 504h160l-193 -504h-100z" />
<glyph unicode="&#x201c;" horiz-adv-x="782" d="M160 909l194 504h101l-136 -504h-159zM541 909l194 504h101l-136 -504h-159z" />
<glyph unicode="&#x201d;" horiz-adv-x="782" d="M176 909l135 504h160l-195 -504h-100zM557 909l135 504h160l-195 -504h-100z" />
<glyph unicode="&#x201e;" horiz-adv-x="782" d="M-41 -328l133 504h160l-193 -504h-100zM340 -328l133 504h160l-193 -504h-100z" />
<glyph unicode="&#x2022;" horiz-adv-x="704" d="M172 563q14 79 76 134t139 55q79 0 127 -56t35 -133q-14 -79 -75 -133.5t-138 -54.5q-79 0 -128 55.5t-36 132.5z" />
<glyph unicode="&#x2026;" horiz-adv-x="1658" d="M63 86q7 43 45.5 75t81.5 32t68.5 -32t17.5 -75t-44.5 -74.5t-79.5 -31.5t-69.5 31.5t-19.5 74.5zM616 86q7 43 45.5 75t81.5 32t68.5 -32t17.5 -75t-44.5 -74.5t-79.5 -31.5t-69.5 31.5t-19.5 74.5zM1169 86q7 43 45.5 75t81.5 32t68.5 -32t17.5 -75q-7 -43 -44.5 -74.5 t-80.5 -31.5t-69 31.5t-19 74.5z" />
<glyph unicode="&#x202f;" horiz-adv-x="403" />
<glyph unicode="&#x2039;" horiz-adv-x="677" d="M127 539l10 49l514 354l-24 -143l-351 -242l267 -242l-25 -131z" />
<glyph unicode="&#x203a;" horiz-adv-x="677" d="M45 184l25 144l348 241l-264 242l24 131l391 -354l-10 -49z" />
<glyph unicode="&#x205f;" horiz-adv-x="503" />
<glyph unicode="&#x2122;" horiz-adv-x="1435" d="M225 1307l21 106h471l-21 -106h-180l-131 -746h-111l132 746h-181zM672 561l151 852h131l41 -498q4 -30 6.5 -72t3.5 -69l1 -26q34 99 67 167l217 498h148l-152 -852h-106l102 574l29 131q-29 -86 -43 -119l-256 -586h-78l-47 586l-2 119q-9 -86 -17 -131l-102 -574h-94z " />
<glyph unicode="&#xe000;" horiz-adv-x="1024" d="M0 0v1024h1024v-1024h-1024z" />
<glyph unicode="&#xfb01;" horiz-adv-x="1032" d="M-143 -387l20 117q24 -9 86 -9q46 0 67.5 10t36 43t27.5 107l180 1026h-131l21 117h131l12 72q31 177 111.5 252t236.5 75q128 0 349 -45l-25 -131q-205 56 -346 56q-99 0 -140.5 -44.5t-62.5 -162.5l-12 -72h522l-162 -918h103l-19 -106h-225l160 907h-400l-180 -1026 q-31 -173 -76.5 -226.5t-169.5 -53.5q-73 0 -114 12z" />
<glyph unicode="&#xfb02;" horiz-adv-x="1079" d="M-143 -387l20 117q24 -9 86 -9q46 0 67.5 10t36 43t27.5 107l180 1026h-131l21 117h131l12 72q30 177 118 252t251 75q61 0 199 -5t182 -5l-232 -1307h103l-19 -106h-225l227 1284q-136 19 -258 19q-108 0 -155.5 -45t-67.5 -162l-12 -72h246l-21 -117h-246l-180 -1026 q-31 -173 -76.5 -226.5t-169.5 -53.5q-73 0 -114 12z" />
</font>
</defs>
</svg>
