<?xml version="1.0" standalone="no"?>
<!DOCTYPE svg PUBLIC "-//W3C//DTD SVG 1.1//EN" "http://www.w3.org/Graphics/SVG/1.1/DTD/svg11.dtd" >
<svg xmlns="http://www.w3.org/2000/svg">
<metadata></metadata>
<defs>
<font id="solexregular" horiz-adv-x="860" >
<font-face units-per-em="2048" ascent="1638" descent="-410" />
<missing-glyph horiz-adv-x="368" />
<glyph horiz-adv-x="2048" />
<glyph horiz-adv-x="2048" />
<glyph unicode="&#xd;" horiz-adv-x="2048" />
<glyph unicode=" "  horiz-adv-x="368" />
<glyph unicode="&#x09;" horiz-adv-x="368" />
<glyph unicode="&#xa0;" horiz-adv-x="368" />
<glyph unicode="!" horiz-adv-x="634" d="M201 86q0 43 31.5 75t74.5 32t75 -32t32 -75t-32 -74.5t-75 -31.5t-74.5 31.5t-31.5 74.5zM246 426v987h123v-987h-123z" />
<glyph unicode="&#x22;" horiz-adv-x="864" d="M164 1413h158l-31 -504h-96zM545 1413h157l-30 -504h-97z" />
<glyph unicode="#" horiz-adv-x="870" d="M80 625v104h160v322h-160v104h160v268h104v-268h182v268h105v-268h160v-104h-160v-322h160v-104h-160v-269h-105v269h-182v-269h-104v269h-160zM344 729h182v322h-182v-322z" />
<glyph unicode="$" d="M113 965q0 243 245 272v258h123v-258q96 -10 205 -53v-142q-138 82 -262 82q-41 0 -72 -6t-59.5 -22t-44 -49t-15.5 -82q0 -105 48 -141t139 -36q51 0 95 -7.5t88 -28.5t75 -54t50.5 -88t19.5 -127q0 -137 -71.5 -212t-195.5 -91v-262h-123v260q-99 8 -221 58v143 q138 -84 279 -84q207 0 207 188q0 111 -51.5 149t-157.5 38q-53 0 -95 7.5t-81.5 27t-66 52t-42.5 85t-16 123.5z" />
<glyph unicode="%" horiz-adv-x="1294" d="M100 1133q0 301 228 301q227 0 227 -301q0 -302 -227 -302q-228 0 -228 302zM203 1133q0 -114 30.5 -156.5t94.5 -42.5t94.5 42.5t30.5 156.5t-30.5 156t-94.5 42t-94.5 -42t-30.5 -156zM303 0l576 1413h110l-575 -1413h-111zM737 281q0 301 228 301q227 0 227 -301 t-227 -301q-228 0 -228 301zM840 281q0 -114 30.5 -156.5t94.5 -42.5t94.5 42.5t30.5 156.5t-30.5 156t-94.5 42t-94.5 -42t-30.5 -156z" />
<glyph unicode="&#x26;" horiz-adv-x="952" d="M133 391q0 136 38 226t108 126q-123 61 -123 318q0 110 21 185t63 115t95 56.5t126 16.5q64 0 153.5 -21t143.5 -43v-151q-163 94 -303 94q-42 0 -72 -10t-55.5 -36.5t-38.5 -77.5t-13 -128q0 -151 52 -204.5t170 -53.5h391v-117h-113v-399q0 -188 21 -287h-127 q-7 61 -11 115l-51 -52q-37 -37 -89 -60t-101 -23q-285 0 -285 411zM256 391q0 -164 42 -229.5t120 -65.5q86 0 166 80l69 70v440h-155q-119 0 -180.5 -65.5t-61.5 -229.5z" />
<glyph unicode="'" horiz-adv-x="483" d="M162 1413h162l-31 -504h-100z" />
<glyph unicode="(" horiz-adv-x="737" d="M184 655q0 246 101 502.5t254 429.5h143q-40 -45 -82.5 -102.5t-95.5 -150.5t-93.5 -192.5t-68 -229t-27.5 -257.5t27.5 -257.5t68 -228.5t93.5 -192t95.5 -150.5t82.5 -102.5h-143q-154 173 -254.5 428t-100.5 503z" />
<glyph unicode=")" horiz-adv-x="737" d="M55 -276q40 45 82.5 102.5t95.5 150.5t93.5 192t68 228.5t27.5 257.5t-27.5 257.5t-68 229t-93.5 192.5t-95.5 150.5t-82.5 102.5h144q153 -173 253.5 -429.5t100.5 -502.5q0 -248 -100 -503t-254 -428h-144z" />
<glyph unicode="*" horiz-adv-x="946" d="M88 1112l33 102l299 -98v318h106v-318l299 98l33 -102l-301 -94l186 -256l-86 -62l-184 254l-184 -254l-86 62l184 256z" />
<glyph unicode="+" d="M123 510v108h254v314h108v-314h252v-108h-252v-315h-108v315h-254z" />
<glyph unicode="," horiz-adv-x="552" d="M106 -328l66 504h160l-125 -504h-101z" />
<glyph unicode="-" d="M164 504v119h532v-119h-532z" />
<glyph unicode="." horiz-adv-x="552" d="M139 86q0 43 32 75t75 32t74.5 -32t31.5 -75t-31.5 -74.5t-74.5 -31.5t-75 31.5t-32 74.5z" />
<glyph unicode="/" horiz-adv-x="808" d="M61 -10l576 1433h111l-576 -1433h-111z" />
<glyph unicode="0" horiz-adv-x="897" d="M121 610q0 236 34.5 373t108 197.5t197.5 60.5t197.5 -60.5t108 -197.5t34.5 -373t-35 -373t-108 -197t-197 -60t-197 60t-108 197t-35 373zM244 610q0 -294 44.5 -404t172.5 -110t172.5 110t44.5 404t-44.5 404t-172.5 110t-172.5 -110t-44.5 -404z" />
<glyph unicode="1" horiz-adv-x="737" d="M143 0v119h160v942l-160 -76v119l181 117h102v-1102h160v-119h-443z" />
<glyph unicode="2" d="M139 0v119q0 105 51 192t175 211q79 79 120.5 125t75 95.5t44.5 91.5t11 96q0 91 -47 139.5t-127 48.5q-156 0 -303 -88v148q56 22 144.5 42.5t152.5 20.5q144 0 224.5 -76t80.5 -235q0 -47 -7 -87.5t-26.5 -81.5t-37.5 -71t-58 -76t-68 -76t-87 -90l-14 -14t-12.5 -13 t-14.5 -15q-95 -98 -126.5 -151.5t-31.5 -135.5h502v-119h-621z" />
<glyph unicode="3" d="M111 8q64 -41 144 -69.5t155 -28.5q105 0 153.5 67t48.5 222q0 164 -61 229.5t-180 65.5h-113v116h113q58 0 97 11t68 39t42.5 79t13.5 129q0 77 -12.5 128t-38 77.5t-55.5 36.5t-72 10q-152 0 -303 -90v148q56 22 144.5 42.5t152.5 20.5q73 0 126 -16.5t95 -56.5 t63 -115t21 -185q0 -123 -34.5 -204.5t-96.5 -112.5q71 -36 112 -126.5t41 -225.5q0 -95 -14 -165.5t-40 -117.5t-67.5 -76t-92.5 -41t-118 -12q-68 0 -154.5 23t-137.5 47v151z" />
<glyph unicode="4" d="M43 209v86l502 946h108v-917h115v-115h-115v-402h-118v402h-492zM178 324h357v524q0 34 5 91t10 97l5 41q-55 -147 -90 -213z" />
<glyph unicode="5" d="M156 12q39 -26 57.5 -37.5t56 -31t73.5 -27.5t75 -8q105 0 149.5 65.5t44.5 231.5q0 164 -39 226.5t-135 62.5h-270v727h539v-123h-420v-486h151q72 0 124.5 -19.5t92.5 -65.5t60 -126t20 -196q0 -228 -80 -323t-243 -95q-71 0 -144 24.5t-112 49.5v151z" />
<glyph unicode="6" horiz-adv-x="915" d="M147 662q0 86 2 154t7 138t13.5 123.5t22 105t33 89t45.5 69.5t59 51.5t75.5 30.5t93.5 11q55 0 127 -20.5t120 -45.5v-143q-128 88 -247 88q-120 0 -174 -118.5t-54 -377.5l21 23q34 37 90 65.5t108 28.5q160 0 233 -112.5t73 -364.5q0 -178 -36 -283.5t-105.5 -149.5 t-182.5 -44q-80 0 -136.5 27t-93 77.5t-57.5 136.5t-29 189.5t-8 251.5zM270 662q0 -218 8 -294q25 -240 151 -271q20 -5 42 -5q112 0 156.5 79t44.5 286q0 196 -39.5 276t-149.5 80q-86 0 -170 -88l-43 -45v-18z" />
<glyph unicode="7" horiz-adv-x="778" d="M51 1098v123h631v-172q0 -132 -26 -239.5t-51 -155t-79 -132.5q-11 -17 -16 -26q-58 -92 -85.5 -153t-45 -160.5t-17.5 -248.5v-127h-122v127q0 103 11 191.5t25.5 148t41 120.5t46 95t52.5 84q36 56 56.5 93.5t43 96t33 128.5t10.5 158v49h-508z" />
<glyph unicode="8" horiz-adv-x="921" d="M125 391q0 272 143 359q-112 80 -112 309q0 196 71 285.5t234 89.5t234 -89.5t71 -285.5q0 -110 -29.5 -190.5t-83.5 -118.5q144 -86 144 -359q0 -218 -78 -314.5t-258 -96.5t-258 96.5t-78 314.5zM248 391q0 -160 44.5 -228.5t168.5 -68.5t168.5 68.5t44.5 228.5 t-44.5 228.5t-168.5 68.5t-168.5 -68.5t-44.5 -228.5zM276 1059q0 -136 39.5 -198t145.5 -62t145 62t39 198t-39 198t-145 62t-145.5 -62t-39.5 -198z" />
<glyph unicode="9" horiz-adv-x="915" d="M121 764q0 178 36 283.5t105 149.5t182 44q80 0 136.5 -27t93 -77.5t57.5 -136.5t29 -189.5t8 -251.5q0 -112 -3 -195.5t-12 -168t-25 -143.5t-42.5 -112.5t-63 -85t-88 -49.5t-116.5 -18q-55 0 -127.5 20.5t-120.5 45.5v143q128 -88 248 -88t173.5 118t53.5 377l-20 -22 q-34 -37 -90.5 -65.5t-108.5 -28.5q-160 0 -232.5 112t-72.5 365zM244 764q0 -197 39.5 -276.5t148.5 -79.5q86 0 170 88l43 45v18q0 218 -8 294q-25 239 -151 270q-19 5 -42 5q-112 0 -156 -78.5t-44 -285.5z" />
<glyph unicode=":" horiz-adv-x="552" d="M139 86q0 43 32 75t75 32t74.5 -32t31.5 -75t-31.5 -74.5t-74.5 -31.5t-75 31.5t-32 74.5zM139 844q0 43 32 74.5t75 31.5t74.5 -31.5t31.5 -74.5t-31.5 -75t-74.5 -32t-75 32t-32 75z" />
<glyph unicode=";" horiz-adv-x="552" d="M106 -328l66 504h160l-125 -504h-101zM139 844q0 43 32 74.5t75 31.5t74.5 -31.5t31.5 -74.5t-31.5 -75t-74.5 -32t-75 32t-32 75z" />
<glyph unicode="&#x3c;" horiz-adv-x="819" d="M123 539v49l575 450v-137l-430 -338l430 -338v-137z" />
<glyph unicode="=" d="M164 346v109h532v-109h-532zM164 674v108h532v-108h-532z" />
<glyph unicode="&#x3e;" horiz-adv-x="819" d="M121 88v137l430 338l-430 338v137l575 -450v-49z" />
<glyph unicode="?" d="M139 1223v147q57 22 145 43t152 21q73 0 126 -16.5t95 -56.5t63 -115t21 -185q0 -89 -16.5 -156t-42.5 -106.5t-65 -64.5t-76.5 -34t-85.5 -12v-323h-119v442h63q59 0 97.5 10t68 37.5t43 78t13.5 128.5q0 77 -13 128t-38.5 77.5t-55.5 36.5t-72 10q-152 0 -303 -90z M289 86q0 43 31.5 75t74.5 32t75 -32t32 -75t-32 -74.5t-75 -31.5t-74.5 31.5t-31.5 74.5z" />
<glyph unicode="@" horiz-adv-x="1251" d="M123 518q0 269 53.5 426t165.5 225t301 68t301 -68t165.5 -225t53.5 -426q0 -196 -61.5 -311t-173.5 -115q-92 0 -121 113l-31 -35q-36 -40 -84 -67t-86 -27q-81 0 -128.5 38.5t-72 134t-24.5 263.5t24.5 263.5t72 134t128.5 38.5q38 0 85 -26.5t85 -67.5l19 -20 q0 44 8 98h112q-18 -81 -18 -240v-360q0 -80 14 -108.5t43 -28.5q21 0 40 17.5t35.5 53.5t26 101t9.5 151q0 120 -7.5 207.5t-26.5 159t-50 118t-78.5 78t-110.5 45t-149 13.5t-149 -13.5t-110.5 -45t-78.5 -78t-50 -118t-26.5 -159t-7.5 -207.5t7.5 -207t26.5 -159t50 -118 t78.5 -77.5t110.5 -45t149 -13.5q117 0 196.5 23.5t147.5 74.5v-123q-138 -74 -344 -74q-189 0 -301 68t-165.5 225t-53.5 426zM489 512q0 -104 10 -172.5t28.5 -100t37.5 -42.5t45 -11q57 0 133 84l45 52v383l-45 51q-73 84 -133 84q-26 0 -45 -11t-37.5 -43t-28.5 -101 t-10 -173z" />
<glyph unicode="A" horiz-adv-x="942" d="M57 0l334 1413h160l334 -1413h-125l-84 389h-410l-84 -389h-125zM291 506h360l-112 518q-13 56 -30 141t-27 142l-11 57q-39 -213 -68 -340z" />
<glyph unicode="B" horiz-adv-x="935" d="M176 0v1413h273q105 0 177 -50.5t103 -130t31 -183.5q0 -86 -27 -160t-78 -123q89 -48 136 -145t47 -220q0 -175 -86 -288t-252 -113h-324zM299 119h201q215 0 215 282q0 283 -215 283h-201v-565zM299 803h150q56 0 94 19t58 54.5t28 76.5t8 96t-8 96t-28 76.5t-58 54 t-94 18.5h-150v-491z" />
<glyph unicode="C" horiz-adv-x="851" d="M129 707q0 133 8 237.5t22.5 179.5t38.5 128.5t50.5 86.5t64.5 52t76 25.5t88 6.5q76 0 155 -23t134 -52v-160q-131 108 -289 108q-61 0 -98 -21.5t-66 -84.5t-41 -179.5t-12 -303.5q0 -229 19 -353.5t65.5 -180.5t132.5 -56q85 0 153 25.5t136 84.5v-161 q-127 -76 -289 -76q-46 0 -82 5.5t-70.5 19.5t-60 39t-48.5 63t-38.5 91.5t-27 125.5t-16.5 164.5t-5 208.5z" />
<glyph unicode="D" horiz-adv-x="1042" d="M176 0v1413h285q105 0 185 -35.5t130 -96.5t81.5 -152.5t43.5 -193t12 -228.5t-12 -229t-43.5 -193.5t-81.5 -152.5t-130 -96.5t-185 -35.5h-285zM299 119h162q81 0 140 30.5t94.5 81t56.5 129t28.5 159.5t7.5 188t-7.5 188t-28.5 159.5t-56.5 128.5t-94.5 80.5 t-140 30.5h-162v-1175z" />
<glyph unicode="E" horiz-adv-x="839" d="M176 0v1413h522v-119h-399v-491h379v-119h-379v-565h420v-119h-543z" />
<glyph unicode="F" horiz-adv-x="782" d="M176 0v1413h512v-119h-389v-491h369v-119h-369v-684h-123z" />
<glyph unicode="G" horiz-adv-x="972" d="M129 707q0 180 15.5 309t43.5 210t75 127.5t100.5 63.5t128.5 17q146 0 309 -80v-158q-171 113 -309 113q-48 0 -81.5 -12t-65 -49t-50.5 -102.5t-30 -175t-11 -263.5q0 -225 22 -357.5t68 -191t123 -58.5q102 0 186 95l64 73v361h-205v119h328v-461q0 -193 20 -287h-127 q-4 41 -10 125l-33 -39q-36 -44 -100.5 -75t-136.5 -31q-85 0 -143 33.5t-100 115t-61.5 223.5t-19.5 355z" />
<glyph unicode="H" horiz-adv-x="1046" d="M176 0v1413h123v-610h449v610h122v-1413h-122v684h-449v-684h-123z" />
<glyph unicode="I" horiz-adv-x="507" d="M193 0v1413h122v-1413h-122z" />
<glyph unicode="J" horiz-adv-x="528" d="M-23 -4v117q27 -9 144 -9q35 0 52.5 4t30 22t16 47.5t3.5 86.5v1149h123v-1149q0 -90 -6.5 -140t-28.5 -84t-59 -45t-102 -11q-27 0 -90.5 3.5t-82.5 8.5z" />
<glyph unicode="K" horiz-adv-x="921" d="M176 0v1413h123v-532l-4 -265q72 162 123 248l321 549h129l-358 -598l381 -815h-135l-322 696l-135 -223v-473h-123z" />
<glyph unicode="L" horiz-adv-x="749" d="M176 0v1413h123v-1294h410v-119h-533z" />
<glyph unicode="M" horiz-adv-x="1339" d="M176 0v1413h141l291 -979q15 -49 30.5 -117t23.5 -111l8 -44q28 161 61 272l291 979h141v-1413h-114v952q0 45 5.5 134t11.5 155l5 66q-55 -260 -78 -334l-286 -973h-74l-287 973q-10 33 -29.5 116.5t-34.5 150.5l-14 67q23 -253 23 -355v-952h-115z" />
<glyph unicode="N" horiz-adv-x="1040" d="M176 0v1413h107l391 -952q16 -39 42.5 -120t45.5 -143l18 -61q-35 251 -35 355v921h115v-1413h-106l-392 952q-10 25 -36.5 106t-47.5 150l-22 68q35 -284 35 -354v-922h-115z" />
<glyph unicode="O" horiz-adv-x="1003" d="M129 707q0 273 38.5 431.5t118.5 227t216 68.5t215.5 -68.5t118 -227t38.5 -431.5t-38.5 -431.5t-118 -227t-215.5 -68.5t-216 68.5t-118.5 227t-38.5 431.5zM254 707q0 -176 10.5 -286t39 -185t76 -105.5t122.5 -30.5q61 0 103 20.5t71 62.5t45 116.5t22.5 170.5 t6.5 237t-6.5 237t-22.5 170.5t-45 116t-71 62t-103 20.5q-60 0 -102 -20.5t-71 -62.5t-45 -116t-23 -170t-7 -237z" />
<glyph unicode="P" horiz-adv-x="907" d="M176 0v1413h279q179 0 273.5 -120t94.5 -326t-94.5 -324.5t-273.5 -118.5h-156v-524h-123zM299 645h156q129 0 186 81.5t57 240.5q0 161 -57 244t-186 83h-156v-649z" />
<glyph unicode="Q" horiz-adv-x="1003" d="M129 707q0 273 38.5 431.5t118.5 227t216 68.5t215.5 -68.5t118 -227t38.5 -431.5q0 -372 -71.5 -536.5t-237.5 -186.5v-47q0 -115 35.5 -161t120.5 -46q47 0 102 10v-121q-55 -10 -102 -10q-136 0 -207.5 77t-71.5 251v47q-169 20 -241 184.5t-72 538.5zM254 707 q0 -176 10.5 -286t39 -185t76 -105.5t122.5 -30.5q61 0 103 20.5t71 62.5t45 116.5t22.5 170.5t6.5 237t-6.5 237t-22.5 170.5t-45 116t-71 62t-103 20.5q-60 0 -102 -20.5t-71 -62.5t-45 -116t-23 -170t-7 -237z" />
<glyph unicode="R" horiz-adv-x="983" d="M176 0v1413h318q160 0 245.5 -113t85.5 -288q0 -140 -56 -243t-163 -140l295 -629h-135l-285 610h-182v-610h-123zM299 729h195q208 0 208 283q0 282 -208 282h-195v-565z" />
<glyph unicode="S" horiz-adv-x="849" d="M98 1061q0 200 84 286.5t242 86.5q62 0 145.5 -19.5t122.5 -38.5v-145q-119 82 -268 82q-50 0 -84.5 -10t-63.5 -36.5t-43 -77.5t-14 -128q0 -85 12 -138.5t39 -81.5t61 -38t87 -10q57 0 101 -7.5t92 -32.5t79 -67.5t51.5 -117.5t20.5 -177q0 -411 -348 -411 q-90 0 -169.5 20.5t-119.5 44.5v145q146 -90 289 -90q51 0 89.5 13.5t71 45t49.5 90t17 142.5q0 73 -9.5 123t-26.5 81t-47 48t-63.5 23t-84.5 6q-48 0 -84 5.5t-73.5 19.5t-64 42t-48 70t-32 105.5t-10.5 146.5z" />
<glyph unicode="T" horiz-adv-x="733" d="M16 1294v119h701v-119h-289v-1294h-123v1294h-289z" />
<glyph unicode="U" horiz-adv-x="983" d="M166 303v1110h123v-1110q0 -100 51.5 -151.5t151.5 -51.5t151 51.5t51 151.5v1110h123v-1110q0 -149 -88 -236t-237 -87q-150 0 -238 87t-88 236z" />
<glyph unicode="V" horiz-adv-x="888" d="M57 1413h127l203 -985q9 -44 23 -130t24 -150l10 -64q38 244 58 344l203 985h126l-309 -1413h-155z" />
<glyph unicode="W" horiz-adv-x="1402" d="M61 1413h117l184 -987q11 -56 23 -142.5t19 -145.5l6 -58q28 221 53 346l186 987h105l186 -987q10 -56 23.5 -142.5t21.5 -145.5l8 -58q24 221 47 346l185 987h116l-268 -1413h-158l-165 893q-7 41 -19 128.5t-21 154.5l-8 67q-31 -258 -47 -350l-168 -893h-157z" />
<glyph unicode="X" horiz-adv-x="858" d="M51 0l309 715l-301 698h134l178 -420q13 -30 27 -74.5t22 -74.5l8 -29q30 108 59 178l179 420h133l-301 -696l309 -717h-133l-185 438q-13 31 -27.5 75.5t-23.5 73.5l-8 29q-28 -110 -59 -180l-187 -436h-133z" />
<glyph unicode="Y" horiz-adv-x="856" d="M45 1413h131l199 -561q10 -27 23.5 -69.5t21.5 -71.5l8 -29q30 109 53 170l199 561h131l-322 -885v-528h-122v528z" />
<glyph unicode="Z" horiz-adv-x="798" d="M90 0v94l453 1200h-445v119h586v-94l-453 -1200h488v-119h-629z" />
<glyph unicode="[" horiz-adv-x="839" d="M262 -205v1721h420v-113h-297v-1495h297v-113h-420z" />
<glyph unicode="\" horiz-adv-x="808" d="M59 1423h111l575 -1433h-110z" />
<glyph unicode="]" horiz-adv-x="839" d="M158 -92h297v1495h-297v113h420v-1721h-420v113z" />
<glyph unicode="^" d="M102 930l308 495h49l307 -495h-129l-203 338l-203 -338h-129z" />
<glyph unicode="_" d="M-2 0h864v-109h-864v109z" />
<glyph unicode="`" d="M207 1473h135l242 -306h-121z" />
<glyph unicode="a" horiz-adv-x="819" d="M82 268q0 157 85.5 246.5t221.5 89.5h162v127q0 104 -38 148.5t-122 44.5q-128 0 -260 -95v150q147 65 260 65q145 0 214 -75.5t69 -251.5v-430q0 -193 20 -287h-127q-8 78 -10 135l-53 -53q-98 -98 -199 -98q-106 0 -164.5 74.5t-58.5 209.5zM201 266q0 -84 31 -125 t83 -41q84 0 168 84l68 68v246h-145q-106 0 -155.5 -64t-49.5 -168z" />
<glyph unicode="b" horiz-adv-x="903" d="M131 0q21 99 21 287v1126h122v-524l37 43q41 48 100 80t113 32q91 0 145.5 -46t83.5 -164t29 -322t-29 -322t-83.5 -164t-145.5 -46q-53 0 -111.5 32t-101.5 80l-43 47q-3 -88 -10 -139h-127zM274 274l58 -65q97 -111 178 -111q27 0 46 6.5t40 31.5t33.5 68t21 121 t8.5 187t-8.5 187t-21 121t-33.5 68t-40 31.5t-46 6.5q-78 0 -178 -111l-58 -65v-476z" />
<glyph unicode="c" horiz-adv-x="737" d="M121 512q0 135 13.5 230t36 152t62 88.5t81 41.5t102.5 10q107 0 231 -63v-146q-120 90 -231 90q-63 0 -98 -29t-54.5 -118t-19.5 -256q0 -160 17 -246.5t53 -120.5t102 -34q134 0 231 92v-150q-105 -63 -231 -63q-64 0 -105.5 10t-81 41t-61 88t-34.5 151.5t-13 231.5z " />
<glyph unicode="d" horiz-adv-x="903" d="M121 512q0 204 29 322t83.5 164t145.5 46q54 0 113 -32t100 -80l37 -43v524h123v-1126q0 -193 20 -287h-127q-7 51 -10 139l-43 -47q-43 -48 -101.5 -80t-111.5 -32q-91 0 -145.5 46t-83.5 164t-29 322zM244 512q0 -109 8.5 -187t21 -121t33.5 -68t40 -31.5t46 -6.5 q81 0 178 111l58 65v476l-58 65q-97 111 -178 111q-27 0 -46 -6.5t-40 -31.5t-33.5 -68t-21 -121t-8.5 -187z" />
<glyph unicode="e" horiz-adv-x="878" d="M121 512q0 199 34.5 315t105.5 166.5t192 50.5q144 0 211 -75.5t67 -251.5v-205h-487q0 -127 12 -208.5t37.5 -124t58 -58t82.5 -15.5q148 0 275 89v-144q-51 -20 -77 -29.5t-85 -22.5t-113 -13q-61 0 -105.5 11.5t-85.5 45t-66.5 91.5t-40.5 152.5t-15 225.5zM246 625 h364v92q0 119 -33 166t-124 47q-108 0 -153.5 -68t-53.5 -237z" />
<glyph unicode="f" horiz-adv-x="602" d="M74 907v117h131v119q0 90 6.5 140t28.5 84t59 45t102 11q42 0 85 -3t65 -6l22 -3v-117q-82 9 -143 9q-35 0 -52.5 -4t-30 -22t-16 -47.5t-3.5 -86.5v-119h245v-117h-245v-907h-123v907h-131z" />
<glyph unicode="g" horiz-adv-x="903" d="M121 512q0 204 29 322t83.5 164t145.5 46q53 0 111.5 -32t101.5 -80l43 -47q3 88 10 139h127q-20 -94 -20 -287v-819q0 -174 -71.5 -251t-207.5 -77q-129 0 -285 62v147q128 -88 285 -88q85 0 120.5 46t35.5 161v217l-37 -43q-41 -48 -100 -80t-113 -32q-91 0 -145.5 46 t-83.5 164t-29 322zM244 512q0 -109 8.5 -187t21 -121t33.5 -68t40 -31.5t46 -6.5q78 0 178 111l58 65v476l-58 65q-97 111 -178 111q-27 0 -46 -6.5t-40 -31.5t-33.5 -68t-21 -121t-8.5 -187z" />
<glyph unicode="h" horiz-adv-x="894" d="M152 0v1413h122v-579l88 98q100 112 199 112q60 0 99.5 -22t59.5 -66.5t27 -96t7 -126.5v-733h-123v784q0 140 -92 140q-31 0 -65.5 -23t-90.5 -86l-109 -121v-694h-122z" />
<glyph unicode="i" horiz-adv-x="477" d="M70 907v117h235v-1024h-123v907h-112zM158 1303q0 35 25.5 60.5t60.5 25.5t60.5 -25.5t25.5 -60.5t-25.5 -60.5t-60.5 -25.5t-60.5 25.5t-25.5 60.5z" />
<glyph unicode="j" horiz-adv-x="466" d="M-18 -270q27 -9 88 -9q35 0 52.5 4t30 22t16 47.5t3.5 86.5v1143h123v-1143q0 -90 -7 -140.5t-29 -84t-59 -44.5t-102 -11q-72 0 -116 12v117zM147 1303q0 35 25.5 60.5t60.5 25.5t60.5 -25.5t25.5 -60.5t-25.5 -60.5t-60.5 -25.5t-60.5 25.5t-25.5 60.5z" />
<glyph unicode="k" horiz-adv-x="829" d="M152 0v1413h122v-741l-6 -207q76 140 146 242l217 317h139l-303 -434l313 -590h-139l-252 483l-115 -168v-315h-122z" />
<glyph unicode="l" horiz-adv-x="466" d="M59 1296v117h236v-1413h-123v1296h-113z" />
<glyph unicode="m" horiz-adv-x="1312" d="M131 1024h127q8 -100 12 -170l62 70q107 120 203 120q86 0 129.5 -48.5t52.5 -143.5l63 72q107 120 203 120q47 0 81.5 -15.5t55 -41t32 -67t15.5 -84.5t4 -103v-733h-122v764q0 91 -25 125.5t-70 34.5q-32 0 -67 -25t-86 -84l-78 -88v-727h-123v764q0 91 -24.5 125.5 t-69.5 34.5q-32 0 -67.5 -25t-86.5 -84l-78 -88v-727h-122v737q0 188 -21 287z" />
<glyph unicode="n" horiz-adv-x="905" d="M131 1024h127q14 -198 14 -205l101 113q100 112 198 112q60 0 99.5 -22t59.5 -66.5t27 -96t7 -126.5v-733h-123v784q0 140 -92 140q-31 0 -65.5 -23t-90.5 -86l-119 -133v-682h-122v737q0 188 -21 287z" />
<glyph unicode="o" horiz-adv-x="884" d="M121 512q0 199 33 315t102 166.5t186 50.5t186 -50.5t102.5 -166.5t33.5 -315t-33.5 -315t-102.5 -166.5t-186 -50.5t-186 50.5t-102 166.5t-33 315zM244 512q0 -239 40.5 -328.5t157.5 -89.5q118 0 158.5 90t40.5 328t-40.5 328t-158.5 90q-117 0 -157.5 -89.5 t-40.5 -328.5z" />
<glyph unicode="p" horiz-adv-x="903" d="M131 1024h127q7 -51 10 -139l43 47q43 48 101.5 80t111.5 32q91 0 145.5 -46t83.5 -164t29 -322t-29 -322t-83.5 -164t-145.5 -46q-54 0 -113 32t-100 80l-37 43v-524h-122v1126q0 188 -21 287zM274 274l58 -65q97 -111 178 -111q27 0 46 6.5t40 31.5t33.5 68t21 121 t8.5 187t-8.5 187t-21 121t-33.5 68t-40 31.5t-46 6.5q-78 0 -178 -111l-58 -65v-476z" />
<glyph unicode="q" horiz-adv-x="903" d="M121 512q0 204 29 322t83.5 164t145.5 46q53 0 111.5 -32t101.5 -80l43 -47q3 88 10 139h127q-20 -94 -20 -287v-1126h-123v524l-37 -43q-41 -48 -100 -80t-113 -32q-91 0 -145.5 46t-83.5 164t-29 322zM244 512q0 -109 8.5 -187t21 -121t33.5 -68t40 -31.5t46 -6.5 q78 0 178 111l58 65v476l-58 65q-97 111 -178 111q-27 0 -46 -6.5t-40 -31.5t-33.5 -68t-21 -121t-8.5 -187z" />
<glyph unicode="r" horiz-adv-x="577" d="M131 1024h127q0 -6 3 -43t6 -79.5t5 -78.5l111 131q37 45 83.5 67.5t86.5 22.5v-159q-12 1 -24 1q-78 0 -126 -57l-129 -151v-678h-122v737q0 188 -21 287z" />
<glyph unicode="s" horiz-adv-x="737" d="M80 768q0 151 74.5 213.5t216.5 62.5q51 0 120.5 -15t108.5 -32v-141q-120 72 -238 72q-78 0 -119.5 -33t-41.5 -127q0 -106 38 -141t119 -35q48 0 86 -5.5t79.5 -24.5t68.5 -51.5t45 -89.5t18 -134q0 -165 -81 -236t-226 -71q-134 0 -246 49v143q132 -74 252 -74 q81 0 128.5 40.5t47.5 148.5q0 113 -41.5 149.5t-136.5 36.5q-49 0 -85 5.5t-73.5 23.5t-60.5 49.5t-38 86t-15 130.5z" />
<glyph unicode="t" horiz-adv-x="573" d="M57 907v117h131v233h123v-233h191v-117h-191v-637q0 -74 8.5 -106.5t28.5 -42.5t66 -10q52 0 88 16v-117q-20 -7 -57.5 -13.5t-59.5 -6.5q-65 0 -102 11t-59 44.5t-29 84t-7 140.5v637h-131z" />
<glyph unicode="u" horiz-adv-x="884" d="M141 291v733h123v-784q0 -140 92 -140q31 0 65.5 23t90.5 86l98 110v705h123v-737q0 -188 21 -287h-127q-1 8 -4 39t-6 70t-5 73l-80 -90q-97 -112 -198 -112q-60 0 -99.5 22t-59.5 66.5t-27 96t-7 126.5z" />
<glyph unicode="v" horiz-adv-x="778" d="M59 1024h125l148 -653q13 -56 27 -129.5t22 -119.5l8 -46q28 172 57 295l148 653h125l-244 -1024h-172z" />
<glyph unicode="w" horiz-adv-x="1089" d="M82 1024h121l86 -686q6 -53 10.5 -116.5t6.5 -100.5l1 -37q6 135 33 260l139 680h131l140 -680q11 -56 19 -121t11 -102l2 -37q5 135 19 254l86 686h121l-164 -1024h-123l-121 590q-15 71 -28.5 153.5t-19.5 129.5l-7 47q-23 -168 -56 -330l-120 -590h-123z" />
<glyph unicode="x" horiz-adv-x="778" d="M55 0l264 524l-251 500h135l186 -397l186 397h136l-252 -500l264 -524h-135l-199 422l-199 -422h-135z" />
<glyph unicode="y" horiz-adv-x="874" d="M141 291v733h123v-784q0 -140 92 -140q31 0 65.5 23t90.5 86l88 98v717h123v-1106q0 -174 -71.5 -251t-207.5 -77q-128 0 -284 62v147q128 -88 284 -88q85 0 120.5 46t35.5 161v250l-68 -76q-100 -112 -198 -112q-60 0 -99.5 22t-59.5 66.5t-27 96t-7 126.5z" />
<glyph unicode="z" horiz-adv-x="686" d="M74 0v84l377 823h-351v117h496v-84l-377 -823h393v-117h-538z" />
<glyph unicode="{" horiz-adv-x="819" d="M119 627v57q37 13 58.5 21.5t50 23t44.5 30t34 39.5t27 54t15 71t6 93q0 268 111.5 410.5t310.5 142.5v-113q-148 0 -222.5 -116t-74.5 -318q0 -295 -176 -367q176 -70 176 -366q0 -200 75 -317t222 -117v-113q-199 0 -310.5 142.5t-111.5 410.5q0 52 -6 93t-15 71 t-27 54t-34 39.5t-44.5 30t-50 23t-58.5 21.5z" />
<glyph unicode="|" horiz-adv-x="559" d="M219 -193v1606h119v-1606h-119z" />
<glyph unicode="}" horiz-adv-x="819" d="M43 -145q147 0 222 117t75 317q0 296 176 366q-176 72 -176 367q0 202 -74.5 318t-222.5 116v113q199 0 310.5 -142.5t111.5 -410.5q0 -52 6 -93t15 -71t27 -54t34 -39.5t44.5 -30t50 -23t58.5 -21.5v-57q-37 -13 -58.5 -21.5t-50 -23t-44.5 -30t-34 -39.5t-27 -54 t-15 -71t-6 -93q0 -268 -111.5 -410.5t-310.5 -142.5v113z" />
<glyph unicode="~" horiz-adv-x="870" d="M123 471q3 99 44.5 160t121.5 61q42 0 85 -20t71.5 -43.5t61 -43.5t56.5 -20q42 0 60 20t30 81h84q-3 -97 -43.5 -158.5t-122.5 -61.5q-45 0 -87.5 19.5t-69.5 43t-58.5 43t-56.5 19.5q-43 0 -62.5 -21t-29.5 -79h-84z" />
<glyph unicode="&#xa1;" horiz-adv-x="634" d="M221 938q0 43 32 74.5t75 31.5t74.5 -31.5t31.5 -74.5t-31.5 -75t-74.5 -32t-75 32t-32 75zM266 -389v987h123v-987h-123z" />
<glyph unicode="&#xa2;" d="M154 707q0 147 17.5 247t54.5 157.5t84.5 83.5t115.5 32v268h123v-272q92 -15 184 -58v-145q-133 90 -254 90q-41 0 -70.5 -9t-56 -35t-42.5 -70.5t-25 -116t-9 -172.5q0 -157 22.5 -246t65 -122.5t115.5 -33.5q147 0 254 92v-149q-90 -48 -184 -60v-270h-123v268 q-56 4 -97 21t-75.5 53t-55.5 94.5t-32.5 146t-11.5 206.5z" />
<glyph unicode="&#xa3;" d="M127 0v119h131v567h-131v117h131v297q0 174 65 250.5t191 76.5q118 0 262 -61v-147q-115 88 -256 88q-75 0 -107 -46t-32 -161v-297h324v-117h-324v-567h410v-119h-664z" />
<glyph unicode="&#xa4;" d="M82 512v119h102v76v75h-102v119h106q8 136 28 233t47.5 154.5t69 91t83 44t98.5 10.5q68 0 139.5 -23.5t120.5 -52.5v-160q-119 109 -260 109q-63 0 -100.5 -29.5t-63 -120t-33.5 -256.5h269v-119h-273v-75v-76h273v-119h-269q10 -227 54.5 -316.5t142.5 -89.5 q75 0 136.5 26t123.5 85v-162q-116 -75 -260 -75q-60 0 -103.5 11.5t-84 45t-67 91.5t-45.5 154t-26 230h-106z" />
<glyph unicode="&#xa5;" d="M68 1413h127l200 -561q10 -27 24 -75.5t23 -82.5l9 -35q32 132 55 193l201 561h127l-287 -790h213v-107h-248v-158h248v-106h-248v-252h-123v252h-244v106h244v158h-244v107h209z" />
<glyph unicode="&#xa6;" horiz-adv-x="559" d="M219 -193v697h119v-697h-119zM219 717v696h119v-696h-119z" />
<glyph unicode="&#xa7;" d="M117 768q0 87 61 168q-61 70 -61 221q0 152 82 214.5t239 62.5q55 0 132.5 -15.5t119.5 -32.5v-141q-132 72 -262 72q-32 0 -57.5 -3.5t-51.5 -13.5t-43 -27.5t-27.5 -46.5t-10.5 -69q0 -55 13.5 -91.5t40.5 -54t57.5 -24t74.5 -6.5q53 0 95 -5.5t88 -24.5t76 -51.5 t49.5 -89.5t19.5 -134q0 -99 -60 -178q60 -73 60 -211q0 -307 -340 -307q-83 0 -157 16.5t-114 36.5v139q145 -74 279 -74q207 0 207 189q0 58 -14.5 96t-44 57t-64 26t-86.5 7q-55 0 -95 5.5t-81 23.5t-67 49.5t-42 86t-16 130.5zM238 768q0 -55 13.5 -91.5t40.5 -54 t57.5 -24t74.5 -6.5q104 0 176 -27q27 46 27 111q0 58 -14.5 96t-44 57t-64 26t-86.5 7q-85 0 -146 17q-34 -43 -34 -111z" />
<glyph unicode="&#xa8;" d="M201 1243q0 33 21.5 55.5t53.5 22.5t54 -23t22 -55t-22 -54t-54 -22t-53.5 22t-21.5 54zM518 1243q0 32 22 55t54 23t54 -23t22 -55t-22 -54t-54 -22t-54 22t-22 54z" />
<glyph unicode="&#xa9;" horiz-adv-x="1286" d="M123 707q0 269 53.5 425.5t165.5 224.5t301 68t301 -68t165.5 -224.5t53.5 -425.5t-53.5 -426t-165.5 -225t-301 -68t-301 68t-165.5 225t-53.5 426zM221 707q0 -120 7.5 -207.5t26.5 -159t50 -118t78.5 -78t110.5 -45t149 -13.5t149 13.5t110.5 45t78.5 78t50 118 t26.5 159t7.5 207.5t-7.5 207t-26.5 159t-50 118t-78.5 77.5t-110.5 45t-149 13.5t-149 -13.5t-110.5 -45t-78.5 -77.5t-50 -118t-26.5 -159t-7.5 -207zM410 707q0 117 10.5 200t28.5 131.5t48 76t60.5 36t75.5 8.5q86 0 190 -51v-141q-105 86 -190 86q-45 0 -68 -26 t-34 -100t-11 -220q0 -202 21.5 -273.5t91.5 -71.5q50 0 92 18.5t98 70.5v-146q-92 -49 -190 -49q-47 0 -79 9t-61.5 36.5t-46.5 77t-26.5 131t-9.5 197.5z" />
<glyph unicode="&#xaa;" horiz-adv-x="655" d="M86 881q0 113 72 179t174 66h104v78q0 68 -23.5 96.5t-78.5 28.5q-106 0 -213 -76v133q118 48 213 48q106 0 157.5 -55.5t51.5 -184.5v-301q0 -132 16 -211h-113q-1 15 -2 28t-2 28t-2 24l-20 -21q-71 -69 -156 -69q-81 0 -129.5 56t-48.5 153zM190 879q0 -51 23.5 -78 t56.5 -27q27 0 60.5 14.5t58.5 40.5l47 48v153h-92q-71 0 -112.5 -43t-41.5 -108z" />
<glyph unicode="&#xab;" horiz-adv-x="1044" d="M123 539v49l452 354v-137l-307 -242l307 -241v-138zM489 539v49l453 354v-137l-307 -242l307 -241v-138z" />
<glyph unicode="&#xac;" horiz-adv-x="909" d="M164 514v109h571v-299h-108v190h-463z" />
<glyph unicode="&#xad;" d="M164 504v119h532v-119h-532z" />
<glyph unicode="&#xae;" horiz-adv-x="1081" d="M115 840q0 219 44 347t135.5 183t246.5 55t246.5 -55t135.5 -183t44 -347t-44 -347t-135.5 -183.5t-246.5 -55.5t-246.5 55.5t-135.5 183.5t-44 347zM213 840q0 -141 14 -229.5t51 -149t100 -85t163 -24.5q80 0 135.5 16.5t93.5 50.5t59 93.5t30 137t9 190.5t-9 190 t-30 137t-59 93.5t-93.5 50t-135.5 16.5t-135.5 -16.5t-93.5 -50t-59.5 -93t-30.5 -137t-9 -190.5zM387 526v635h164q75 0 117.5 -53.5t42.5 -136.5q0 -124 -84 -170l129 -275h-107l-119 256h-49v-256h-94zM481 874h70q67 0 67 97q0 98 -67 98h-70v-195z" />
<glyph unicode="&#xaf;" d="M199 1167v113h477v-113h-477z" />
<glyph unicode="&#xb0;" d="M164 1147q0 109 78.5 187.5t187.5 78.5t187.5 -78.5t78.5 -187.5t-78.5 -187.5t-187.5 -78.5t-187.5 78.5t-78.5 187.5zM270 1147q0 -66 47 -113t113 -47t113 47t47 113t-47 113t-113 47t-113 -47t-47 -113z" />
<glyph unicode="&#xb1;" d="M123 0v109h614v-109h-614zM123 510v108h254v314h108v-314h252v-108h-252v-315h-108v315h-254z" />
<glyph unicode="&#xb2;" horiz-adv-x="552" d="M115 688v88q0 61 25.5 113t88.5 125q71 84 93 122t22 91q0 90 -74 90q-32 0 -62 -13.5t-93 -50.5v125q101 43 166 43q79 0 125.5 -48t46.5 -146q0 -41 -7 -72.5t-32 -71t-40.5 -59t-64.5 -76.5q-14 -17 -22 -26q-37 -44 -52 -70.5t-18 -60.5h244v-103h-346z" />
<glyph unicode="&#xb3;" horiz-adv-x="552" d="M98 721v119q82 -56 164 -56q78 0 78 115q0 63 -28.5 91t-73.5 28h-80v102h80q92 0 92 101q0 98 -66 98q-88 0 -166 -51v116q98 39 162 39q174 0 174 -202q0 -86 -61 -152q69 -78 69 -170q0 -120 -47.5 -169.5t-136.5 -49.5q-67 0 -160 41z" />
<glyph unicode="&#xb4;" d="M246 1167l241 306h136l-256 -306h-121z" />
<glyph unicode="&#xb5;" horiz-adv-x="884" d="M141 -389v1413h123v-784q0 -140 92 -140q31 0 65.5 23t90.5 86l98 110v705h123v-737q0 -188 21 -287h-127q-1 8 -4 39t-6 70t-5 73l-80 -90q-97 -112 -198 -112q-37 0 -70 10v-379h-123z" />
<glyph unicode="&#xb6;" horiz-adv-x="1007" d="M82 1128q0 117 81.5 201t198.5 84h549v-119h-137v-1704h-108v1704h-195v-1704h-109v1256q-116 0 -198 83t-82 199z" />
<glyph unicode="&#xb7;" horiz-adv-x="552" d="M139 563q0 43 32 75t75 32t74.5 -32t31.5 -75t-31.5 -74.5t-74.5 -31.5t-75 31.5t-32 74.5z" />
<glyph unicode="&#xb8;" horiz-adv-x="856" d="M283 -262q30 -20 81 -37.5t78 -17.5q43 0 65.5 18.5t22.5 52.5q0 36 -27.5 57t-78.5 21h-33l53 207l95 2l-39 -131q62 -17 94.5 -58.5t32.5 -99.5q0 -69 -46 -112t-132 -43q-71 0 -166 53v88z" />
<glyph unicode="&#xb9;" horiz-adv-x="552" d="M125 692v103h76v485l-76 -37v107l102 63h78v-618h76v-103h-256z" />
<glyph unicode="&#xba;" horiz-adv-x="700" d="M104 1051q0 210 59 296.5t187 86.5t187 -86.5t59 -296.5t-59 -296.5t-187 -86.5t-187 86.5t-59 296.5zM211 1051q0 -159 29.5 -221t109.5 -62t109.5 62t29.5 221t-29 220.5t-110 61.5t-110 -61.5t-29 -220.5z" />
<glyph unicode="&#xbb;" horiz-adv-x="1044" d="M102 184v138l308 241l-308 242v137l453 -354v-49zM469 184v138l307 241l-307 242v137l453 -354v-49z" />
<glyph unicode="&#xbc;" horiz-adv-x="1228" d="M125 692v103h76v485l-76 -37v107l102 63h78v-618h76v-103h-256zM276 0l576 1413h111l-576 -1413h-111zM680 193v69l268 471h90v-444h54v-96h-54v-193h-96v193h-262zM791 289h151v225l6 78q-14 -45 -28 -72z" />
<glyph unicode="&#xbd;" horiz-adv-x="1269" d="M125 692v103h76v485l-76 -37v107l102 63h78v-618h76v-103h-256zM276 0l576 1413h111l-576 -1413h-111zM809 0v88q0 61 26 112.5t89 125.5q70 83 92 121.5t22 91.5q0 90 -73 90q-22 0 -47.5 -8.5t-45 -19.5t-63.5 -36v125q101 43 166 43q79 0 125.5 -48t46.5 -146 q0 -42 -8 -75t-30 -68.5t-43.5 -63t-64.5 -76.5q-13 -15 -20 -23q-37 -44 -52 -70.5t-18 -60.5h244v-102h-346z" />
<glyph unicode="&#xbe;" horiz-adv-x="1228" d="M119 721v119q82 -56 164 -56q77 0 77 115q0 63 -28.5 91t-73.5 28h-80v102h80q92 0 92 101q0 98 -65 98q-88 0 -166 -51v116q97 39 162 39q174 0 174 -202q0 -85 -62 -152q70 -79 70 -170q0 -120 -47.5 -169.5t-136.5 -49.5q-67 0 -160 41zM297 0l575 1413h111 l-575 -1413h-111zM700 193v69l269 471h90v-444h53v-96h-53v-193h-96v193h-263zM811 289h152v225l6 78q-15 -45 -29 -72z" />
<glyph unicode="&#xbf;" d="M102 -37q0 89 16.5 156t42.5 106.5t65.5 64.5t77 34t85.5 12v323h119v-442h-64q-59 0 -97.5 -10t-68 -37.5t-42.5 -78t-13 -128.5q0 -77 12.5 -128t38 -77.5t55.5 -36.5t72 -10q153 0 304 90v-147q-57 -22 -145 -43t-152 -21q-73 0 -126 16.5t-95.5 56.5t-63.5 115 t-21 185zM340 938q0 43 31.5 74.5t74.5 31.5t75 -31.5t32 -74.5t-32 -75t-75 -32t-74.5 32t-31.5 75z" />
<glyph unicode="&#xc0;" horiz-adv-x="942" d="M57 0l334 1413h160l334 -1413h-125l-84 389h-410l-84 -389h-125zM207 1882h135l242 -305h-121zM291 506h360l-112 518q-13 56 -30 141t-27 142l-11 57q-39 -213 -68 -340z" />
<glyph unicode="&#xc1;" horiz-adv-x="942" d="M57 0l334 1413h160l334 -1413h-125l-84 389h-410l-84 -389h-125zM291 506h360l-112 518q-13 56 -30 141t-27 142l-11 57q-39 -213 -68 -340zM358 1577l242 305h135l-256 -305h-121z" />
<glyph unicode="&#xc2;" horiz-adv-x="942" d="M57 0l334 1413h160l334 -1413h-125l-84 389h-410l-84 -389h-125zM184 1577l242 305h90l242 -305h-123l-164 197l-164 -197h-123zM291 506h360l-112 518q-13 56 -30 141t-27 142l-11 57q-39 -213 -68 -340z" />
<glyph unicode="&#xc3;" horiz-adv-x="942" d="M57 0l334 1413h160l334 -1413h-125l-84 389h-410l-84 -389h-125zM188 1610q3 91 42 146.5t112 55.5q39 0 78.5 -18t65.5 -40t56 -40t52 -18q39 0 55.5 18t26.5 74h78q-3 -88 -40.5 -144.5t-113.5 -56.5q-41 0 -80 18t-63.5 39.5t-54 39.5t-52.5 18q-40 0 -57.5 -19 t-26.5 -73h-78zM291 506h360l-112 518q-13 56 -30 141t-27 142l-11 57q-39 -213 -68 -340z" />
<glyph unicode="&#xc4;" horiz-adv-x="942" d="M57 0l334 1413h160l334 -1413h-125l-84 389h-410l-84 -389h-125zM236 1653q0 33 21.5 55.5t53.5 22.5t54 -23t22 -55t-22 -54t-54 -22t-53.5 22t-21.5 54zM291 506h360l-112 518q-13 56 -30 141t-27 142l-11 57q-39 -213 -68 -340zM553 1653q0 32 22 55t54 23t54 -23 t22 -55t-22 -54t-54 -22t-54 22t-22 54z" />
<glyph unicode="&#xc5;" horiz-adv-x="942" d="M57 0l334 1413h160l334 -1413h-125l-84 389h-410l-84 -389h-125zM254 1800q0 89 64 152t153 63t153 -63t64 -152t-64 -152t-153 -63t-153 63t-64 152zM291 506h360l-112 518q-13 56 -30 141t-27 142l-11 57q-39 -213 -68 -340zM346 1800q0 -52 36 -88.5t89 -36.5t89 36.5 t36 88.5t-36 88.5t-89 36.5t-89 -36.5t-36 -88.5z" />
<glyph unicode="&#xc6;" horiz-adv-x="1271" d="M57 0l334 1413h725v-119h-536l114 -491h402v-119h-373l133 -565h281v-119h-377l-84 389h-410l-84 -389h-125zM291 506h360l-112 518q-13 56 -30 141t-27 142l-11 57q-39 -213 -68 -340z" />
<glyph unicode="&#xc7;" horiz-adv-x="851" d="M129 707q0 133 8 237.5t22.5 179.5t38.5 128.5t50.5 86.5t64.5 52t76 25.5t88 6.5q76 0 155 -23t134 -52v-160q-131 108 -289 108q-61 0 -98 -21.5t-66 -84.5t-41 -179.5t-12 -303.5q0 -229 19 -353.5t65.5 -180.5t132.5 -56q85 0 153 25.5t136 84.5v-161 q-108 -64 -242 -74l-24 -82q62 -17 94.5 -58.5t32.5 -99.5q0 -69 -46 -112t-132 -43q-71 0 -166 53v88q30 -20 81 -37.5t78 -17.5q43 0 65.5 18.5t22.5 52.5q0 36 -27.5 57t-78.5 21h-33l41 160q-65 4 -110 24t-84 67t-61.5 126.5t-35 202.5t-12.5 295z" />
<glyph unicode="&#xc8;" horiz-adv-x="839" d="M176 0v1413h522v-119h-399v-491h379v-119h-379v-565h420v-119h-543zM215 1882h135l242 -305h-121z" />
<glyph unicode="&#xc9;" horiz-adv-x="839" d="M176 0v1413h522v-119h-399v-491h379v-119h-379v-565h420v-119h-543zM311 1577l242 305h135l-256 -305h-121z" />
<glyph unicode="&#xca;" horiz-adv-x="839" d="M154 1577l241 305h90l242 -305h-123l-164 197l-164 -197h-122zM176 0v1413h522v-119h-399v-491h379v-119h-379v-565h420v-119h-543z" />
<glyph unicode="&#xcb;" horiz-adv-x="839" d="M176 0v1413h522v-119h-399v-491h379v-119h-379v-565h420v-119h-543zM207 1653q0 32 22 55t54 23t53.5 -22.5t21.5 -55.5q0 -32 -21.5 -54t-53.5 -22t-54 22t-22 54zM524 1653q0 32 22 55t54 23t54 -23t22 -55t-22 -54t-54 -22t-54 22t-22 54z" />
<glyph unicode="&#xcc;" horiz-adv-x="507" d="M-31 1882h135l242 -305h-121zM193 0v1413h122v-1413h-122z" />
<glyph unicode="&#xcd;" horiz-adv-x="507" d="M166 1577l242 305h135l-256 -305h-121zM193 0v1413h122v-1413h-122z" />
<glyph unicode="&#xce;" horiz-adv-x="507" d="M-29 1577l242 305h90l242 -305h-123l-164 197l-164 -197h-123zM193 0v1413h122v-1413h-122z" />
<glyph unicode="&#xcf;" horiz-adv-x="507" d="M20 1653q0 32 22 55t54 23t54 -23t22 -55t-22 -54t-54 -22t-54 22t-22 54zM193 0v1413h122v-1413h-122zM338 1653q0 32 22 55t54 23t53.5 -22.5t21.5 -55.5q0 -32 -21.5 -54t-53.5 -22t-54 22t-22 54z" />
<glyph unicode="&#xd0;" horiz-adv-x="1042" d="M0 659v117h176v637h285q105 0 185 -35.5t130 -96.5t81.5 -152.5t43.5 -193t12 -228.5t-12 -229t-43.5 -193.5t-81.5 -152.5t-130 -96.5t-185 -35.5h-285v659h-176zM299 119h162q81 0 140 30.5t94.5 81t56.5 129t28.5 159.5t7.5 188t-7.5 188t-28.5 159.5t-56.5 128.5 t-94.5 80.5t-140 30.5h-162v-518h233v-117h-233v-540z" />
<glyph unicode="&#xd1;" horiz-adv-x="1040" d="M176 0v1413h107l391 -952q16 -39 42.5 -120t45.5 -143l18 -61q-35 251 -35 355v921h115v-1413h-106l-392 952q-10 25 -36.5 106t-47.5 150l-22 68q35 -284 35 -354v-922h-115zM236 1610q3 91 41.5 146.5t111.5 55.5q39 0 78.5 -18t65.5 -40t56 -40t52 -18q39 0 55.5 18 t26.5 74h78q-3 -88 -40.5 -144.5t-113.5 -56.5q-41 0 -80 18t-63.5 39.5t-54 39.5t-52.5 18q-40 0 -57.5 -19t-26.5 -73h-77z" />
<glyph unicode="&#xd2;" horiz-adv-x="1003" d="M129 707q0 273 38.5 431.5t118.5 227t216 68.5t215.5 -68.5t118 -227t38.5 -431.5t-38.5 -431.5t-118 -227t-215.5 -68.5t-216 68.5t-118.5 227t-38.5 431.5zM244 1882h135l242 -305h-121zM254 707q0 -176 10.5 -286t39 -185t76 -105.5t122.5 -30.5q61 0 103 20.5 t71 62.5t45 116.5t22.5 170.5t6.5 237t-6.5 237t-22.5 170.5t-45 116t-71 62t-103 20.5q-60 0 -102 -20.5t-71 -62.5t-45 -116t-23 -170t-7 -237z" />
<glyph unicode="&#xd3;" horiz-adv-x="1003" d="M129 707q0 273 38.5 431.5t118.5 227t216 68.5t215.5 -68.5t118 -227t38.5 -431.5t-38.5 -431.5t-118 -227t-215.5 -68.5t-216 68.5t-118.5 227t-38.5 431.5zM254 707q0 -176 10.5 -286t39 -185t76 -105.5t122.5 -30.5q61 0 103 20.5t71 62.5t45 116.5t22.5 170.5 t6.5 237t-6.5 237t-22.5 170.5t-45 116t-71 62t-103 20.5q-60 0 -102 -20.5t-71 -62.5t-45 -116t-23 -170t-7 -237zM373 1577l241 305h136l-256 -305h-121z" />
<glyph unicode="&#xd4;" horiz-adv-x="1003" d="M129 707q0 273 38.5 431.5t118.5 227t216 68.5t215.5 -68.5t118 -227t38.5 -431.5t-38.5 -431.5t-118 -227t-215.5 -68.5t-216 68.5t-118.5 227t-38.5 431.5zM217 1577l242 305h90l242 -305h-123l-164 197l-164 -197h-123zM254 707q0 -176 10.5 -286t39 -185t76 -105.5 t122.5 -30.5q61 0 103 20.5t71 62.5t45 116.5t22.5 170.5t6.5 237t-6.5 237t-22.5 170.5t-45 116t-71 62t-103 20.5q-60 0 -102 -20.5t-71 -62.5t-45 -116t-23 -170t-7 -237z" />
<glyph unicode="&#xd5;" horiz-adv-x="1003" d="M129 707q0 273 38.5 431.5t118.5 227t216 68.5t215.5 -68.5t118 -227t38.5 -431.5t-38.5 -431.5t-118 -227t-215.5 -68.5t-216 68.5t-118.5 227t-38.5 431.5zM221 1610q3 91 42 146.5t112 55.5q39 0 78.5 -18t65.5 -40t56 -40t52 -18q39 0 55.5 18t26.5 74h77 q-3 -88 -40 -144.5t-113 -56.5q-41 0 -80 18t-63.5 39.5t-54 39.5t-52.5 18q-40 0 -57.5 -19t-26.5 -73h-78zM254 707q0 -176 10.5 -286t39 -185t76 -105.5t122.5 -30.5q61 0 103 20.5t71 62.5t45 116.5t22.5 170.5t6.5 237t-6.5 237t-22.5 170.5t-45 116t-71 62t-103 20.5 q-60 0 -102 -20.5t-71 -62.5t-45 -116t-23 -170t-7 -237z" />
<glyph unicode="&#xd6;" horiz-adv-x="1003" d="M129 707q0 273 38.5 431.5t118.5 227t216 68.5t215.5 -68.5t118 -227t38.5 -431.5t-38.5 -431.5t-118 -227t-215.5 -68.5t-216 68.5t-118.5 227t-38.5 431.5zM254 707q0 -176 10.5 -286t39 -185t76 -105.5t122.5 -30.5q61 0 103 20.5t71 62.5t45 116.5t22.5 170.5 t6.5 237t-6.5 237t-22.5 170.5t-45 116t-71 62t-103 20.5q-60 0 -102 -20.5t-71 -62.5t-45 -116t-23 -170t-7 -237zM268 1653q0 32 22 55t54 23t54 -23t22 -55t-22 -54t-54 -22t-54 22t-22 54zM586 1653q0 32 22 55t54 23t53.5 -22.5t21.5 -55.5q0 -32 -21.5 -54t-53.5 -22 t-54 22t-22 54z" />
<glyph unicode="&#xd7;" d="M133 342l221 221l-221 219l78 78l219 -221l219 219l78 -78l-219 -217l219 -219l-78 -78l-219 219l-219 -221z" />
<glyph unicode="&#xd8;" horiz-adv-x="1003" d="M129 707q0 273 38.5 431.5t118.5 227t216 68.5q122 0 196 -54l52 136h110q-82 -222 -84 -222q98 -163 98 -587q0 -273 -38.5 -431.5t-118 -227t-215.5 -68.5q-124 0 -197 53l-51 -135h-111l82 221q-96 164 -96 588zM250 707q0 -297 35 -431l368 981q-53 56 -151 56 q-147 0 -199.5 -131t-52.5 -475zM350 156q53 -56 152 -56q148 0 200 131t52 476q0 298 -35 430z" />
<glyph unicode="&#xd9;" horiz-adv-x="983" d="M166 303v1110h123v-1110q0 -100 51.5 -151.5t151.5 -51.5t151 51.5t51 151.5v1110h123v-1110q0 -149 -88 -236t-237 -87q-150 0 -238 87t-88 236zM195 1882h135l241 -305h-120z" />
<glyph unicode="&#xda;" horiz-adv-x="983" d="M166 303v1110h123v-1110q0 -100 51.5 -151.5t151.5 -51.5t151 51.5t51 151.5v1110h123v-1110q0 -149 -88 -236t-237 -87q-150 0 -238 87t-88 236zM379 1577l242 305h135l-256 -305h-121z" />
<glyph unicode="&#xdb;" horiz-adv-x="983" d="M166 303v1110h123v-1110q0 -100 51.5 -151.5t151.5 -51.5t151 51.5t51 151.5v1110h123v-1110q0 -149 -88 -236t-237 -87q-150 0 -238 87t-88 236zM207 1577l242 305h90l241 -305h-123l-163 197l-164 -197h-123z" />
<glyph unicode="&#xdc;" horiz-adv-x="983" d="M166 303v1110h123v-1110q0 -100 51.5 -151.5t151.5 -51.5t151 51.5t51 151.5v1110h123v-1110q0 -149 -88 -236t-237 -87q-150 0 -238 87t-88 236zM258 1653q0 32 22 55t54 23t54 -23t22 -55t-22 -54t-54 -22t-54 22t-22 54zM575 1653q0 32 22 55t54 23t54 -23t22 -55 t-22 -54t-54 -22t-54 22t-22 54z" />
<glyph unicode="&#xdd;" horiz-adv-x="856" d="M45 1413h131l199 -561q10 -27 23.5 -69.5t21.5 -71.5l8 -29q30 109 53 170l199 561h131l-322 -885v-528h-122v528zM303 1577l242 305h135l-256 -305h-121z" />
<glyph unicode="&#xde;" horiz-adv-x="907" d="M176 0v1413h123v-262h156q179 0 273.5 -120t94.5 -326t-94.5 -324.5t-273.5 -118.5h-156v-262h-123zM299 383h156q129 0 186 81.5t57 240.5q0 161 -57 244t-186 83h-156v-649z" />
<glyph unicode="&#xdf;" horiz-adv-x="921" d="M152 0v1085q0 177 79 257.5t234 80.5q158 0 233.5 -85t75.5 -285q0 -220 -96 -287q170 -60 170 -375q0 -114 -19 -194t-56.5 -124.5t-84.5 -63.5t-110 -19q-113 0 -197 45v151q96 -75 201 -75q31 0 54.5 11.5t44 41t31.5 88t11 145.5q0 89 -12 147t-37 88.5t-56 42 t-77 11.5h-160v117h104q89 0 128.5 52.5t39.5 197.5q0 137 -44.5 193.5t-143.5 56.5q-103 0 -147 -49.5t-44 -163.5v-1090h-122z" />
<glyph unicode="&#xe0;" horiz-adv-x="819" d="M82 268q0 157 85.5 246.5t221.5 89.5h162v127q0 104 -38 148.5t-122 44.5q-128 0 -260 -95v150q147 65 260 65q145 0 214 -75.5t69 -251.5v-430q0 -193 20 -287h-127q-8 78 -10 135l-53 -53q-98 -98 -199 -98q-106 0 -164.5 74.5t-58.5 209.5zM129 1473h135l242 -306 h-121zM201 266q0 -84 31 -125t83 -41q84 0 168 84l68 68v246h-145q-106 0 -155.5 -64t-49.5 -168z" />
<glyph unicode="&#xe1;" horiz-adv-x="819" d="M82 268q0 157 85.5 246.5t221.5 89.5h162v127q0 104 -38 148.5t-122 44.5q-128 0 -260 -95v150q147 65 260 65q145 0 214 -75.5t69 -251.5v-430q0 -193 20 -287h-127q-8 78 -10 135l-53 -53q-98 -98 -199 -98q-106 0 -164.5 74.5t-58.5 209.5zM201 266q0 -84 31 -125 t83 -41q84 0 168 84l68 68v246h-145q-106 0 -155.5 -64t-49.5 -168zM270 1167l242 306h135l-256 -306h-121z" />
<glyph unicode="&#xe2;" horiz-adv-x="819" d="M82 268q0 157 85.5 246.5t221.5 89.5h162v127q0 104 -38 148.5t-122 44.5q-128 0 -260 -95v150q147 65 260 65q145 0 214 -75.5t69 -251.5v-430q0 -193 20 -287h-127q-8 78 -10 135l-53 -53q-98 -98 -199 -98q-106 0 -164.5 74.5t-58.5 209.5zM123 1167l242 306h90 l241 -306h-123l-163 197l-164 -197h-123zM201 266q0 -84 31 -125t83 -41q84 0 168 84l68 68v246h-145q-106 0 -155.5 -64t-49.5 -168z" />
<glyph unicode="&#xe3;" horiz-adv-x="819" d="M82 268q0 157 85.5 246.5t221.5 89.5h162v127q0 104 -38 148.5t-122 44.5q-128 0 -260 -95v150q147 65 260 65q145 0 214 -75.5t69 -251.5v-430q0 -193 20 -287h-127q-8 78 -10 135l-53 -53q-98 -98 -199 -98q-106 0 -164.5 74.5t-58.5 209.5zM121 1200q3 91 41.5 147 t111.5 56q39 0 78.5 -18.5t65.5 -40t56 -40t52 -18.5q39 0 55.5 18t26.5 74h78q-3 -88 -40.5 -144t-113.5 -56q-41 0 -79.5 18t-63.5 39t-54 39t-52 18q-40 0 -57.5 -19t-26.5 -73h-78zM201 266q0 -84 31 -125t83 -41q84 0 168 84l68 68v246h-145q-106 0 -155.5 -64 t-49.5 -168z" />
<glyph unicode="&#xe4;" horiz-adv-x="819" d="M82 268q0 157 85.5 246.5t221.5 89.5h162v127q0 104 -38 148.5t-122 44.5q-128 0 -260 -95v150q147 65 260 65q145 0 214 -75.5t69 -251.5v-430q0 -193 20 -287h-127q-8 78 -10 135l-53 -53q-98 -98 -199 -98q-106 0 -164.5 74.5t-58.5 209.5zM170 1243q0 32 22 55t54 23 t54 -23t22 -55t-22 -54t-54 -22t-54 22t-22 54zM201 266q0 -84 31 -125t83 -41q84 0 168 84l68 68v246h-145q-106 0 -155.5 -64t-49.5 -168zM487 1243q0 32 22 55t54 23t54 -23t22 -55t-22 -54t-54 -22t-54 22t-22 54z" />
<glyph unicode="&#xe5;" horiz-adv-x="819" d="M82 268q0 157 85.5 246.5t221.5 89.5h162v127q0 104 -38 148.5t-122 44.5q-128 0 -260 -95v150q147 65 260 65q145 0 214 -75.5t69 -251.5v-430q0 -193 20 -287h-127q-8 78 -10 135l-53 -53q-98 -98 -199 -98q-106 0 -164.5 74.5t-58.5 209.5zM186 1391q0 89 64 152 t153 63q90 0 154 -63t64 -152t-64 -152t-154 -63q-89 0 -153 63t-64 152zM201 266q0 -84 31 -125t83 -41q84 0 168 84l68 68v246h-145q-106 0 -155.5 -64t-49.5 -168zM279 1391q0 -53 36 -89t88 -36q53 0 89 36t36 89t-36 89t-89 36q-52 0 -88 -36t-36 -89z" />
<glyph unicode="&#xe6;" horiz-adv-x="1308" d="M82 268q0 159 86.5 256t220.5 97h162v110q0 105 -38 149t-128 44q-129 0 -254 -88v143q3 1 27.5 11t33 13t32 11.5t38.5 12t37 8.5t43 7t43 2q191 0 244 -124q61 124 254 124q144 0 211 -75.5t67 -251.5v-205h-487q0 -127 12 -208.5t37.5 -124t58 -58t82.5 -15.5 q148 0 275 89v-144q-51 -20 -77 -29.5t-85 -22.5t-113 -13q-102 0 -168 39.5t-102 146.5l-90 -90q-98 -98 -199 -98q-106 0 -164.5 74.5t-58.5 209.5zM201 266q0 -84 31 -125t83 -41q38 0 75.5 21t92.5 76l84 84q-16 101 -16 231h-145q-105 0 -155 -70t-50 -176zM676 621 h364v96q0 119 -33 166t-124 47q-108 0 -153.5 -69.5t-53.5 -239.5z" />
<glyph unicode="&#xe7;" horiz-adv-x="737" d="M121 512q0 135 13.5 230t36 152t62 88.5t81 41.5t102.5 10q107 0 231 -63v-146q-120 90 -231 90q-63 0 -98 -29t-54.5 -118t-19.5 -256q0 -160 17 -246.5t53 -120.5t102 -34q134 0 231 92v-150q-91 -54 -194 -61l-25 -82q62 -17 94.5 -58.5t32.5 -99.5q0 -69 -46 -112 t-132 -43q-71 0 -166 53v88q30 -20 81.5 -37.5t78.5 -17.5q43 0 65.5 18.5t22.5 52.5q0 36 -27.5 57t-79.5 21h-33l41 160q-63 6 -104.5 29.5t-73.5 80t-46.5 157t-14.5 253.5z" />
<glyph unicode="&#xe8;" horiz-adv-x="878" d="M121 512q0 199 34.5 315t105.5 166.5t192 50.5q144 0 211 -75.5t67 -251.5v-205h-487q0 -127 12 -208.5t37.5 -124t58 -58t82.5 -15.5q148 0 275 89v-144q-51 -20 -77 -29.5t-85 -22.5t-113 -13q-61 0 -105.5 11.5t-85.5 45t-66.5 91.5t-40.5 152.5t-15 225.5zM217 1473 h135l242 -306h-121zM246 625h364v92q0 119 -33 166t-124 47q-108 0 -153.5 -68t-53.5 -237z" />
<glyph unicode="&#xe9;" horiz-adv-x="878" d="M121 512q0 199 34.5 315t105.5 166.5t192 50.5q144 0 211 -75.5t67 -251.5v-205h-487q0 -127 12 -208.5t37.5 -124t58 -58t82.5 -15.5q148 0 275 89v-144q-51 -20 -77 -29.5t-85 -22.5t-113 -13q-61 0 -105.5 11.5t-85.5 45t-66.5 91.5t-40.5 152.5t-15 225.5zM246 625 h364v92q0 119 -33 166t-124 47q-108 0 -153.5 -68t-53.5 -237zM324 1167l241 306h135l-256 -306h-120z" />
<glyph unicode="&#xea;" horiz-adv-x="878" d="M121 512q0 199 34.5 315t105.5 166.5t192 50.5q144 0 211 -75.5t67 -251.5v-205h-487q0 -127 12 -208.5t37.5 -124t58 -58t82.5 -15.5q148 0 275 89v-144q-51 -20 -77 -29.5t-85 -22.5t-113 -13q-61 0 -105.5 11.5t-85.5 45t-66.5 91.5t-40.5 152.5t-15 225.5zM168 1167 l242 306h90l241 -306h-123l-163 197l-164 -197h-123zM246 625h364v92q0 119 -33 166t-124 47q-108 0 -153.5 -68t-53.5 -237z" />
<glyph unicode="&#xeb;" horiz-adv-x="878" d="M121 512q0 199 34.5 315t105.5 166.5t192 50.5q144 0 211 -75.5t67 -251.5v-205h-487q0 -127 12 -208.5t37.5 -124t58 -58t82.5 -15.5q148 0 275 89v-144q-51 -20 -77 -29.5t-85 -22.5t-113 -13q-61 0 -105.5 11.5t-85.5 45t-66.5 91.5t-40.5 152.5t-15 225.5zM221 1243 q0 32 22 55t54 23t54 -23t22 -55t-22 -54t-54 -22t-54 22t-22 54zM246 625h364v92q0 119 -33 166t-124 47q-108 0 -153.5 -68t-53.5 -237zM539 1243q0 33 21.5 55.5t53.5 22.5t54 -23t22 -55t-22 -54t-54 -22t-53.5 22t-21.5 54z" />
<glyph unicode="&#xec;" horiz-adv-x="477" d="M-68 1473h136l241 -306h-121zM80 907v117h225v-1024h-123v907h-102z" />
<glyph unicode="&#xed;" horiz-adv-x="477" d="M80 907v117h225v-1024h-123v907h-102zM88 1167l242 306h135l-256 -306h-121z" />
<glyph unicode="&#xee;" horiz-adv-x="477" d="M-49 1167l242 306h90l241 -306h-123l-163 197l-164 -197h-123zM80 907v117h225v-1024h-123v907h-102z" />
<glyph unicode="&#xef;" horiz-adv-x="477" d="M4 1243q0 32 22 55t54 23t54 -23t22 -55t-22 -54t-54 -22t-54 22t-22 54zM80 907v117h225v-1024h-123v907h-102zM322 1243q0 33 21.5 55.5t53.5 22.5t54 -23t22 -55t-22 -54t-54 -22t-53.5 22t-21.5 54z" />
<glyph unicode="&#xf0;" d="M102 457q0 251 68.5 364t216.5 113q51 0 99.5 -22.5t82.5 -57.5l33 -35q0 179 -86 328l-203 -117v127l142 82q-86 113 -205 184h153q103 -72 148 -129l190 109v-127l-127 -74q109 -196 109 -540q0 -156 -7.5 -260t-27 -190t-55 -134t-90.5 -73t-135 -25 q-164 0 -235 111.5t-71 365.5zM225 457q0 -199 38.5 -282t144.5 -83q133 0 172 163q22 92 21 316q-1 70 -1 91v22l-53 55q-71 74 -146 74q-102 0 -139 -80t-37 -276z" />
<glyph unicode="&#xf1;" horiz-adv-x="905" d="M131 1024h127q14 -198 14 -205l101 113q100 112 198 112q60 0 99.5 -22t59.5 -66.5t27 -96t7 -126.5v-733h-123v784q0 140 -92 140q-31 0 -65.5 -23t-90.5 -86l-119 -133v-682h-122v737q0 188 -21 287zM170 1200q3 91 42 147t112 56q49 0 97.5 -29.5t87.5 -58.5t66 -29 q39 0 55.5 18t26.5 74h78q-3 -88 -40 -144t-113 -56q-41 0 -80 18t-63.5 39t-54 39t-52.5 18q-40 0 -57.5 -19t-26.5 -73h-78z" />
<glyph unicode="&#xf2;" horiz-adv-x="884" d="M121 512q0 199 33 315t102 166.5t186 50.5t186 -50.5t102.5 -166.5t33.5 -315t-33.5 -315t-102.5 -166.5t-186 -50.5t-186 50.5t-102 166.5t-33 315zM190 1473h136l241 -306h-121zM244 512q0 -239 40.5 -328.5t157.5 -89.5q118 0 158.5 90t40.5 328t-40.5 328t-158.5 90 q-117 0 -157.5 -89.5t-40.5 -328.5z" />
<glyph unicode="&#xf3;" horiz-adv-x="884" d="M121 512q0 199 33 315t102 166.5t186 50.5t186 -50.5t102.5 -166.5t33.5 -315t-33.5 -315t-102.5 -166.5t-186 -50.5t-186 50.5t-102 166.5t-33 315zM244 512q0 -239 40.5 -328.5t157.5 -89.5q118 0 158.5 90t40.5 328t-40.5 328t-158.5 90q-117 0 -157.5 -89.5 t-40.5 -328.5zM317 1167l242 306h135l-256 -306h-121z" />
<glyph unicode="&#xf4;" horiz-adv-x="884" d="M121 512q0 199 33 315t102 166.5t186 50.5t186 -50.5t102.5 -166.5t33.5 -315t-33.5 -315t-102.5 -166.5t-186 -50.5t-186 50.5t-102 166.5t-33 315zM158 1167l241 306h90l242 -306h-123l-164 197l-163 -197h-123zM244 512q0 -239 40.5 -328.5t157.5 -89.5 q118 0 158.5 90t40.5 328t-40.5 328t-158.5 90q-117 0 -157.5 -89.5t-40.5 -328.5z" />
<glyph unicode="&#xf5;" horiz-adv-x="884" d="M121 512q0 199 33 315t102 166.5t186 50.5t186 -50.5t102.5 -166.5t33.5 -315t-33.5 -315t-102.5 -166.5t-186 -50.5t-186 50.5t-102 166.5t-33 315zM160 1200q3 91 41.5 147t111.5 56q39 0 78.5 -18.5t65.5 -40t56 -40t52 -18.5q39 0 55.5 18t26.5 74h78 q-3 -88 -40.5 -144t-113.5 -56q-41 0 -79.5 18t-63.5 39t-54 39t-52 18q-40 0 -57.5 -19t-26.5 -73h-78zM244 512q0 -239 40.5 -328.5t157.5 -89.5q118 0 158.5 90t40.5 328t-40.5 328t-158.5 90q-117 0 -157.5 -89.5t-40.5 -328.5z" />
<glyph unicode="&#xf6;" horiz-adv-x="884" d="M121 512q0 199 33 315t102 166.5t186 50.5t186 -50.5t102.5 -166.5t33.5 -315t-33.5 -315t-102.5 -166.5t-186 -50.5t-186 50.5t-102 166.5t-33 315zM207 1243q0 32 22 55t54 23t53.5 -22.5t21.5 -55.5q0 -32 -21.5 -54t-53.5 -22t-54 22t-22 54zM244 512 q0 -239 40.5 -328.5t157.5 -89.5q118 0 158.5 90t40.5 328t-40.5 328t-158.5 90q-117 0 -157.5 -89.5t-40.5 -328.5zM524 1243q0 32 22 55t54 23t54 -23t22 -55t-22 -54t-54 -22t-54 22t-22 54z" />
<glyph unicode="&#xf7;" d="M123 510v108h614v-108h-614zM338 258q0 38 27 65t65 27t65 -27t27 -65t-27 -65t-65 -27t-65 27t-27 65zM338 870q0 38 27 65.5t65 27.5t65 -27.5t27 -65.5t-27 -65t-65 -27t-65 27t-27 65z" />
<glyph unicode="&#xf8;" horiz-adv-x="884" d="M121 512q0 199 33 315t102 166.5t186 50.5q102 0 160 -34l49 116h111l-78 -190q80 -119 80 -424q0 -199 -33.5 -315t-102.5 -166.5t-186 -50.5q-87 0 -143 26l-45 -108h-111l72 172q-94 117 -94 442zM242 512q0 -210 28 -305l287 690q-42 33 -115 33q-118 0 -159 -90 t-41 -328zM344 115q40 -21 98 -21q118 0 159.5 90t41.5 328q0 184 -20 274z" />
<glyph unicode="&#xf9;" horiz-adv-x="884" d="M141 291v733h123v-784q0 -140 92 -140q31 0 65.5 23t90.5 86l98 110v705h123v-737q0 -188 21 -287h-127q-1 8 -4 39t-6 70t-5 73l-80 -90q-97 -112 -198 -112q-60 0 -99.5 22t-59.5 66.5t-27 96t-7 126.5zM190 1473h136l241 -306h-121z" />
<glyph unicode="&#xfa;" horiz-adv-x="884" d="M141 291v733h123v-784q0 -140 92 -140q31 0 65.5 23t90.5 86l98 110v705h123v-737q0 -188 21 -287h-127q-1 8 -4 39t-6 70t-5 73l-80 -90q-97 -112 -198 -112q-60 0 -99.5 22t-59.5 66.5t-27 96t-7 126.5zM303 1167l242 306h135l-256 -306h-121z" />
<glyph unicode="&#xfb;" horiz-adv-x="884" d="M141 291v733h123v-784q0 -140 92 -140q31 0 65.5 23t90.5 86l98 110v705h123v-737q0 -188 21 -287h-127q-1 8 -4 39t-6 70t-5 73l-80 -90q-97 -112 -198 -112q-60 0 -99.5 22t-59.5 66.5t-27 96t-7 126.5zM150 1167l241 306h90l242 -306h-123l-164 197l-164 -197h-122z " />
<glyph unicode="&#xfc;" horiz-adv-x="884" d="M141 291v733h123v-784q0 -140 92 -140q31 0 65.5 23t90.5 86l98 110v705h123v-737q0 -188 21 -287h-127q-1 8 -4 39t-6 70t-5 73l-80 -90q-97 -112 -198 -112q-60 0 -99.5 22t-59.5 66.5t-27 96t-7 126.5zM201 1243q0 33 21.5 55.5t53.5 22.5t54 -23t22 -55t-22 -54 t-54 -22t-53.5 22t-21.5 54zM518 1243q0 32 22 55t54 23t54 -23t22 -55t-22 -54t-54 -22t-54 22t-22 54z" />
<glyph unicode="&#xfd;" horiz-adv-x="874" d="M141 291v733h123v-784q0 -140 92 -140q31 0 65.5 23t90.5 86l88 98v717h123v-1106q0 -174 -71.5 -251t-207.5 -77q-128 0 -284 62v147q128 -88 284 -88q85 0 120.5 46t35.5 161v250l-68 -76q-100 -112 -198 -112q-60 0 -99.5 22t-59.5 66.5t-27 96t-7 126.5zM313 1167 l242 306h135l-256 -306h-121z" />
<glyph unicode="&#xfe;" horiz-adv-x="903" d="M152 -389v1802h122v-522l37 41q43 48 101.5 80t111.5 32q91 0 145.5 -46t83.5 -164t29 -322t-29 -322t-83.5 -164t-145.5 -46q-54 0 -113 32t-100 80l-37 43v-524h-122zM274 274l58 -65q97 -111 178 -111q27 0 46 6.5t40 31.5t33.5 68t21 121t8.5 187t-8.5 187t-21 121 t-33.5 68t-40 31.5t-46 6.5q-78 0 -178 -111l-58 -65v-476z" />
<glyph unicode="&#xff;" horiz-adv-x="874" d="M141 291v733h123v-784q0 -140 92 -140q31 0 65.5 23t90.5 86l88 98v717h123v-1106q0 -174 -71.5 -251t-207.5 -77q-128 0 -284 62v147q128 -88 284 -88q85 0 120.5 46t35.5 161v250l-68 -76q-100 -112 -198 -112q-60 0 -99.5 22t-59.5 66.5t-27 96t-7 126.5zM199 1243 q0 33 21.5 55.5t53.5 22.5t54 -23t22 -55t-22 -54t-54 -22t-53.5 22t-21.5 54zM516 1243q0 32 22 55t54 23t54 -23t22 -55t-22 -54t-54 -22t-54 22t-22 54z" />
<glyph unicode="&#x152;" horiz-adv-x="1406" d="M129 707q0 127 12.5 228.5t43.5 193t81.5 152.5t130.5 96.5t185 35.5h684v-119h-400v-491h379v-119h-379v-565h420v-119h-704q-105 0 -185 35.5t-130.5 96.5t-81.5 152.5t-43.5 193.5t-12.5 229zM254 707q0 -106 7.5 -188t28.5 -160t57 -128.5t95 -81t140 -30.5h161v1175 h-161q-81 0 -140 -30.5t-95 -81t-57 -128.5t-28.5 -159.5t-7.5 -187.5z" />
<glyph unicode="&#x153;" horiz-adv-x="1398" d="M121 512q0 199 33 315t102 166.5t186 50.5q205 0 260 -163q59 163 271 163q144 0 211 -75.5t67 -251.5v-205h-487q0 -127 12 -208.5t37.5 -124t58 -58t82.5 -15.5q148 0 275 89v-144q-51 -20 -77 -29.5t-85 -22.5t-113 -13q-206 0 -252 155q-55 -161 -260 -161 q-117 0 -186 50.5t-102 166.5t-33 315zM244 512q0 -239 40.5 -328.5t157.5 -89.5q118 0 158.5 90t40.5 328t-40.5 328t-158.5 90q-117 0 -157.5 -89.5t-40.5 -328.5zM766 625h364v92q0 119 -33 166t-124 47q-108 0 -153.5 -68t-53.5 -237z" />
<glyph unicode="&#x178;" horiz-adv-x="856" d="M45 1413h131l199 -561q10 -27 23.5 -69.5t21.5 -71.5l8 -29q30 109 53 170l199 561h131l-322 -885v-528h-122v528zM193 1653q0 33 21.5 55.5t53.5 22.5t54 -23t22 -55t-22 -54t-54 -22t-53.5 22t-21.5 54zM510 1653q0 32 22 55t54 23t54 -23t22 -55t-22 -54t-54 -22 t-54 22t-22 54z" />
<glyph unicode="&#x2c6;" d="M147 1167l242 306h90l242 -306h-123l-164 197l-164 -197h-123z" />
<glyph unicode="&#x2dc;" d="M147 1200q3 91 42 147t112 56q39 0 78.5 -18.5t65.5 -40t56 -40t52 -18.5q39 0 55.5 18t26.5 74h78q-3 -88 -40.5 -144t-113.5 -56q-41 0 -80 18t-63.5 39t-54 39t-52.5 18q-40 0 -57.5 -19t-26.5 -73h-78z" />
<glyph unicode="&#x2000;" horiz-adv-x="1007" />
<glyph unicode="&#x2001;" horiz-adv-x="2015" />
<glyph unicode="&#x2002;" horiz-adv-x="1007" />
<glyph unicode="&#x2003;" horiz-adv-x="2015" />
<glyph unicode="&#x2004;" horiz-adv-x="671" />
<glyph unicode="&#x2005;" horiz-adv-x="503" />
<glyph unicode="&#x2006;" horiz-adv-x="335" />
<glyph unicode="&#x2007;" horiz-adv-x="335" />
<glyph unicode="&#x2008;" horiz-adv-x="251" />
<glyph unicode="&#x2009;" horiz-adv-x="403" />
<glyph unicode="&#x200a;" horiz-adv-x="111" />
<glyph unicode="&#x2010;" d="M164 504v119h532v-119h-532z" />
<glyph unicode="&#x2011;" d="M164 504v119h532v-119h-532z" />
<glyph unicode="&#x2012;" d="M164 504v119h532v-119h-532z" />
<glyph unicode="&#x2013;" horiz-adv-x="921" d="M92 510v108h739v-108h-739z" />
<glyph unicode="&#x2014;" horiz-adv-x="987" d="M-2 510v108h991v-108h-991z" />
<glyph unicode="&#x2018;" horiz-adv-x="401" d="M90 909l105 504h100l-45 -504h-160z" />
<glyph unicode="&#x2019;" horiz-adv-x="401" d="M106 909l46 504h159l-104 -504h-101z" />
<glyph unicode="&#x201a;" horiz-adv-x="401" d="M106 -328l46 504h159l-104 -504h-101z" />
<glyph unicode="&#x201c;" horiz-adv-x="782" d="M90 909l105 504h100l-45 -504h-160zM471 909l104 504h101l-45 -504h-160z" />
<glyph unicode="&#x201d;" horiz-adv-x="782" d="M106 909l46 504h159l-104 -504h-101zM487 909l45 504h160l-104 -504h-101z" />
<glyph unicode="&#x201e;" horiz-adv-x="782" d="M106 -328l46 504h159l-104 -504h-101zM487 -328l45 504h160l-104 -504h-101z" />
<glyph unicode="&#x2022;" horiz-adv-x="704" d="M164 563q0 78 55 133.5t133 55.5t133.5 -55.5t55.5 -133.5t-55.5 -133t-133.5 -55t-133 55t-55 133z" />
<glyph unicode="&#x2026;" horiz-adv-x="1658" d="M139 86q0 43 32 75t75 32t74.5 -32t31.5 -75t-31.5 -74.5t-74.5 -31.5t-75 31.5t-32 74.5zM692 86q0 43 32 75t75 32t74.5 -32t31.5 -75t-31.5 -74.5t-74.5 -31.5t-75 31.5t-32 74.5zM1245 86q0 43 32 75t75 32t74.5 -32t31.5 -75t-31.5 -74.5t-74.5 -31.5t-75 31.5 t-32 74.5z" />
<glyph unicode="&#x202f;" horiz-adv-x="403" />
<glyph unicode="&#x2039;" horiz-adv-x="677" d="M123 539v49l452 354v-137l-307 -242l307 -241v-138z" />
<glyph unicode="&#x203a;" horiz-adv-x="677" d="M102 184v138l308 241l-308 242v137l453 -354v-49z" />
<glyph unicode="&#x205f;" horiz-adv-x="503" />
<glyph unicode="&#x2122;" horiz-adv-x="1435" d="M86 1307v106h471v-106h-180v-746h-111v746h-180zM664 561v852h137l129 -498q9 -30 18.5 -72t15.5 -69l5 -26q19 99 39 167l129 498h141v-852h-107v574l7 131q-15 -86 -23 -119l-151 -586h-78l-152 586l-22 119q6 -86 6 -131v-574h-94z" />
<glyph unicode="&#xe000;" horiz-adv-x="1024" d="M0 0v1024h1024v-1024h-1024z" />
<glyph unicode="&#xfb01;" horiz-adv-x="1021" d="M74 907v117h131v72q0 179 66.5 253t222.5 74q94 0 356 -45v-137q-73 24 -175.5 43t-180.5 19q-99 0 -132.5 -43.5t-33.5 -163.5v-72h522v-1024h-123v907h-399v-907h-123v907h-131z" />
<glyph unicode="&#xfb02;" horiz-adv-x="1069" d="M74 907v117h131v72q0 177 73.5 252t235.5 75q61 0 200 -5t183 -5v-1413h-123v1284q-139 19 -260 19q-108 0 -147 -44.5t-39 -162.5v-72h245v-117h-245v-907h-123v907h-131z" />
</font>
</defs>
</svg>
